<svg width="195" height="153" viewBox="0 0 195 153" fill="none" xmlns="http://www.w3.org/2000/svg">
<g clip-path="url(#clip0_274_11008)">
<path fill-rule="evenodd" clip-rule="evenodd" d="M118.25 38.2502C118.162 38.1917 118.082 38.1178 118.016 38.03C117.95 37.9421 117.906 37.847 117.877 37.738C117.848 37.6274 117.84 37.5104 117.862 37.3933C117.877 37.2769 117.921 37.1671 117.979 37.072C118.038 36.9768 118.111 36.8956 118.199 36.8305C118.286 36.7712 118.382 36.72 118.483 36.6907C118.6 36.6614 118.718 36.6541 118.835 36.6768C118.952 36.6907 119.061 36.7353 119.157 36.7939C119.252 36.8524 119.332 36.9249 119.398 37.0134C119.456 37.1013 119.508 37.1964 119.537 37.2981C119.567 37.4152 119.567 37.533 119.552 37.6501C119.537 37.7672 119.493 37.8763 119.435 37.9714C119.376 38.0673 119.303 38.147 119.215 38.2129C119.128 38.2715 119.032 38.3234 118.923 38.3527C118.813 38.382 118.695 38.3886 118.579 38.3666C118.462 38.3527 118.352 38.3081 118.25 38.2502" fill="#CFB38E"/>
<path fill-rule="evenodd" clip-rule="evenodd" d="M117.898 29.98C117.935 29.9214 117.979 29.8636 118.031 29.819C118.089 29.7678 118.155 29.7173 118.228 29.688C118.484 29.5555 118.821 29.5409 119.091 29.6433C119.23 29.6946 119.362 29.7758 119.457 29.8922C119.5 29.9588 119.537 30.0246 119.56 30.1044C119.574 30.171 119.581 30.2435 119.566 30.3093C119.449 30.4491 119.274 30.5801 119.12 30.6679C118.966 30.7565 118.769 30.8362 118.593 30.8736C118.447 30.8582 118.301 30.815 118.169 30.7338C118.103 30.6972 118.045 30.646 117.986 30.5955C117.943 30.5369 117.907 30.4784 117.877 30.4125C117.819 30.2727 117.833 30.119 117.898 29.98" fill="#CFB38E"/>
<path fill-rule="evenodd" clip-rule="evenodd" d="M118.652 34.6125C118.44 34.7808 118.169 34.8986 117.891 34.9198C117.745 34.9345 117.592 34.9198 117.445 34.8613C117.328 34.8108 117.226 34.7369 117.153 34.6344C117.072 34.5393 117.028 34.4149 117.014 34.2912C116.999 34.1375 117.021 33.9904 117.08 33.844C117.175 33.5886 117.357 33.361 117.577 33.1934C117.789 33.0317 118.06 32.9153 118.338 32.8861C118.484 32.878 118.638 32.8927 118.777 32.9512C118.894 32.9951 118.996 33.069 119.077 33.1708C119.157 33.2732 119.201 33.3903 119.216 33.5147C119.23 33.6684 119.201 33.8221 119.15 33.9611C119.055 34.2253 118.872 34.4515 118.652 34.6125" fill="#CFB38E"/>
<path fill-rule="evenodd" clip-rule="evenodd" d="M116.457 37.3062C116.604 37.6933 116.757 38.382 116.706 39.209C116.655 40.0425 116.399 41.0159 115.945 41.6818C115.492 42.3485 114.826 42.6991 114.197 42.9113C113.568 43.1162 112.976 43.1755 112.31 42.9113C111.644 42.6486 110.905 42.0551 110.488 41.4696C110.071 40.8849 109.976 40.2994 110.071 39.692C110.167 39.0846 110.459 38.4544 110.861 37.9795C111.264 37.5104 111.783 37.1964 112.251 36.889C112.719 36.5817 113.136 36.2882 113.758 36.267C114.38 36.245 115.214 36.4939 115.697 36.6614C116.18 36.8305 116.319 36.9183 116.457 37.3062" fill="#CFB38E"/>
<path fill-rule="evenodd" clip-rule="evenodd" d="M89.6918 122.66C89.618 122.652 89.6992 122.975 89.765 123.304C89.8235 123.634 89.8528 123.962 89.8747 124.651C89.8967 125.266 89.9113 126.166 89.5528 128.229C89.37 128.252 89.1798 128.274 88.9896 128.296C87.2779 128.479 85.2289 128.581 83.474 128.536C83.3789 127.454 83.357 126.744 83.3423 126.078C83.3277 125.163 83.3204 124.336 83.2985 123.926C83.2838 123.684 83.2619 123.596 83.2326 123.596L81.4331 122.711C81.9891 122.397 82.6035 122.082 83.2107 121.848C84.4323 121.387 85.6239 121.285 86.8828 121.233C87.8338 121.197 88.8213 121.189 89.7138 121.218L89.6918 122.66Z" fill="#9C6840"/>
<path fill-rule="evenodd" clip-rule="evenodd" d="M88.682 67.2822C88.6894 69.2793 88.6894 71.278 88.6967 73.2752C89.0551 74.6591 90.0207 77.5937 90.6856 79.5478C90.8027 79.891 90.9131 80.2057 91.0148 80.4918C88.6016 76.5033 87.8042 75.6471 87.4677 74.4542C87.1313 73.2532 87.2629 71.7171 86.4795 68.7898C85.6975 65.8624 84.007 61.5592 83.1511 60.5339C83.2396 60.5339 83.3201 60.5339 83.4079 60.5273C88.6016 60.4834 91.908 58.866 94.7675 57.417C97.6642 55.9387 100.1 54.6499 101.176 53.5749C100.635 53.6985 100.224 53.7505 99.9546 53.7432C100.927 52.7252 102.178 52.1624 103.67 51.6274C105.156 51.1013 106.875 50.5956 108.067 50.2377C109.267 49.8791 109.932 49.6669 110.612 49.2197C111.285 48.7813 111.973 48.1154 113.202 46.9583C114.431 45.802 116.193 44.1554 117.532 42.7071C118.871 41.2573 119.771 39.9993 121.322 37.2769C121.343 37.9421 120.846 40.3206 120.1 41.6825C120.1 41.6825 120.1 41.6891 120.092 41.6972C119.164 43.3145 118.074 45.0343 117.232 46.2338C116.347 47.4779 115.732 48.1446 115.243 48.5757C114.746 49.0009 114.365 49.1838 113.868 49.4546C113.37 49.7254 112.756 50.0913 111.716 50.6695C110.678 51.2549 109.208 52.0453 101.557 57.2114C100.481 58.4782 99.4498 59.6484 98.3453 60.8998C97.1449 62.2471 95.8508 63.6815 94.0067 64.6834C94.044 64.4346 94.1318 64.1345 94.2561 63.7767C93.8319 64.45 92.4713 66.0307 90.701 66.8577C90.8546 66.5284 91.0082 66.2056 91.1619 65.877C90.4523 66.352 89.6257 66.8211 88.682 67.2822" fill="#8D5D37"/>
<path fill-rule="evenodd" clip-rule="evenodd" d="M87.5995 41.0454C85.7122 39.8093 83.0861 38.7035 82.0334 38.4254C83.2104 38.0676 84.571 38.009 86.1218 38.2425C86.2104 38.2644 86.2974 38.2798 86.3852 38.2937C86.4656 38.3164 86.5534 38.3303 86.6412 38.3457C86.6924 38.3523 86.7436 38.3596 86.7948 38.3669C87.0004 38.4042 87.2118 38.4401 87.4166 38.4694C92.4867 38.3889 92.4867 38.5133 92.7859 38.4913C93.0858 38.4767 93.7003 38.323 94.6732 38.0522C95.6534 37.7814 97.0001 37.3936 98.3965 37.0423C99.7864 36.6837 101.242 36.369 102.339 36.0843C103.437 35.8055 104.191 35.5566 104.797 35.3232C105.404 35.0817 105.873 34.8541 106.224 34.6784C106.582 34.5101 106.817 34.4003 107.117 34.1442C107.416 33.8888 107.782 33.4855 108.586 32.922C109.391 32.3585 110.627 31.6413 111.608 31.0998C112.588 30.5662 113.312 30.2069 114.687 29.7466C116.062 29.2921 118.089 28.7367 119.193 28.4578C120.298 28.1797 120.473 28.1797 120.678 28.209C120.89 28.2456 121.124 28.3122 121.337 28.714C121.541 29.1165 121.718 29.8483 120.716 31.4291C122.544 33.5075 122.712 34.1962 122.763 34.8468C122.807 35.5061 122.741 36.1209 122.324 37.196C121.914 38.2718 121.161 39.8093 120.21 41.4918C120.174 41.5577 120.137 41.6163 120.101 41.6821C120.846 40.3209 121.344 37.9424 121.323 37.2772C119.771 39.9989 118.871 41.2577 117.533 42.7074C116.194 44.1557 114.432 45.8024 113.202 46.9587C111.973 48.115 111.286 48.7809 110.613 49.22C109.932 49.6665 109.267 49.8787 108.067 50.238C106.875 50.5959 105.156 51.1009 103.671 51.6278C102.179 52.162 100.928 52.7255 99.9554 53.7435C100.225 53.7501 100.635 53.6989 101.177 53.5745C100.101 54.6503 97.665 55.939 94.7683 57.4166C91.9088 58.8664 88.6017 60.4837 83.4087 60.5269L83.3714 58.7852C84.2784 58.1704 85.3318 57.5044 86.3779 56.9336C88.2432 55.9237 90.08 55.2138 91.6674 54.3136C91.1773 54.7088 90.6938 55.0967 90.2044 55.4919C91.7471 55.4041 93.3199 54.3217 94.3952 53.3622C95.4786 52.3962 96.063 51.5546 96.4361 50.8081C96.8172 50.0617 96.9774 49.4111 97.1018 48.92C96.9708 48.9419 96.8311 48.9712 96.6994 48.9932C96.9555 45.5023 96.5385 44.9029 96.0484 44.346C95.5583 43.7898 94.995 43.2775 94.1984 42.8604C94.6439 42.9197 95.0023 42.9262 95.2803 42.8823C94.7244 42.1798 93.8466 41.8219 92.4713 41.5504C91.0961 41.2869 89.2088 41.104 87.5995 41.0454M116.457 37.3064C116.318 36.9178 116.179 36.8299 115.696 36.6616C115.213 36.4933 114.379 36.2445 113.758 36.2672C113.136 36.2884 112.719 36.5811 112.251 36.8885C111.783 37.1959 111.264 37.5105 110.861 37.9796C110.458 38.4546 110.167 39.084 110.071 39.6914C109.976 40.2988 110.071 40.8843 110.488 41.4698C110.905 42.0552 111.643 42.648 112.309 42.9115C112.975 43.175 113.567 43.1164 114.196 42.9115C114.826 42.6993 115.491 42.348 115.945 41.682C116.398 41.016 116.654 40.0427 116.706 39.2084C116.757 38.3814 116.603 37.6935 116.457 37.3064M118.016 38.0301C118.082 38.1179 118.162 38.1919 118.25 38.2504C118.352 38.3082 118.462 38.3521 118.58 38.3668C118.696 38.3887 118.813 38.3814 118.923 38.3521C119.033 38.3229 119.129 38.2716 119.216 38.2131C119.303 38.1472 119.377 38.0675 119.436 37.9716C119.494 37.8764 119.537 37.7674 119.553 37.6496C119.567 37.5325 119.567 37.4154 119.537 37.2983C119.508 37.1958 119.457 37.1007 119.398 37.0129C119.333 36.9251 119.253 36.8526 119.158 36.7933C119.062 36.7348 118.952 36.6909 118.835 36.6762C118.718 36.6543 118.601 36.6616 118.484 36.6909C118.382 36.7201 118.287 36.7714 118.199 36.8299C118.111 36.8958 118.038 36.9763 117.979 37.0714C117.921 37.1666 117.878 37.2771 117.862 37.3934C117.84 37.5105 117.848 37.6276 117.878 37.7374C117.907 37.8472 117.95 37.9423 118.016 38.0301M118.031 29.8191C117.98 29.8637 117.936 29.9215 117.899 29.9801C117.833 30.1191 117.819 30.2728 117.878 30.4126C117.907 30.4784 117.943 30.537 117.987 30.5955C118.045 30.646 118.104 30.6973 118.17 30.7339C118.301 30.8151 118.448 30.8583 118.594 30.8736C118.77 30.8363 118.967 30.7558 119.121 30.668C119.274 30.5802 119.45 30.4492 119.567 30.3094C119.582 30.2435 119.574 30.1711 119.56 30.1045C119.538 30.024 119.501 29.9588 119.457 29.8922C119.362 29.7759 119.23 29.6947 119.091 29.6434C118.821 29.541 118.484 29.5556 118.228 29.6873C118.156 29.7173 118.09 29.7678 118.031 29.8191M117.445 34.8614C117.591 34.9199 117.744 34.9345 117.891 34.9199C118.169 34.8987 118.439 34.7809 118.651 34.6125C118.871 34.4515 119.054 34.2254 119.149 33.9612C119.2 33.8221 119.229 33.6685 119.215 33.5148C119.2 33.3904 119.157 33.2733 119.076 33.1708C118.995 33.0691 118.893 32.9952 118.776 32.9513C118.638 32.8927 118.483 32.8781 118.338 32.8861C118.06 32.9154 117.789 33.0318 117.576 33.1935C117.357 33.3611 117.175 33.5887 117.079 33.8441C117.02 33.9905 116.998 34.1376 117.013 34.2913C117.028 34.4149 117.071 34.5393 117.152 34.6345C117.225 34.7369 117.328 34.8101 117.445 34.8614" fill="#9C6840"/>
<path fill-rule="evenodd" clip-rule="evenodd" d="M48.9468 118.057C50.1976 118.057 51.4778 117.976 52.7652 117.823C54.9524 117.552 57.1689 117.068 59.5244 115.891C61.8798 114.719 64.3742 112.853 65.5008 111.141C65.0253 112.311 64.7912 113.183 64.8058 113.761C67.688 112.223 71.3309 108.645 73.1743 104.979C73.006 105.3 72.867 105.93 72.7573 106.852C74.6007 105.008 75.7126 103.258 76.5904 101.664C77.4609 100.061 78.09 98.6046 78.0022 95.2455C78.1412 95.7358 78.3241 96.2108 78.5655 96.6653C79.2897 95.0625 79.4799 94.0672 79.6262 92.9256C79.7725 91.7905 79.8749 90.5098 79.6115 88.9217C79.3409 87.3343 78.6972 85.4389 78.0022 83.8727C77.3146 82.2993 76.5765 81.0544 75.976 80.0086C75.3834 78.9541 74.9226 78.0912 74.3959 77.0228C73.8619 75.9543 73.2621 74.6801 72.9329 73.8539C72.6037 73.0269 72.5452 72.6537 72.4793 72.3463C72.4135 72.0463 72.333 71.8121 72.2379 71.6145C72.1429 71.4169 72.0258 71.2559 71.3894 71.1022C74.1106 69.6458 74.7616 69.2865 75.4639 68.2261C76.1661 67.1722 76.9196 65.4151 76.8903 63.8716C77.0513 64.4425 77.2049 64.823 77.3512 64.9987C77.7169 62.8178 77.5853 59.2823 76.51 56.999C76.9342 57.3729 77.2195 57.6144 77.3658 57.7308C77.5048 56.3118 76.9708 54.4083 76.1149 52.2793C75.2591 50.157 74.074 47.8078 72.8085 46.724C71.3309 47.0833 69.4363 47.9388 67.7684 48.8243C68.3244 48.0925 68.8511 47.3607 69.2973 46.6661C70.4311 44.9097 71.1041 43.3729 71.265 42.1214C71.426 40.8693 71.0675 39.8967 70.892 39.721C70.9139 39.6112 70.9359 39.4934 70.9505 39.3771C71.6893 39.3105 72.0185 38.894 72.2526 38.5786C72.4867 38.2573 72.633 38.0378 72.7281 37.5101C72.8305 36.9839 72.889 36.1497 72.8451 34.7657L74.074 35.0519C74.7543 35.1609 76.6855 35.9294 78.1851 36.4058C79.6774 36.8888 80.7381 37.0718 82.0628 37.3645C83.2544 37.628 84.6516 37.9712 86.122 38.242C84.5712 38.0085 83.2106 38.0671 82.0328 38.4249C83.0862 38.703 85.7123 39.8088 87.5996 41.0456C89.2089 41.1042 91.0962 41.2871 92.4714 41.5506C93.8467 41.8214 94.7245 42.1793 95.2804 42.8818C95.0025 42.9265 94.644 42.9191 94.1978 42.8606C94.9951 43.277 95.5584 43.79 96.0485 44.3455C96.5386 44.9024 96.9556 45.5018 96.6996 48.9934C96.8312 48.9714 96.9702 48.9422 97.1019 48.9195C96.9775 49.4105 96.8166 50.0619 96.4362 50.8076C96.0631 51.5548 95.4779 52.3957 94.3953 53.3625C93.32 54.3212 91.7472 55.4043 90.2038 55.4921C90.6939 55.0969 91.1767 54.7083 91.6668 54.3131C90.0794 55.214 88.2433 55.9239 86.378 56.9331C85.3319 57.5047 84.2786 58.1706 83.3715 58.7854C82.6546 59.2611 82.0328 59.7075 81.5573 60.0514C80.482 60.8345 80.2041 61.0907 79.9919 62.1152C79.7798 63.1398 79.6262 64.9328 79.6262 67.5155C79.6262 70.0923 79.7798 73.4514 79.8383 75.4486C79.8968 77.4472 79.8603 78.0912 80.248 79.1012C80.6357 80.1104 81.4403 81.4943 81.7622 86.2951C82.6034 88.3662 83.0643 90.2104 83.1447 91.8132C83.0569 91.7693 82.9692 91.7319 82.8814 91.6888C83.152 94.1477 83.1228 95.8895 82.7943 96.9068C82.6473 96.4164 82.501 95.9261 82.3547 95.4284C82.3035 96.9799 82.1791 99.6512 81.3891 101.056C81.3233 100.588 81.2647 100.127 81.1989 99.6658C80.9721 100.983 80.5918 102.439 80.0724 103.741C79.5457 105.045 78.88 106.186 78.1705 106.976C78.09 106.743 78.112 106.267 78.2436 105.542C77.0732 108.776 74.3593 111.068 71.5503 112.955C71.5138 112.984 71.4772 113.007 71.4406 113.029C71.0749 113.271 70.7091 113.512 70.3433 113.739C67.1247 115.781 64.0378 117.398 61.2507 118.407C58.4637 119.411 55.9692 119.806 53.4016 120.033C51.9459 120.165 50.461 120.23 48.9321 120.23L48.9468 118.057Z" fill="#A57046"/>
<path fill-rule="evenodd" clip-rule="evenodd" d="M70.9503 39.3772C71.6891 39.3106 72.0183 38.8941 72.2524 38.5787C72.4865 38.2574 72.6328 38.0379 72.7278 37.5102C72.8303 36.9841 72.8888 36.1498 72.8449 34.7659L71.3054 34.4771C71.3054 34.4771 71.2365 36.395 71.1908 37.0029C71.0578 38.7705 70.9465 39.407 70.9503 39.3772Z" fill="#8D5D37"/>
<path fill-rule="evenodd" clip-rule="evenodd" d="M78.9607 124.007C78.8949 123.904 78.9973 123.611 79.2094 123.143C79.2606 123.026 79.3265 122.902 79.3996 122.77C79.6044 122.375 79.8824 121.928 80.2408 121.548C80.7236 121.05 81.3527 120.669 82.0989 120.325C82.845 119.989 83.7155 119.674 84.7681 119.506C85.8222 119.345 87.0512 119.323 88.1046 119.411C89.1506 119.499 90.0131 119.703 90.986 120.055C91.9596 120.406 93.0569 120.904 93.4519 121.182C93.8469 121.46 93.5543 121.518 92.991 121.482C92.4351 121.445 91.6085 121.313 90.5324 121.247C90.2698 121.233 89.9992 121.226 89.7139 121.218C88.8207 121.188 87.8339 121.196 86.8829 121.233C85.624 121.284 84.4317 121.387 83.2108 121.848C82.6029 122.082 81.9891 122.397 81.4332 122.711C80.8773 123.033 80.3871 123.348 80.0133 123.575C79.2679 124.029 79.0339 124.116 78.9607 124.007" fill="#B07D54"/>
<path fill-rule="evenodd" clip-rule="evenodd" d="M79.2094 123.143C78.9973 123.612 78.8949 123.904 78.9607 124.007C79.0339 124.116 79.2679 124.029 80.0141 123.575C80.3871 123.347 80.8773 123.034 81.4332 122.711L83.2327 123.596C83.2108 123.596 83.1961 123.634 83.1669 123.684C83.1083 123.83 83.0279 124.102 82.8816 124.87C82.7499 125.536 82.567 126.59 82.5963 128.507C81.1699 128.427 79.9994 128.258 79.2606 128.061C78.3828 127.834 78.1048 127.578 77.9293 127.381C77.761 127.19 77.7018 127.059 77.6586 126.765C77.6074 126.473 77.5635 126.019 77.783 125.185C77.9439 124.562 78.2658 123.729 78.9168 122.514L79.3996 122.769C79.3265 122.902 79.2606 123.026 79.2094 123.143" fill="#9C6840"/>
<path fill-rule="evenodd" clip-rule="evenodd" d="M71.5496 112.955C74.3586 111.068 77.0725 108.777 78.2421 105.542C78.1112 106.267 78.0885 106.743 78.1697 106.976C78.8793 106.186 79.5449 105.044 80.0709 103.742C80.5903 102.44 80.9714 100.983 81.1974 99.6661C81.2633 100.127 81.3218 100.588 81.3876 101.056C82.1776 99.6507 82.302 96.9802 82.3539 95.4287C82.5002 95.9256 82.6465 96.416 82.7928 96.9063C83.1213 95.8898 83.1505 94.148 82.8799 91.6883C82.9677 91.7322 83.0555 91.7695 83.144 91.8127C83.0628 90.2107 82.6019 88.3658 81.7614 86.2947C81.4396 81.4945 80.6349 80.1106 80.2472 79.1007C79.8588 78.0908 79.8953 77.4468 79.8376 75.4488C79.779 73.4517 79.6254 70.0925 79.6254 67.5157C79.6254 64.9331 79.779 63.1401 79.9912 62.1148C80.2033 61.0909 80.4813 60.8341 81.5566 60.0517C82.0321 59.707 82.6539 59.2613 83.37 58.7849L83.4073 60.5267C83.3195 60.534 83.2383 60.534 83.1505 60.534C84.0064 61.5593 85.6969 65.8618 86.4789 68.7891C87.2616 71.7165 87.1307 73.2533 87.4672 74.4543C87.8037 75.6472 88.601 76.5027 91.0143 80.4919C91.4905 81.8451 91.7977 82.6801 92.1561 83.6315C92.5877 84.7798 93.0844 86.1051 93.2827 87.7152C93.1503 87.6047 92.9535 87.4444 92.6828 87.2095C93.3331 88.0445 93.6038 88.6805 93.9191 89.6911C94.2409 90.7084 94.6133 92.0981 94.5182 93.321C94.4092 93.2039 94.2921 93.0795 94.1817 92.9551C94.3799 93.4374 94.5335 93.8545 94.6579 94.3676C94.7822 94.8872 94.8773 95.5012 95.0236 97.3015C95.1699 99.1018 95.3601 102.088 95.6154 104.935C95.8641 107.782 96.1794 110.482 96.4713 112.158C96.5664 112.699 96.6622 113.138 96.7493 113.52C97.0719 116.571 97.0645 117.515 97.0719 118.371C97.0784 119.227 97.1011 120.004 97.0645 120.919C97.0353 121.841 96.9541 122.916 96.72 123.787C96.494 124.665 96.1209 125.339 95.565 125.931C95.0083 126.524 94.2702 127.036 93.1949 127.431C92.4999 127.688 91.6733 127.892 90.6931 128.061C90.59 125.654 90.4151 124.57 90.2242 123.846C90.0048 123.018 89.7707 122.668 89.691 122.66L89.7129 121.218C89.9982 121.226 90.2688 121.233 90.5315 121.247C91.6075 121.314 92.4341 121.446 92.9901 121.481C93.5533 121.518 93.8452 121.459 93.4502 121.181C93.0552 120.903 91.9579 120.406 90.985 120.054C90.0121 119.704 89.1496 119.498 88.1036 119.41C87.0495 119.322 85.8213 119.344 84.7672 119.505C83.7145 119.674 82.8433 119.988 82.0979 120.325C81.351 120.669 80.7227 121.05 80.2399 121.547C79.8814 121.929 79.6035 122.374 79.3979 122.769L78.9151 122.514C79.1273 122.112 79.384 121.658 79.6839 121.167C78.3526 121.276 76.8676 121.343 75.2144 121.38C74.7675 121.05 73.1508 119.601 70.584 116.6C71.5203 115.745 75.8289 111.566 78.8793 107.204C77.2553 108.946 74.8194 110.87 71.5496 112.955" fill="#9C6840"/>
<path fill-rule="evenodd" clip-rule="evenodd" d="M66.8901 44.4633C66.9852 44.0973 67.0577 43.6143 67.0876 42.9264C67.2559 42.6556 67.3876 42.4002 67.4315 42.2092C67.5185 41.8513 67.3064 41.7269 67.1169 41.6391C67.1096 41.6391 67.1096 41.631 67.1023 41.631C67.0942 41.1261 67.0657 40.5479 67.0218 39.8746C67.0657 39.8234 67.1169 39.7649 67.1608 39.6917C67.3729 39.3558 67.629 38.7996 67.8484 38.0524C68.0752 37.3132 68.2727 36.3765 68.4775 34.8762C68.6677 33.4645 68.8725 31.561 68.9018 28.3628C68.9676 28.1799 69.0261 28.005 69.0773 27.8359C69.3846 26.7243 69.2456 25.8673 69.1059 25.2972C69.0335 25.011 68.9603 24.7988 68.8725 24.6305L70.3794 24.5946C70.6135 25.011 70.7306 25.385 70.8256 25.8307C70.9866 26.5486 71.1036 27.4634 71.1841 28.7507C71.2719 30.0468 71.3377 31.73 71.3084 33.7784C71.2865 35.6739 71.1914 37.8921 70.95 39.3777C70.9346 39.4941 70.9134 39.6112 70.8915 39.7217C69.9771 41.2358 68.8213 42.8678 67.8843 44.4267C67.8704 44.5079 67.855 44.5877 67.8411 44.6616H67.8338L66.8901 44.4633Z" fill="#B07D54"/>
<path fill-rule="evenodd" clip-rule="evenodd" d="M56.3927 24.8278C57.3737 24.418 58.3605 24.118 59.0993 23.9284C59.8462 23.7381 60.3575 23.6642 61.6457 23.5691C62.9397 23.4739 65.0172 23.3495 66.6492 23.9643C65.9104 23.9716 64.9514 24.0301 63.9646 24.1546C62.7722 24.3163 61.5425 24.5717 60.2258 25.0986C58.9091 25.6182 57.5192 26.4013 56.7877 26.8989C56.0489 27.4046 55.9831 27.6169 55.9611 27.9381C55.9392 28.2536 55.9611 28.6854 56.1806 29.2115C56.4081 29.7385 56.8389 30.3678 57.9589 31.129C59.0774 31.8835 60.8988 32.7756 62.157 33.2227C63.4225 33.6684 64.1182 33.6684 64.6076 33.5952C65.0977 33.5147 65.3691 33.3611 65.7706 33.0244C66.173 32.6878 66.7077 32.1682 67.358 31.2314C67.8993 30.441 68.5292 29.3513 68.9022 28.3626C68.873 31.5607 68.6674 33.4642 68.478 34.876C68.2724 36.3762 68.0756 37.3137 67.8481 38.0521C67.6287 38.7993 67.3734 39.3555 67.1612 39.6922C67.1166 39.7646 67.0661 39.8232 67.0215 39.8751C66.8613 40.072 66.7216 40.1379 66.5973 40.094C66.5022 40.0647 66.4144 39.9549 66.3346 39.8093C66.29 39.728 66.2469 39.6263 66.2022 39.5158C66.0852 39.2084 65.9608 38.8286 65.9469 36.7421C65.8731 38.2058 65.8292 38.8718 65.6756 39.4939C65.5154 40.1166 65.2513 40.6948 64.7392 41.2795C64.2272 41.865 63.4664 42.4585 62.6032 42.7659C61.7408 43.0733 60.7671 43.0945 59.8308 42.8969C58.8872 42.6993 57.9728 42.2895 57.095 41.7699C56.2179 41.2437 55.3693 40.6136 54.4323 39.8159C53.504 39.0189 52.4938 38.0455 51.4704 36.8739C50.7162 36.0176 49.9481 35.0443 49.3637 34.1961C49.1515 33.8887 48.9613 33.5952 48.807 33.3245C48.6322 33.0244 48.4998 32.7536 48.3973 32.5121C48.1713 31.9559 48.1128 31.5388 48.1128 31.1729C48.1194 30.6459 48.2437 30.2142 49.1581 29.4099C50.0659 28.6041 51.755 27.4266 53.0936 26.5842C54.4323 25.7426 55.4125 25.2384 56.3927 24.8278" fill="#CFB38E"/>
<path fill-rule="evenodd" clip-rule="evenodd" d="M66.2764 41.4991C66.3927 40.921 66.4146 40.3575 66.3349 39.8086C66.4146 39.955 66.5031 40.0647 66.5975 40.094C66.7219 40.1379 66.8616 40.0721 67.0225 39.8745C67.0664 40.5477 67.0949 41.1259 67.103 41.6309C66.9201 41.5504 66.7445 41.4845 66.2764 41.4991" fill="#8D5D37"/>
<path fill-rule="evenodd" clip-rule="evenodd" d="M63.4005 45.0635V45.0562C63.7224 45.1367 64.0077 45.1367 64.2644 45.1001C64.6441 45.0415 64.9806 44.9244 65.3617 44.6976C65.595 44.5512 65.8364 44.3683 66.0932 44.1341C66.3777 43.995 66.3924 44.0682 66.3851 44.1853C66.3712 44.3097 66.3485 44.478 66.2534 44.6903C66.159 44.8952 65.9974 45.1367 65.8291 45.3635C65.6535 45.5977 65.4634 45.8173 65.3244 45.971C65.1854 46.1173 65.1049 46.2052 64.9586 46.2418C64.813 46.2783 64.6148 46.271 64.3888 46.2125C64.1613 46.1539 63.9126 46.0442 63.6492 45.8978C63.3859 45.7587 63.1152 45.5831 62.9689 45.4587C62.8226 45.3343 62.8014 45.2611 62.8307 45.1952C62.8599 45.1294 62.9323 45.0708 63.4005 45.0635" fill="#8D5D37"/>
<path fill-rule="evenodd" clip-rule="evenodd" d="M62.9031 44.8803C62.3545 44.6242 61.6815 44.1265 61.5498 43.5411C61.8058 43.5557 62.0326 43.5557 62.2155 43.5557C62.6471 43.5484 62.8877 43.5264 63.3054 43.4313C63.7224 43.3362 64.3076 43.1678 64.7977 42.9702C65.2805 42.78 65.6609 42.5531 65.895 42.3994C66.129 42.2457 66.2168 42.1506 66.2022 42.0993C66.1949 42.0481 66.0778 42.0335 65.9315 42.0262C65.7852 42.0115 65.6097 42.0042 65.4999 41.9603C65.3902 41.9164 65.3463 41.8359 65.3463 41.7407C65.3536 41.6456 65.4122 41.5432 66.2753 41.4992C66.7435 41.4846 66.9191 41.5505 67.1019 41.631C67.1093 41.631 67.1093 41.6383 67.1166 41.6383C67.3068 41.7261 67.5189 41.8505 67.4311 42.2091C67.3872 42.3994 67.2556 42.6555 67.0873 42.9263C66.9337 43.1751 66.7435 43.4313 66.5533 43.6582C66.3997 43.8338 66.2461 43.9948 66.0925 44.1339C65.8364 44.368 65.595 44.551 65.361 44.6974C64.9806 44.9242 64.6441 45.0413 64.2637 45.0999C64.0077 45.1365 63.7224 45.1365 63.4005 45.056C63.2469 45.0194 63.0787 44.9608 62.9031 44.8803" fill="#CFB38E"/>
<path fill-rule="evenodd" clip-rule="evenodd" d="M58.8735 12.4603C58.142 11.9261 57.4763 11.4504 56.8765 11.0332C56.7295 10.3233 56.54 9.49636 56.401 8.80111C56.3571 8.60279 56.3205 8.41324 56.2913 8.24492C56.1516 7.45453 56.1377 6.98616 56.1669 6.6422C56.1962 6.30555 56.262 6.10064 56.3791 5.98281C56.5034 5.87377 56.679 5.85181 57.074 6.0055C57.469 6.15918 58.0835 6.48851 58.5736 6.85443C59.071 7.22035 59.4368 7.62286 59.6847 8.06196C59.9261 8.50838 60.0366 8.99139 60.0585 9.66468C60.0798 10.3446 60.0147 11.2089 59.5465 12.0871C59.3636 12.2115 59.1361 12.3278 58.8735 12.4603" fill="#A57046"/>
<path fill-rule="evenodd" clip-rule="evenodd" d="M59.6482 23.4085C59.1442 23.5403 58.5217 23.7005 57.7397 23.9128C56.9563 24.1184 56.0126 24.3672 54.9966 24.2941C56.6564 23.2622 57.4391 22.9914 58.1706 22.8443C58.9021 22.6913 59.5824 22.6547 60.7528 22.7857C60.548 23.1597 60.153 23.2695 59.6482 23.4085" fill="#C09374"/>
<path fill-rule="evenodd" clip-rule="evenodd" d="M58.544 18.227C58.5514 18.1823 58.5587 18.1391 58.5806 18.0952C58.6026 18.0513 58.6318 18.0147 58.6757 17.9928C58.7196 17.9635 58.7789 17.9489 58.8293 17.9489C58.9025 17.9489 58.9756 17.9708 59.0415 17.9928C59.1293 18.0286 59.2097 18.0733 59.2829 18.1164C59.5023 18.2635 59.7071 18.4611 59.8681 18.6587C60.0363 18.8563 60.1899 19.0905 60.3004 19.3247C60.3362 19.4052 60.3655 19.4857 60.3955 19.5735C60.4167 19.6394 60.4313 19.7126 60.4386 19.7858C60.446 19.8443 60.454 19.9102 60.446 19.9614C60.4386 20.0119 60.4313 20.0565 60.4094 20.0931C60.3874 20.137 60.3582 20.1736 60.3143 20.2029C60.2711 20.2322 60.2126 20.2395 60.1607 20.2395C60.0883 20.2395 60.0144 20.2241 59.9485 20.1949C59.8608 20.1663 59.7803 20.1224 59.7071 20.0704C59.4877 19.9321 59.2829 19.7338 59.1219 19.5369C58.9537 19.3386 58.8001 19.1052 58.6903 18.8636C58.6545 18.7897 58.6252 18.7026 58.596 18.6221C58.5733 18.5482 58.5587 18.4824 58.5514 18.4026C58.544 18.3514 58.5367 18.2855 58.544 18.227" fill="#4D5359"/>
<path fill-rule="evenodd" clip-rule="evenodd" d="M59.4655 18.681C59.4809 18.6517 59.4875 18.6297 59.4875 18.6005C59.4875 18.5639 59.4875 18.5273 59.4729 18.498C59.4509 18.4395 59.4143 18.3882 59.3631 18.3517C59.3119 18.3151 59.2534 18.2858 59.1876 18.2858C59.151 18.2858 59.1217 18.2931 59.0925 18.3077C59.0632 18.3224 59.0413 18.337 59.0266 18.3656C59.012 18.3882 59.0047 18.4175 59.0047 18.4468C58.9974 18.4826 59.0047 18.5127 59.0201 18.5485C59.0413 18.6071 59.0778 18.659 59.129 18.6956C59.1803 18.7315 59.2388 18.7607 59.3046 18.7607C59.3339 18.7607 59.3704 18.7542 59.3997 18.7395C59.429 18.7249 59.4509 18.7029 59.4655 18.681" fill="white"/>
<path fill-rule="evenodd" clip-rule="evenodd" d="M58.2799 18.3C58.2726 18.2268 58.2652 18.1543 58.2726 18.0804C58.2799 18.0219 58.2952 17.9633 58.3245 17.9128C58.3457 17.8543 58.3896 17.8096 58.4415 17.773C58.4993 17.7364 58.5725 17.7218 58.6383 17.7218C58.7334 17.7218 58.8212 17.7438 58.909 17.7803C59.0194 17.8169 59.1211 17.8755 59.2235 17.9421C59.5015 18.117 59.7648 18.3739 59.9704 18.622C60.1825 18.8781 60.3793 19.1782 60.519 19.4855C60.5622 19.5887 60.6068 19.6904 60.6361 19.7929C60.6653 19.888 60.6865 19.9759 60.7019 20.071C60.7085 20.1449 60.7158 20.2247 60.7019 20.2979C60.7019 20.3572 60.6865 20.4157 60.6573 20.4662C60.6361 20.5247 60.5914 20.5694 60.5402 20.6052C60.4824 20.6418 60.4086 20.6572 60.3427 20.6572C60.2476 20.6572 60.1533 20.6279 60.0721 20.5987C59.9623 20.5613 59.8599 20.5035 59.7583 20.4369C59.4803 20.262 59.2162 20.0051 59.0114 19.749C58.7992 19.4929 58.6017 19.1935 58.4628 18.8935C58.4189 18.7903 58.375 18.6878 58.3457 18.5781C58.3165 18.491 58.2952 18.3951 58.2799 18.3M58.5795 18.0956C58.5576 18.1388 58.5502 18.1827 58.5429 18.2266C58.5363 18.2852 58.5429 18.3511 58.5502 18.403C58.5576 18.4828 58.5722 18.5487 58.5949 18.6218C58.6241 18.7031 58.6534 18.7902 58.69 18.8641C58.7989 19.1056 58.9526 19.339 59.1208 19.5366C59.2817 19.7342 59.4866 19.9318 59.706 20.0709C59.7792 20.1221 59.8596 20.1667 59.9474 20.1953C60.0133 20.2246 60.0871 20.2392 60.1596 20.2392C60.2115 20.2392 60.27 20.2326 60.3132 20.2033C60.3571 20.1741 60.3863 20.1375 60.4083 20.0928C60.4302 20.0562 60.4375 20.0123 60.4448 19.9618C60.4529 19.9099 60.4448 19.844 60.4375 19.7855C60.4302 19.713 60.4156 19.6391 60.3944 19.5732C60.3651 19.4854 60.3359 19.4056 60.2993 19.3244C60.1888 19.0902 60.0352 18.8568 59.867 18.6584C59.706 18.4616 59.5012 18.2632 59.2817 18.1169C59.2093 18.073 59.1281 18.029 59.0403 17.9925C58.9745 17.9712 58.9021 17.9493 58.8282 17.9493C58.7777 17.9493 58.7192 17.9632 58.6746 17.9925C58.6307 18.0144 58.6014 18.051 58.5795 18.0956" fill="#2E3033"/>
<path fill-rule="evenodd" clip-rule="evenodd" d="M57.5559 15.688C57.8046 15.6726 58.1776 15.7677 58.6312 16.0685C59.0847 16.3686 59.6253 16.8736 59.9991 17.29C60.3722 17.7078 60.577 18.0372 60.8549 18.5414C61.1395 19.0471 61.4987 19.7343 61.6589 20.2539C61.8279 20.7735 61.8059 21.1255 61.6742 21.2931C61.5499 21.4688 61.3297 21.4549 61.0883 21.4256C60.8476 21.3963 60.5982 21.3597 60.2836 21.1475C59.9771 20.9352 59.6114 20.5474 59.2888 20.2034C58.9603 19.8668 58.6743 19.574 58.3825 19.1562C58.0825 18.7397 57.7753 18.1909 57.5632 17.7737C57.351 17.3558 57.2479 17.0711 57.1747 16.793C57.1096 16.5149 57.0804 16.2515 57.1316 16.0539C57.1821 15.849 57.3064 15.7092 57.5559 15.688M58.2722 18.0812C58.2657 18.1544 58.2722 18.2276 58.2795 18.3001C58.2949 18.3952 58.3161 18.4911 58.3454 18.5782C58.3746 18.6887 58.4193 18.7904 58.4624 18.8936C58.6021 19.1936 58.7989 19.493 59.0111 19.7498C59.2166 20.0052 59.48 20.2621 59.7579 20.437C59.8596 20.5036 59.962 20.5614 60.0717 20.5988C60.1529 20.628 60.248 20.6573 60.3431 20.6573C60.4082 20.6573 60.4821 20.6427 60.5399 20.6061C60.5911 20.5695 60.6357 20.5248 60.6569 20.4663C60.6862 20.4158 60.7016 20.3573 60.7016 20.2987C60.7155 20.2248 60.7089 20.145 60.7016 20.0711C60.6862 19.976 60.665 19.8882 60.6357 19.793C60.6065 19.6913 60.5619 19.5888 60.5187 19.4856C60.379 19.179 60.1822 18.8782 59.9701 18.6228C59.7652 18.374 59.5012 18.1171 59.2232 17.9422C59.1215 17.8756 59.0191 17.8171 58.9094 17.7805C58.8209 17.7446 58.7331 17.7219 58.638 17.7219C58.5729 17.7219 58.499 17.7373 58.4412 17.7739C58.39 17.8097 58.3454 17.8544 58.3242 17.9129C58.2949 17.9634 58.2795 18.022 58.2722 18.0812" fill="#8D5D37"/>
<path fill-rule="evenodd" clip-rule="evenodd" d="M57.7463 27.8431C57.0148 28.0048 56.7661 28.0114 56.8612 27.8218C56.9563 27.6235 57.4098 27.2283 58.2876 26.7307C59.1727 26.233 60.4821 25.6402 61.6013 25.2311C62.7205 24.8206 63.6488 24.5944 64.542 24.4546C65.4417 24.3163 66.3049 24.2717 66.9194 24.2936C67.5265 24.3163 67.8777 24.4034 68.0459 24.5132C68.2068 24.6237 68.1776 24.7481 68.0964 24.9603C68.0167 25.1726 67.8843 25.48 67.7094 25.6988C67.5339 25.9183 67.3144 26.0581 66.8748 26.1818C66.4293 26.3062 65.7563 26.424 64.7249 26.5704C63.6934 26.7087 62.3029 26.8778 61.0015 27.1193C59.6994 27.36 58.4851 27.6821 57.7463 27.8431" fill="#4D5359"/>
<path fill-rule="evenodd" clip-rule="evenodd" d="M65.7483 24.6961C65.3028 24.748 64.842 24.8498 64.534 24.9742C64.2202 25.0913 64.0666 25.2311 64.2787 25.3181C64.4974 25.414 65.098 25.4645 65.5296 25.5384C65.9604 25.6182 66.2318 25.7133 66.4505 25.706C66.6707 25.706 66.8456 25.5889 66.9926 25.4645C67.1316 25.3401 67.2406 25.1937 67.2406 25.0547C67.2486 24.9156 67.1462 24.7773 66.8748 24.7115C66.6122 24.6375 66.1879 24.6375 65.7483 24.6961" fill="white"/>
<path fill-rule="evenodd" clip-rule="evenodd" d="M55.9618 27.938C55.9837 27.6167 56.0496 27.4045 56.7884 26.8988C57.5199 26.4011 58.9098 25.6181 60.2265 25.0985C61.5432 24.5715 62.7728 24.3161 63.9645 24.1544C64.952 24.03 65.911 23.9714 66.6491 23.9641C66.81 23.9641 66.9563 23.9641 67.088 23.9714C67.8641 23.9868 68.2657 24.0746 68.5364 24.2576C68.6754 24.3527 68.7851 24.4698 68.8729 24.6301C68.9614 24.7984 69.0338 25.0106 69.107 25.2968C69.246 25.8669 69.3857 26.7239 69.0784 27.8355C69.0265 28.0046 68.968 28.1795 68.9021 28.3625C68.5298 29.3512 67.9 30.4409 67.3587 31.2313C66.7076 32.168 66.1736 32.6876 65.7713 33.0243C65.369 33.3609 65.0983 33.5146 64.6082 33.5951C64.1181 33.6683 63.4232 33.6683 62.1576 33.2226C60.8995 32.7754 59.078 31.8833 57.9588 31.1288C56.8396 30.3677 56.408 29.7383 56.1812 29.2114C55.9618 28.6852 55.9398 28.2534 55.9618 27.938M58.2884 26.7311C57.4099 27.228 56.9563 27.6232 56.8613 27.8216C56.7669 28.0118 57.0149 28.0045 57.7464 27.8428C58.4852 27.6818 59.6995 27.3598 61.0023 27.119C62.3037 26.8775 63.6935 26.7084 64.725 26.5701C65.7571 26.4237 66.4301 26.3067 66.8756 26.1822C67.3152 26.0578 67.5339 25.918 67.7102 25.6985C67.8851 25.4797 68.0167 25.1723 68.0972 24.9601C68.1777 24.7478 68.2069 24.6234 68.0467 24.5129C67.8778 24.4031 67.5274 24.3161 66.9195 24.2941C66.3057 24.2714 65.4418 24.3161 64.5421 24.4544C63.6496 24.5942 62.7206 24.8203 61.6014 25.2308C60.4829 25.6399 59.1735 26.2327 58.2884 26.7311" fill="#2E3033"/>
<path fill-rule="evenodd" clip-rule="evenodd" d="M56.203 2.26531C55.808 2.21481 55.4715 2.09772 56.0128 1.81962C57.1393 1.01387 57.666 0.956055 57.9952 0.948005C58.3171 0.9341 58.4422 0.96996 58.9827 1.3066C59.2534 1.47566 59.6265 1.72448 59.9922 2.11968C60.358 2.50682 60.7091 3.04179 60.9432 3.78753C59.7223 3.12961 59.0047 2.60269 58.5438 2.33191C58.4714 2.29458 58.4129 2.26531 58.3536 2.23677C57.8855 2.02454 57.688 2.16285 57.3661 2.24409C57.0442 2.31654 56.598 2.32386 56.203 2.26531" fill="#C09374"/>
<path fill-rule="evenodd" clip-rule="evenodd" d="M54.915 6.23238C55.6392 4.89312 56.2903 4.27764 56.7584 3.86855C57.4826 3.24649 57.7752 3.11402 57.9727 3.10012C58.1622 3.08475 58.2653 3.17989 58.6384 3.56776C59.0042 3.94905 59.6333 4.61502 60.0429 5.1639C60.4599 5.7201 60.6501 6.15188 60.7452 6.66417C60.8402 7.18377 60.8402 7.77583 60.8183 8.47839C60.7964 9.18095 60.7452 9.99402 60.5842 10.66C60.4599 11.1869 60.2697 11.618 59.5455 12.0871C60.0136 11.2089 60.0795 10.3446 60.0575 9.66397C60.0356 8.99141 59.9259 8.50766 59.6845 8.06197C59.4358 7.62214 59.07 7.22036 58.5726 6.85444C58.0825 6.48852 57.468 6.15847 57.073 6.00478C56.678 5.85109 56.5024 5.87378 56.3781 5.98283C56.261 6.09992 56.1952 6.30557 56.1659 6.64221C56.1367 6.98544 56.1506 7.45455 56.2903 8.24493C56.3195 8.41252 56.3561 8.6028 56.4 8.80113L56.3707 8.80845C56.3415 8.61817 56.2903 8.38325 56.2318 8.16443C56.1732 7.94488 56.1074 7.74655 55.9538 7.46187C55.8075 7.18377 55.5807 6.81785 55.2654 6.5178C55.1564 6.41534 55.0394 6.31947 54.915 6.23238" fill="#8D5D37"/>
<path fill-rule="evenodd" clip-rule="evenodd" d="M42.2677 53.1428C41.8215 52.8135 41.4484 52.5866 41.1551 52.4476C43.5478 53.1136 46.1154 53.2599 48.2661 53.3038C50.4167 53.3478 52.1577 53.2892 53.4451 53.0623C54.7253 52.8428 55.5519 52.4695 56.3492 52.2866C56.0054 52.5647 55.6835 52.8281 55.369 53.0843C58.4048 52.5061 62.1567 50.2301 63.2108 49.2275C63.8837 49.2202 64.5633 49.0738 65.0615 48.9494C65.7418 48.7811 66.1002 48.6567 66.4806 48.32C66.861 47.9907 67.256 47.4638 67.8339 44.6608H67.8412C67.8551 44.5877 67.8705 44.5072 67.8851 44.4267C68.8214 42.8678 69.9772 41.2351 70.8916 39.7209C71.0671 39.8966 71.4256 40.8692 71.2647 42.1214C71.1037 43.3728 70.4307 44.9097 69.2969 46.6661C68.8507 47.3613 68.324 48.0932 67.768 48.825H67.7607C66.9115 49.9374 65.9685 51.0425 65.0468 52.0158C63.5253 53.6258 62.0696 54.87 60.8919 55.5945C59.7068 56.3263 58.7998 56.5312 57.7969 56.4434L58.2438 56.1214C57.6806 56.136 56.5467 56.2458 55.4641 56.4207C54.7618 56.5386 54.0815 56.6849 53.5768 56.8459C53.4525 56.8825 53.3427 56.9264 53.2403 56.9696C53.4159 56.6849 53.628 56.4141 53.8621 56.1434C52.3259 57.0362 50.6354 58.1047 48.7927 59.3481C46.6494 58.0169 45.1718 57.2997 44.3598 57.1972C44.7475 57.6144 45.1352 58.2145 45.5229 58.9975C44.1842 58.0974 42.297 57.0216 40.5194 56.2239C38.7484 55.4262 37.0813 54.9066 35.1136 54.1235C33.1531 53.3331 30.8928 52.2866 28.4642 50.5082C29.7223 50.8522 30.9367 51.2035 32.1144 51.5694C29.5834 49.813 29.0201 49.4683 28.6031 48.9275C28.1935 48.3932 27.9302 47.6614 27.1328 45.239C29.9125 47.9395 32.0559 49.2202 34.4113 50.3911C36.7595 51.5694 39.3197 52.6452 42.2677 53.1428" fill="#8D5D37"/>
<path fill-rule="evenodd" clip-rule="evenodd" d="M54.792 8.46436C54.5725 8.27408 54.3677 8.0538 54.1694 7.83498C54.3969 7.25683 54.631 6.75918 54.8578 6.33472C54.9675 6.41522 55.0772 6.50231 55.1723 6.59818C55.443 6.85432 55.6405 7.16169 55.7649 7.41052C55.8965 7.65202 55.9551 7.82035 56.0063 8.01062C56.0567 8.2009 56.1014 8.40582 56.1226 8.56682C56.1453 8.72709 56.1379 8.84492 56.1087 8.94737C56.0794 9.04983 56.0209 9.13765 55.9624 9.18083C55.8965 9.21742 55.8307 9.21742 55.6325 9.10106C55.4357 8.98397 55.1131 8.74978 54.792 8.46436" fill="#6A4528"/>
<path fill-rule="evenodd" clip-rule="evenodd" d="M54.9515 9.81091C54.4475 9.51086 54.0225 9.29131 53.6787 9.14494C53.825 8.72047 53.964 8.33187 54.1103 7.974C54.3444 8.22282 54.5785 8.47165 54.8272 8.6912C55.2002 9.02053 55.5733 9.29131 55.8074 9.42304C56.0342 9.56209 56.1073 9.56209 56.1805 9.51818C56.2536 9.46695 56.3195 9.37181 56.3487 9.25471C56.3853 9.1303 56.3926 8.99125 56.3707 8.80829L56.3999 8.80098C56.5389 9.49622 56.7291 10.3232 56.8754 11.0331C56.1366 10.5427 55.5002 10.1322 54.9515 9.81091" fill="#8D5D37"/>
<path fill-rule="evenodd" clip-rule="evenodd" d="M53.2546 6.2103C53.335 6.08589 53.4667 5.93952 53.6357 5.88829C53.8032 5.83706 54.0234 5.88097 54.2933 6.00539C54.4689 6.08589 54.6671 6.19493 54.8566 6.33471C54.6305 6.75918 54.3965 7.25683 54.169 7.83498C54.0665 7.7252 53.9714 7.62275 53.8837 7.51297C53.6057 7.18364 53.3577 6.86164 53.2473 6.6494C53.1383 6.43717 53.1748 6.33471 53.2546 6.2103" fill="#6A4528"/>
<path fill-rule="evenodd" clip-rule="evenodd" d="M54.8277 8.69091C54.579 8.47135 54.3449 8.22253 54.1108 7.97444C54.1255 7.92248 54.1474 7.8793 54.1694 7.83466C54.3669 8.05421 54.5717 8.27449 54.7911 8.46404C55.113 8.74945 55.4349 8.98364 55.6324 9.10147C55.8299 9.21783 55.8957 9.21783 55.9616 9.18124C56.0201 9.13733 56.0786 9.04951 56.1079 8.94778C56.1371 8.84459 56.1444 8.7275 56.1225 8.56649C56.1005 8.40549 56.0566 8.20057 56.0054 8.0103C55.9542 7.82075 55.8957 7.6517 55.764 7.41019C55.6397 7.16137 55.4422 6.854 55.1715 6.59858C55.0764 6.50271 54.9667 6.41563 54.857 6.33439C54.8789 6.2978 54.8936 6.26194 54.9155 6.23267C55.0399 6.31975 55.1569 6.41563 55.2666 6.51735C55.5812 6.8174 55.8079 7.18332 55.9542 7.46142C56.1079 7.74684 56.1737 7.94443 56.2322 8.16398C56.2907 8.38353 56.3419 8.61772 56.3712 8.808C56.3931 8.99096 56.3858 9.13074 56.3493 9.25515C56.32 9.37225 56.2542 9.46738 56.181 9.51788C56.1079 9.56179 56.0347 9.56179 55.8079 9.42274C55.5739 9.29101 55.2008 9.02023 54.8277 8.69091" fill="#6A4528"/>
<path fill-rule="evenodd" clip-rule="evenodd" d="M53.0348 6.58343C52.9104 6.3346 52.9551 6.21751 53.0421 6.07114C53.1379 5.93209 53.2916 5.76377 53.4883 5.70522C53.6866 5.64668 53.9345 5.6979 54.2491 5.84427C54.4539 5.93209 54.696 6.06382 54.9148 6.23288C54.8928 6.26215 54.8789 6.29801 54.8562 6.3346C54.6661 6.19555 54.4685 6.08578 54.293 6.00528C54.0231 5.88086 53.8029 5.83695 53.6346 5.88818C53.4664 5.93941 53.3347 6.08578 53.2542 6.21019C53.1738 6.3346 53.1379 6.43706 53.2469 6.64929C53.3567 6.86153 53.6054 7.18353 53.8833 7.51359C53.9711 7.62264 54.0662 7.72582 54.1686 7.83487C54.1474 7.87951 54.1247 7.92269 54.1101 7.97392C53.9938 7.84219 53.8833 7.71777 53.7736 7.58604C53.4518 7.20549 53.1672 6.83225 53.0348 6.58343" fill="#6A4528"/>
<path fill-rule="evenodd" clip-rule="evenodd" d="M50.1679 8.85964H50.146V8.85159C51.4334 5.62492 52.0625 4.38811 52.816 3.34891C53.5768 2.3097 54.4546 1.46735 55.2227 0.933843C55.9834 0.40692 56.6345 0.186637 57.088 0.0775932C57.5342 -0.0321823 57.7903 -0.0321823 58.1926 0.121503C58.5876 0.275189 59.1362 0.581829 59.78 1.08021C60.1018 1.32903 60.4456 1.62104 60.7902 1.9511L59.9921 2.11942C59.6263 1.72423 59.2533 1.4754 58.9826 1.30708C58.442 0.970435 58.3169 0.933843 57.9951 0.947748C57.6659 0.955798 57.1392 1.01361 56.0127 1.81937C55.4714 2.09746 55.8079 2.21456 56.2029 2.26505C56.5979 2.3236 57.0441 2.31702 57.366 2.24383C57.6878 2.16333 57.8853 2.02428 58.3535 2.23651C58.4128 2.26505 58.4713 2.29433 58.5437 2.33165L57.9731 3.10008C57.7756 3.11399 57.483 3.24645 56.7588 3.86851C56.2907 4.27761 55.6396 4.89308 54.9154 6.23234C54.696 6.06402 54.4546 5.93229 54.2498 5.84447C53.9352 5.6981 53.6872 5.64614 53.489 5.70469C53.2922 5.76397 53.1386 5.93229 53.0428 6.07061C52.9557 6.21771 52.9111 6.3348 53.0355 6.58363C53.1679 6.83172 53.4524 7.20496 53.7743 7.58624C53.884 7.71724 53.9937 7.84165 54.1108 7.97412C53.9645 8.33199 53.8255 8.72059 53.6792 9.14506C54.0237 9.29142 54.448 9.51097 54.952 9.81103L54.8569 9.96471C54.535 9.76639 54.1912 9.62807 53.8474 9.50366C52.9265 9.17433 51.9601 8.94746 50.1679 8.85964" fill="#B07D54"/>
<path fill-rule="evenodd" clip-rule="evenodd" d="M52.1277 21.0813C52.1065 20.6934 52.1431 20.2756 52.274 19.9096C52.3106 19.7926 52.3618 19.6755 52.4276 19.573C52.4788 19.4786 52.5447 19.39 52.6185 19.3176C52.6844 19.259 52.7568 19.2071 52.838 19.1712C52.9038 19.1419 52.9763 19.1193 53.0574 19.1193C53.1299 19.1193 53.2038 19.1266 53.2762 19.1559C53.3574 19.1851 53.4371 19.2298 53.5037 19.2883C53.5907 19.3542 53.6646 19.4347 53.7231 19.5145C53.7955 19.6176 53.8614 19.7267 53.9126 19.8372C54.0816 20.1877 54.1686 20.5983 54.1906 20.9781C54.2132 21.3667 54.1767 21.7839 54.0523 22.1498C54.0077 22.2662 53.9565 22.3833 53.8987 22.4864C53.8402 22.5816 53.7816 22.6694 53.7004 22.7426C53.6353 22.8011 53.5695 22.8524 53.4817 22.889C53.4159 22.9182 53.342 22.9395 53.2696 22.9395C53.1884 22.9395 53.116 22.9321 53.0421 22.9029C52.9624 22.8736 52.8885 22.8304 52.8153 22.7719C52.7349 22.706 52.6617 22.6248 52.5966 22.545C52.5227 22.4418 52.4569 22.3328 52.4064 22.223C52.2374 21.871 52.1496 21.4619 52.1277 21.0813" fill="#4D5359"/>
<path fill-rule="evenodd" clip-rule="evenodd" d="M53.0132 20.4878C53.0717 20.5691 53.1522 20.6196 53.2407 20.6349C53.335 20.6569 53.4301 20.6349 53.5113 20.5764C53.5837 20.5244 53.6357 20.4447 53.6576 20.3495C53.6715 20.2537 53.6496 20.1585 53.5991 20.0861C53.5406 20.0048 53.4594 19.9543 53.3643 19.939C53.2765 19.9251 53.1814 19.939 53.101 19.9982C53.0278 20.0495 52.9693 20.1292 52.9554 20.2244C52.94 20.3203 52.9627 20.4154 53.0132 20.4878" fill="white"/>
<path fill-rule="evenodd" clip-rule="evenodd" d="M51.7622 21.381C51.7549 21.2566 51.7549 21.1322 51.7549 21.0078C51.7622 20.8768 51.7702 20.7524 51.7841 20.6199C51.8134 20.3711 51.8653 20.1222 51.9451 19.8807C51.9963 19.7344 52.0621 19.5887 52.1433 19.449C52.2157 19.3319 52.2962 19.2228 52.3913 19.1269C52.4725 19.0472 52.5676 18.9813 52.6693 18.9367C52.757 18.8935 52.8521 18.8708 52.9472 18.8708C53.0504 18.8642 53.1455 18.8862 53.2333 18.9147C53.3423 18.952 53.4373 19.0106 53.5251 19.083C53.6356 19.1709 53.7234 19.2733 53.8031 19.3838C53.8989 19.5075 53.986 19.6466 54.0525 19.7856C54.2647 20.2393 54.381 20.7589 54.4029 21.2566C54.4103 21.381 54.4183 21.4981 54.4103 21.6225C54.4103 21.755 54.4029 21.8794 54.389 22.0104C54.3598 22.2592 54.3078 22.508 54.2274 22.7495C54.1769 22.8959 54.1103 23.043 54.0306 23.1813C53.9567 23.2984 53.877 23.4089 53.7738 23.5033C53.6941 23.5846 53.6063 23.6504 53.5039 23.6936C53.4081 23.7383 53.321 23.7595 53.2179 23.7595C53.1228 23.7675 53.0277 23.7522 52.9399 23.7156C52.8302 23.6797 52.7351 23.6212 52.6473 23.5472C52.5383 23.4675 52.4432 23.3643 52.362 23.2552C52.2669 23.1228 52.1865 22.9837 52.1206 22.8447C51.9085 22.3909 51.7915 21.8713 51.7622 21.381M52.2739 19.91C52.1429 20.2759 52.1064 20.6938 52.1276 21.0816C52.1495 21.4615 52.2373 21.8713 52.4063 22.2226C52.4568 22.3331 52.5226 22.4421 52.5965 22.5453C52.6616 22.6251 52.7347 22.7063 52.8152 22.7714C52.8883 22.83 52.9622 22.8739 53.042 22.9032C53.1158 22.9324 53.1883 22.9398 53.2695 22.9398C53.3419 22.9398 53.4158 22.9185 53.4816 22.8893C53.5694 22.8527 53.6352 22.8007 53.7003 22.7422C53.7815 22.6697 53.84 22.5819 53.8986 22.4868C53.9563 22.3836 54.0076 22.2665 54.0522 22.1501C54.1765 21.7842 54.2131 21.3663 54.1904 20.9784C54.1685 20.5986 54.0814 20.1881 53.9125 19.8375C53.8613 19.727 53.7954 19.618 53.723 19.5148C53.6645 19.435 53.5906 19.3538 53.5035 19.2886C53.437 19.2301 53.3572 19.1854 53.276 19.1562C53.2036 19.1269 53.1297 19.1196 53.0573 19.1196C52.9761 19.1196 52.9037 19.1415 52.8379 19.1708C52.7567 19.2074 52.6843 19.2594 52.6184 19.3179C52.5445 19.3904 52.4787 19.4782 52.4275 19.5733C52.3617 19.6758 52.3105 19.7929 52.2739 19.91" fill="#2E3033"/>
<path fill-rule="evenodd" clip-rule="evenodd" d="M50.3577 23.5331C50.1676 22.9688 49.9627 21.9962 49.9188 21.0448C49.8757 20.0861 49.992 19.1494 50.2992 18.359C50.6145 17.5686 51.1185 16.9246 51.5501 16.5587C51.9744 16.1854 52.3255 16.0903 52.6327 16.1196C52.9473 16.1415 53.2253 16.2879 53.5179 16.9465C53.8112 17.6052 54.1184 18.7761 54.3445 19.6543C54.5639 20.5325 54.7029 21.118 54.659 21.6742C54.6224 22.237 54.3964 22.7793 54.125 23.233C53.8478 23.6941 53.5179 24.06 53.2333 24.3088C52.94 24.565 52.6913 24.6967 52.3189 24.6894C51.9378 24.6821 51.4257 24.543 51.0819 24.3966C50.7389 24.2495 50.556 24.0966 50.3577 23.5331M51.7554 21.0081C51.7554 21.1325 51.7554 21.2569 51.7627 21.3813C51.7919 21.8709 51.909 22.3906 52.1211 22.845C52.187 22.9841 52.2674 23.1224 52.3625 23.2549C52.4437 23.3646 52.5381 23.4671 52.6478 23.5476C52.7356 23.6208 52.8307 23.6793 52.9404 23.7159C53.0282 23.7525 53.1233 23.7671 53.2184 23.7598C53.3215 23.7598 53.4086 23.7379 53.5044 23.694C53.6061 23.65 53.6946 23.5842 53.7743 23.5037C53.8775 23.4085 53.9572 23.2988 54.0311 23.1817C54.1108 23.0426 54.1774 22.8963 54.2279 22.7499C54.3083 22.5084 54.3603 22.2596 54.3895 22.0107C54.4034 21.879 54.4107 21.7546 54.4107 21.6229C54.4188 21.4984 54.4107 21.3813 54.4034 21.2569C54.3815 20.7593 54.2652 20.2397 54.053 19.7859C53.9865 19.6462 53.8994 19.5078 53.8036 19.3834C53.7239 19.2737 53.6353 19.1712 53.5256 19.0834C53.4378 19.0102 53.3427 18.9517 53.2337 18.9143C53.146 18.8858 53.0509 18.8638 52.9477 18.8711C52.8526 18.8711 52.7575 18.8931 52.6698 18.937C52.5681 18.9809 52.473 19.0468 52.3918 19.1266C52.2967 19.2224 52.2162 19.3322 52.1431 19.4493C52.0626 19.5883 51.9968 19.7347 51.9456 19.8811C51.8658 20.1226 51.8139 20.3714 51.7846 20.6202C51.7707 20.752 51.7627 20.8764 51.7554 21.0081" fill="#8D5D37"/>
<path fill-rule="evenodd" clip-rule="evenodd" d="M49.576 106.128C49.7369 105.93 49.963 105.77 50.227 105.653C50.4904 105.542 50.7903 105.492 51.0463 105.535C51.3016 105.579 51.5218 105.718 51.4925 105.96C51.4706 106.201 51.2065 106.538 50.9732 106.772C50.7464 107.006 50.5489 107.13 50.2702 107.109C49.9922 107.094 49.6265 106.933 49.4882 106.735C49.3485 106.545 49.4224 106.319 49.576 106.128" fill="#C09374"/>
<path fill-rule="evenodd" clip-rule="evenodd" d="M49.8756 8.84448C49.9707 8.8518 50.0585 8.8518 50.1455 8.85985H50.1675C51.9604 8.94767 52.926 9.17381 53.8477 9.50314C54.1908 9.62755 54.5346 9.7666 54.8572 9.96419C55.3904 10.2869 55.8732 10.7546 56.2317 11.5384C54.0445 10.9375 51.3386 9.73806 49.583 9.41532C49.6774 9.24699 49.7725 9.05672 49.8756 8.84448" fill="#C09374"/>
<path fill-rule="evenodd" clip-rule="evenodd" d="M47.9948 6.43665C48.2867 5.74945 48.6525 5.06811 48.9677 4.68097C49.2896 4.28578 49.5529 4.17527 49.7943 4.18259C50.0357 4.19064 50.2479 4.31505 50.4381 4.58583C50.6209 4.85588 50.7746 5.26571 50.8404 5.58771C50.9136 5.90972 50.8916 6.13659 50.7307 6.59838C50.5624 7.06603 50.2479 7.76859 49.9845 8.31747C49.8894 8.50774 49.8082 8.68339 49.7205 8.83707C48.997 8.81512 48.1777 8.8078 47.3804 8.82317C47.3804 8.68339 47.3877 8.53702 47.4096 8.38333C47.4828 7.82055 47.7022 7.12457 47.9948 6.43665" fill="#6A4528"/>
<path fill-rule="evenodd" clip-rule="evenodd" d="M62.4573 70.8384C61.2284 70.0627 57.3294 69.0088 53.884 67.9916C54.5724 67.6842 55.3624 67.3117 56.2395 66.8792C51.1848 67.9265 45.8009 68.0575 40.8274 67.1427C40.9876 67.4654 41.9905 67.8233 43.8258 68.2331C40.9583 69.5731 36.7814 71.3288 35.2533 72.6095C39.5904 70.8018 41.9093 70.1146 43.6503 69.6902C45.3912 69.2723 46.5624 69.112 48.3253 69.0308C50.0875 68.943 52.4503 68.9357 62.4573 70.8384M45.6616 58.2508C46.2841 58.5509 47.2416 59.2322 48.5145 60.2926C48.6827 60.4024 48.7785 60.5129 48.7924 60.6146C50.3506 59.4364 53.1303 57.7824 55.4638 56.4212C56.5464 56.2463 57.681 56.1358 58.2435 56.1219L57.7973 56.4432C58.7995 56.531 59.7065 56.3261 60.8916 55.5942C62.07 54.8704 63.525 53.6256 65.0465 52.0155C65.969 51.0422 66.9119 49.9371 67.7604 48.8247H67.7685C69.4356 47.9392 71.3302 47.083 72.8078 46.7244C74.0733 47.8075 75.2584 50.1567 76.1142 52.2797C76.9701 54.4087 77.5041 56.3114 77.3651 57.7312C77.2195 57.6148 76.9335 57.3733 76.5093 56.9994C77.5853 59.2827 77.7162 62.8175 77.3505 64.9991C77.2042 64.8227 77.0506 64.4429 76.8896 63.8713C76.9196 65.4155 76.1654 67.1719 75.4632 68.2265C74.761 69.2869 74.1106 69.6455 71.3887 71.1019C72.0251 71.2555 72.1422 71.4166 72.2373 71.6149C72.3323 71.8117 72.4128 72.0459 72.4786 72.3467C72.5445 72.6534 72.603 73.0266 72.9322 73.8536C73.2621 74.6805 73.8612 75.9539 74.3952 77.0224C74.9219 78.0909 75.3827 78.9545 75.9753 80.0083C76.5758 81.0548 77.3146 82.299 78.0015 83.8732C78.6965 85.4386 79.3402 87.334 79.6108 88.9221C79.8749 90.5102 79.7718 91.7909 79.6262 92.926C79.4799 94.0669 79.2897 95.0629 78.5655 96.6649C78.3234 96.2112 78.1405 95.7362 78.0015 95.2459C78.0893 98.6043 77.4609 100.061 76.5897 101.663C75.7119 103.259 74.6007 105.008 72.7566 106.852C72.8663 105.93 73.0053 105.301 73.1736 104.979C71.3302 108.645 67.6873 112.224 64.8051 113.761C64.7905 113.182 65.0253 112.312 65.5001 111.141C64.3735 112.853 61.8791 114.719 59.5237 115.891C57.1689 117.069 54.9517 117.552 52.7645 117.822C51.4771 117.976 50.1969 118.057 48.9461 118.057C48.0756 118.057 47.2197 118.021 46.3792 117.939C44.3156 117.75 42.3405 117.303 40.4825 116.717C38.6172 116.133 36.8623 115.407 35.37 114.405C33.8843 113.402 32.67 112.129 31.3467 110.68C31.6971 111.294 31.9246 111.902 32.0336 112.487C30.7754 111.895 30.1251 111.141 29.4887 110.445C28.8589 109.758 28.2298 109.143 26.145 104.715C26.1969 105.015 26.2693 105.586 26.3798 106.42C25.077 104.503 23.5335 102.059 23.2848 96.7162C23.088 97.587 22.8898 98.3628 22.685 99.0588C22.0924 97.2797 21.9615 94.3084 24.4186 83.6968C24.0236 84.5757 23.4603 85.6076 22.7288 86.8071C23.8334 81.8672 24.9014 78.8447 25.7361 76.598C26.5693 74.3439 27.1771 72.859 27.6153 71.541C26.8545 71.1604 26.6285 70.9335 26.145 70.4878C25.6695 70.048 24.9307 69.3828 23.9439 66.5213C23.87 66.8938 23.6725 67.3775 23.366 67.9769C22.6484 66.3888 22.3565 64.2226 22.4655 61.4709C22.1656 62.0417 21.8145 62.6052 21.4268 63.1622C21.4341 60.7464 21.8218 58.193 22.5825 55.5064C22.1802 56.0553 21.8291 56.5529 21.5145 56.9847C21.6908 54.877 22.2687 53.8891 23.0068 53.2824C23.7456 52.6749 24.6527 52.44 25.728 52.3676C26.8041 52.2863 28.0549 52.3676 29.349 52.7108C30.6445 53.0474 31.9751 53.6483 33.1894 54.1598C34.4037 54.6794 35.4944 55.1039 36.6641 55.5576C37.8272 56.0041 39.0707 56.4724 40.2631 56.9847C41.4554 57.4904 42.5973 58.0312 43.7158 58.785C44.8277 59.5315 45.9184 60.4902 46.6857 60.8561C46.7589 60.5854 46.0566 59.0631 45.6616 58.2508" fill="#B07D54"/>
<path fill-rule="evenodd" clip-rule="evenodd" d="M47.959 38.8649C49.3481 37.3859 49.5676 36.9548 49.7292 36.4645C49.8902 35.9742 49.9853 35.4253 49.3635 34.1958C49.9487 35.044 50.7168 36.0173 51.4702 36.8736C52.4936 38.0453 53.5038 39.0186 54.4328 39.8163C55.3692 40.614 56.2177 41.2434 57.0948 41.7703C57.9726 42.2899 58.887 42.699 59.8306 42.8973C60.7677 43.0942 61.7406 43.073 62.6038 42.7656C63.4662 42.4582 64.227 41.8655 64.739 41.28C65.2518 40.6945 65.5152 40.1164 65.6761 39.4936C65.8297 38.8722 65.8729 38.2063 65.9468 36.7426C65.9606 38.8283 66.085 39.2089 66.202 39.5163C66.2467 39.626 66.2906 39.7285 66.3344 39.809C66.4142 40.3579 66.3922 40.9214 66.2759 41.4995C65.412 41.5434 65.3535 41.6459 65.3469 41.741C65.3469 41.8362 65.3908 41.9167 65.4998 41.9599C65.6103 42.0045 65.7858 42.0118 65.9314 42.0257C66.0784 42.0338 66.1955 42.0484 66.202 42.0996C66.2174 42.1501 66.1296 42.246 65.8955 42.3997C65.6607 42.5534 65.2811 42.7803 64.7983 42.9698C64.3082 43.1681 63.723 43.3357 63.3053 43.4309C62.8883 43.5267 62.6477 43.548 62.2153 43.556C62.0325 43.556 61.8064 43.556 61.5504 43.5414C61.2059 43.5187 60.8108 43.4755 60.35 43.3804C59.5461 43.2194 58.5505 42.8973 57.7466 42.5161C56.9346 42.1289 56.3128 41.6752 55.6544 41.1629C54.9961 40.6499 54.3012 40.0871 53.694 39.5887C53.0795 39.0918 52.5382 38.6666 52.1066 38.3526C51.675 38.0379 51.3532 37.833 51.0679 37.6933C50.7819 37.5549 50.5339 37.481 50.1901 37.5183C49.8463 37.5623 49.4001 37.7086 47.959 38.8649" fill="#6A4528"/>
<path fill-rule="evenodd" clip-rule="evenodd" d="M47.6883 38.7256C48.354 38.1109 48.8807 37.4742 49.1726 36.9765C49.4659 36.4789 49.5317 36.1276 49.4952 35.7185C49.4586 35.3079 49.3189 34.8323 48.3979 32.5123C48.4996 32.7538 48.632 33.0246 48.8068 33.3247C48.9612 33.5954 49.1513 33.8889 49.3635 34.1963C49.9853 35.425 49.8902 35.9739 49.7292 36.4642C49.5676 36.9546 49.3489 37.3864 47.959 38.8647C49.4001 37.7084 49.8463 37.562 50.1901 37.5188C50.5339 37.4815 50.7819 37.5547 51.0679 37.6937C51.3532 37.8328 51.675 38.0384 52.1066 38.3524C52.5382 38.6671 53.0795 39.0915 53.694 39.5892C54.3012 40.0868 54.9961 40.6504 55.6544 41.1626C56.3128 41.6749 56.9346 42.1287 57.7466 42.5165C58.5512 42.8971 59.5461 43.2198 60.3507 43.3801C60.8108 43.4752 61.2059 43.5192 61.5504 43.5411C61.6821 44.1266 62.3551 44.625 62.9037 44.8804C63.0792 44.9616 63.2475 45.0202 63.4004 45.056V45.0633C62.9329 45.0707 62.8598 45.1292 62.8305 45.1951C62.8013 45.2609 62.8225 45.3341 62.9695 45.4585C63.1158 45.5829 63.3865 45.7586 63.6491 45.8976C63.9132 46.044 64.1619 46.1538 64.3886 46.2123C64.6154 46.2716 64.8129 46.2782 64.9585 46.2423C65.1055 46.205 65.186 46.1179 65.3242 45.9708C65.464 45.8171 65.6542 45.5983 65.8297 45.3634C65.9972 45.1365 66.1589 44.895 66.254 44.6901C66.3491 44.4779 66.371 44.3095 66.3857 44.1851C66.3922 44.068 66.3783 43.9949 66.0931 44.1346C66.2467 43.9949 66.4003 43.8338 66.5539 43.6582C66.7441 43.4313 66.9343 43.1752 67.0879 42.9264C67.0579 43.6143 66.9855 44.0973 66.8904 44.4632C66.7953 44.8291 66.6783 45.078 66.5612 45.2902C66.2094 45.9562 65.837 46.2782 65.4932 46.4685C65.1494 46.6668 64.8422 46.7319 64.2789 46.4904C63.7076 46.2489 62.8817 45.7 61.3675 44.625C60.2776 44.4632 58.8877 44.1346 57.3954 43.4826C55.9024 42.8312 54.3158 41.8579 53.2332 41.1553C52.1505 40.4462 51.5792 39.999 51.0752 39.7575C50.5778 39.5087 50.1535 39.4728 49.5903 39.538C49.027 39.6038 48.3321 39.7795 45.2305 40.4169C46.218 39.9266 47.0227 39.3404 47.6883 38.7256" fill="#A57046"/>
<path fill-rule="evenodd" clip-rule="evenodd" d="M47.3804 8.82306C48.1777 8.80769 48.997 8.81501 49.7205 8.8377C49.5749 9.13043 49.4425 9.35657 49.3262 9.52562C49.1506 9.77445 49.0043 9.88349 48.8214 9.97863C48.6451 10.0745 48.433 10.1616 48.2574 10.2128C48.0746 10.2575 47.929 10.2648 47.812 10.1909C47.6876 10.1111 47.5925 9.94936 47.4974 9.65736C47.4308 9.44512 47.3804 9.16702 47.3804 8.82306" fill="#6A4528"/>
<path fill-rule="evenodd" clip-rule="evenodd" d="M47.118 10.1325C47.0229 9.81781 46.9351 9.38602 46.9863 8.82324H47.3813C47.3813 9.16721 47.4325 9.4453 47.4991 9.65754C47.5934 9.94954 47.6885 10.1113 47.8129 10.191C47.9299 10.265 48.0762 10.2576 48.2591 10.213C48.4347 10.1618 48.6468 10.0747 48.8224 9.97881C49.0053 9.88367 49.1516 9.77463 49.3278 9.52581C49.4442 9.35675 49.5758 9.13061 49.7221 8.83715C49.7733 8.84447 49.8245 8.84447 49.8765 8.84447C49.7733 9.0567 49.6782 9.24698 49.5831 9.41603C49.4661 9.64217 49.3491 9.83318 49.2467 9.97881C49.0345 10.2715 48.8663 10.396 48.6614 10.5065C48.4493 10.6236 48.2006 10.726 47.9958 10.7772C47.7836 10.8358 47.6154 10.8431 47.4764 10.748C47.3374 10.6602 47.2204 10.4699 47.118 10.1325" fill="#6A4528"/>
<path fill-rule="evenodd" clip-rule="evenodd" d="M47.008 8.64746C47.03 8.47182 47.0666 8.28154 47.1112 8.08322C47.2421 7.55703 47.4477 6.96424 47.6956 6.37804C48.0321 5.58107 48.4637 4.78995 48.8295 4.32962C49.1952 3.87515 49.5105 3.75147 49.7885 3.75806C50.0665 3.76611 50.3218 3.91174 50.5339 4.21985C50.6363 4.36548 50.7321 4.55649 50.8119 4.75409C50.8996 4.96632 50.9655 5.19246 51.0101 5.39079C51.0898 5.76402 51.0686 6.02749 50.8777 6.56905C50.6809 7.10987 50.3152 7.93026 50.0079 8.57355C49.9633 8.66869 49.9194 8.75651 49.8763 8.84506C49.8251 8.84506 49.7731 8.84506 49.7219 8.83774C49.8097 8.68406 49.8902 8.50841 49.9853 8.31814C50.2493 7.76926 50.5632 7.0667 50.7321 6.59832C50.8931 6.13653 50.915 5.91039 50.8411 5.58765C50.7753 5.26638 50.6217 4.85581 50.4388 4.58577C50.2493 4.31499 50.0372 4.19057 49.7958 4.18252C49.5537 4.17594 49.2903 4.28571 48.9692 4.68091C48.6539 5.06805 48.2882 5.74939 47.9963 6.43658C47.703 7.12524 47.4835 7.82049 47.4111 8.384C47.3891 8.53769 47.3818 8.68406 47.3818 8.8231H46.9868L47.008 8.64746Z" fill="#6A4528"/>
<path fill-rule="evenodd" clip-rule="evenodd" d="M43.6504 69.69C41.9094 70.1145 39.5905 70.8024 35.2534 72.6093C36.7815 71.3286 40.9584 69.5729 43.826 68.2337C41.9899 67.8231 40.9877 67.4652 40.8275 67.1432C45.801 68.058 51.1849 67.9263 56.2396 66.879C55.3626 67.3115 54.5725 67.6848 53.8842 67.9922C57.3296 69.0087 61.2285 70.0632 62.4574 70.8383C52.4504 68.9362 50.0877 68.9428 48.3255 69.0314C46.5618 69.1119 45.3914 69.2729 43.6504 69.69" fill="#9C6840"/>
<path fill-rule="evenodd" clip-rule="evenodd" d="M39.3121 35.0006C39.4657 34.5981 39.8022 34.0712 40.2111 33.6614C40.6215 33.2589 41.097 32.9661 41.5725 32.8856C42.0399 32.8051 42.5015 32.9222 42.816 33.0905C43.1306 33.2662 43.2988 33.5004 43.3427 33.9029C43.3939 34.3127 43.3354 34.8982 43.094 35.4105C42.8599 35.9301 42.4429 36.3765 42.0114 36.6839C41.5725 36.9912 41.1189 37.1522 40.8117 37.2181C40.5044 37.2766 40.3435 37.2254 40.2192 37.0644C40.0948 36.8961 40.007 36.618 40.0802 36.4058C40.1606 36.1935 40.394 36.0545 40.6215 35.9447C40.8556 35.8349 41.075 35.7544 41.3018 35.5641C41.5359 35.3739 41.7846 35.0884 41.8431 34.8762C41.9089 34.664 41.7919 34.5323 41.6163 34.5103C41.4335 34.4883 41.1921 34.5908 41.0019 34.7372C40.8117 34.8835 40.68 35.0884 40.5118 35.2934C40.3508 35.5056 40.1533 35.7105 39.9851 35.8422C39.8168 35.974 39.6625 36.0179 39.5462 36.0252C39.4218 36.0325 39.3267 35.9886 39.2609 35.8349C39.195 35.6739 39.1585 35.4031 39.3121 35.0006" fill="#C09374"/>
<path fill-rule="evenodd" clip-rule="evenodd" d="M28.4709 16.4117C28.2588 15.9587 27.9223 15.6001 27.6663 15.322C27.4102 15.0512 27.2354 14.861 27.2493 14.7805C27.2647 14.6992 27.4688 14.7358 28.0467 14.8097C28.6245 14.8822 29.5609 14.9927 30.4321 16.2288V16.2368C30.6581 16.5581 30.8929 16.902 31.1343 17.268L31.4262 17.8608C30.7313 18.8568 30.0217 20.0863 29.3056 21.5639H29.2975C28.8879 21.4255 28.7196 21.015 28.6099 20.6125C28.4929 20.21 28.427 19.8148 28.479 19.3764C28.5221 18.9366 28.6831 18.4462 28.7277 17.9339C28.7635 17.4143 28.6831 16.8655 28.4709 16.4117" fill="#6A4528"/>
<path fill-rule="evenodd" clip-rule="evenodd" d="M24.8425 13.9461C25.1578 14.2315 25.7064 14.7804 26.2104 15.3293C26.7079 15.8782 27.1614 16.4197 27.4182 17.0711C27.6735 17.7217 27.732 18.4908 27.8132 19.339C27.901 20.188 28.0026 21.1181 28.0173 21.6224C28.0392 22.1346 27.9734 22.2232 27.8344 22.2664C27.7027 22.311 27.5059 22.311 27.315 22.2664C27.1321 22.2298 26.9639 22.15 26.7371 22.0402C26.5104 21.9224 26.2397 21.7841 25.3765 21.5931C24.6011 20.8766 23.8843 19.9464 23.3868 19.1561C23.2705 18.9731 23.1674 18.7982 23.0796 18.6291V18.6226C22.1506 15.3586 23.0503 14.6406 23.5778 14.2315C24.1037 13.8137 24.2434 13.7046 24.3524 13.66C24.4556 13.6241 24.5353 13.6534 24.8425 13.9461" fill="#A57046"/>
<path fill-rule="evenodd" clip-rule="evenodd" d="M21.2148 9.56222C21.3904 9.01335 22.4804 8.1571 23.563 7.38135C23.4386 7.42526 23.2192 7.44648 22.9119 7.4399C24.0677 6.39337 24.7261 5.90304 25.3479 5.71276C25.9623 5.52175 26.5475 5.63226 28.1715 7.68799L28.6623 8.29615C27.6667 8.12782 26.9352 7.79118 26.4232 7.61554C25.9111 7.4399 25.6192 7.41721 25.2967 7.46917C24.9675 7.52772 24.6098 7.65213 23.9287 8.08318C23.2419 8.50838 22.2324 9.2468 21.2148 9.56222" fill="#C09374"/>
<path fill-rule="evenodd" clip-rule="evenodd" d="M26.2104 15.3289C25.7064 14.78 25.1577 14.2311 24.8424 13.9457C24.5352 13.653 24.4555 13.6237 24.3523 13.6603C24.2433 13.7042 24.1036 13.814 23.5769 14.2311C23.0503 14.6409 22.1505 15.3581 23.0795 18.6221C22.7064 17.9342 22.5016 17.3195 22.3407 16.6096C22.1432 15.7314 22.0196 14.6995 22.2749 13.5725C22.5309 12.4527 23.16 11.2452 23.5916 10.5426C24.0232 9.84008 24.2499 9.64175 24.4555 9.61248C24.6669 9.57662 24.8571 9.70103 25.4942 10.1614C26.086 10.5939 27.0589 11.3257 30.4319 16.2283C29.5607 14.9922 28.6243 14.8824 28.0465 14.8093C27.4686 14.7353 27.2637 14.6995 27.2491 14.78C27.2345 14.8605 27.41 15.0508 27.6661 15.3215C27.9221 15.5996 28.2586 15.9582 28.4707 16.4112C28.6829 16.8657 28.7633 17.4146 28.7268 17.9342C28.6829 18.4465 28.5219 18.9368 28.4788 19.3759C28.4268 19.815 28.4927 20.2102 28.6097 20.6127C28.7194 21.0152 28.8877 21.4251 29.2973 21.5641H29.3046C29.0559 22.0691 28.8072 22.6106 28.5512 23.1807C27.6661 23.079 26.7005 22.6911 25.7715 21.9374C25.6398 21.8276 25.5081 21.7171 25.3764 21.5934C26.2396 21.7837 26.5103 21.9227 26.7371 22.0398C26.9638 22.1496 27.1321 22.2301 27.3149 22.2659C27.5059 22.3106 27.7026 22.3106 27.8343 22.2659C27.9733 22.2228 28.0391 22.1349 28.0172 21.6227C28.0026 21.1177 27.9009 20.1883 27.8124 19.3386C27.7319 18.4904 27.6734 17.722 27.4174 17.0706C27.1613 16.4193 26.7078 15.8777 26.2104 15.3289" fill="#8D5D37"/>
<path fill-rule="evenodd" clip-rule="evenodd" d="M18.501 14.4212C18.3693 13.6675 18.4644 12.899 18.6546 12.1526C18.8448 11.4061 19.1301 10.6816 19.4739 10.301C19.1374 10.3083 18.8887 10.2871 18.7204 10.2286C19.0057 9.5399 20.7175 7.9884 21.3905 7.55662C21.4197 6.72964 21.713 6.40763 22.1512 6.05635C22.5982 5.70507 23.1826 5.33183 23.8044 5.02446C24.4335 4.71709 25.0999 4.46826 25.6625 4.38776C26.2264 4.30726 26.6793 4.38776 27.0377 4.54877C27.3888 4.70245 27.6448 4.92932 28.0552 5.41965C28.4714 5.90266 29.042 6.64914 29.8394 7.95913C30.6448 9.26912 31.6681 11.1353 31.9388 11.6988C32.6996 11.9915 33.3506 12.255 33.9073 12.4826C35.1647 12.4453 35.4793 12.4241 35.6914 12.4014C35.8962 12.3794 36.006 12.3648 36.4741 12.0581C36.9423 11.7574 37.7689 11.1792 38.9832 10.5279C40.1975 9.87654 41.8002 9.16007 42.8529 8.74219C43.9062 8.33236 44.411 8.22991 45.6253 8.25918C45.1864 8.58192 44.7767 8.81538 44.411 8.96174C45.0474 8.88856 45.9837 8.84465 46.9859 8.82343C46.9347 9.38621 47.0225 9.81799 47.1176 10.1327C47.22 10.4701 47.337 10.6596 47.476 10.7474C47.615 10.8426 47.7832 10.836 47.9954 10.7774C48.2009 10.7255 48.4489 10.6237 48.661 10.5059C48.8659 10.3961 49.0341 10.2717 49.2463 9.979C49.3487 9.83263 49.4657 9.64235 49.5827 9.41548C51.3391 9.73822 54.0449 10.9377 56.2321 11.5385C55.8737 10.7547 55.3909 10.2871 54.8569 9.96436L54.952 9.81067C55.5006 10.1327 56.1371 10.5425 56.8759 11.0328C57.4757 11.45 58.1414 11.9257 58.8729 12.4599C59.1362 12.3282 59.363 12.2111 59.5459 12.0874C60.2708 11.6183 60.4603 11.1865 60.5846 10.6596C60.7455 9.99363 60.7968 9.1813 60.8194 8.47873C60.8406 7.77617 60.8406 7.18338 60.7455 6.66378C60.6505 6.15149 60.4603 5.71971 60.0433 5.16424C59.6337 4.61536 59.0046 3.94866 58.6388 3.5681C58.2657 3.18023 58.1633 3.08509 57.9731 3.09973L58.5437 2.3313C59.0046 2.60281 59.7222 3.129 60.9438 3.78766C60.709 3.04118 60.3578 2.50694 59.9921 2.11907L60.7902 1.95074C61.1332 2.27275 61.4697 2.62403 61.7631 2.98263C62.3549 3.70057 62.7938 4.45363 63.0498 5.02446C63.3058 5.60261 63.3717 6.00512 63.4448 6.73696C63.5106 7.46148 63.5838 8.52996 63.5399 9.52599C63.4887 10.5279 63.3212 11.4646 62.8377 12.1233C62.6109 11.7427 62.5012 11.4646 62.5012 11.2817C62.3914 12.7819 62.0915 14.5164 61.6965 15.519C63.1303 16.8656 64.0666 17.8755 64.8786 18.8342C65.6832 19.7929 66.3635 20.6931 66.7878 21.2932C68.046 21.9226 69.1506 22.9911 69.8097 23.7888C70.0576 24.0888 70.2405 24.3523 70.3795 24.5938L68.8726 24.6304C68.7848 24.4694 68.6751 24.3523 68.5361 24.2571C68.2654 24.0742 67.8631 23.9864 67.0877 23.9717C66.956 23.9644 66.8097 23.9644 66.6488 23.9644C65.0175 23.3497 62.9401 23.4741 61.6453 23.5692C60.3578 23.6644 59.8465 23.7375 59.0997 23.9278C58.3608 24.1181 57.374 24.4181 56.3931 24.828C55.4129 25.2378 54.4326 25.7428 53.094 26.5844C51.7553 27.4267 50.0655 28.6043 49.1585 29.4093C48.2441 30.2143 48.1197 30.6461 48.1124 31.173C48.1124 31.5389 48.1717 31.9561 48.3977 32.5123C49.3194 34.8322 49.4584 35.3079 49.495 35.7184C49.5315 36.1275 49.4657 36.4788 49.1731 36.9765C48.8805 37.4741 48.3545 38.1108 47.6881 38.7256C47.0225 39.3403 46.2185 39.9265 45.2303 40.4168C48.3319 39.7794 49.0268 39.6038 49.5901 39.5379C50.1541 39.472 50.5783 39.5086 51.075 39.7574C51.5798 39.999 52.1503 40.4461 53.233 41.1553C54.3156 41.8578 55.903 42.8312 57.3952 43.4825C58.8875 44.1346 60.2774 44.4632 61.3681 44.6249C62.8815 45.7 63.7082 46.2488 64.2787 46.4904C64.8427 46.7319 65.15 46.6667 65.493 46.4684C65.8368 46.2781 66.2099 45.9561 66.561 45.2901C66.6781 45.0779 66.7958 44.8291 66.8902 44.4632L67.8339 44.6608C67.256 47.4637 66.861 47.9906 66.4806 48.3199C66.1002 48.6566 65.7417 48.781 65.0614 48.9493C64.564 49.0745 63.8837 49.2201 63.2107 49.2282C62.1574 50.23 58.4047 52.5061 55.369 53.0842C55.6835 52.8281 56.0061 52.5646 56.3492 52.2865C56.3565 52.2938 56.3565 52.2865 56.3638 52.2865C56.7296 51.9938 57.11 51.7083 57.505 51.4083C52.1577 52.4548 51.1335 52.4329 49.4584 52.3816C47.7832 52.3304 45.4644 52.2499 43.3576 51.8986C41.2582 51.5547 39.3709 50.9472 37.1032 49.3957C32.9483 47.5881 30.8342 44.7632 29.8247 42.6709C30.0149 43.3947 30.0734 43.8996 29.9857 44.1851C28.9177 42.9783 28.5812 41.7407 28.369 40.4673C28.1569 39.1947 28.0618 37.8913 28.0845 36.5008C27.8497 36.7496 27.6083 36.9033 27.3449 36.9699C27.1182 34.8834 27.1701 31.1876 27.7692 29.5849C26.0728 28.875 25.0772 28.4067 24.4408 28.0261C23.6662 27.5577 23.4167 27.2211 23.0656 26.7454C22.4219 25.8818 21.4343 24.5579 20.6516 23.335C19.8762 22.1209 19.313 21.0005 18.9911 20.1296C18.6692 19.2587 18.5888 18.622 18.6692 17.6267C18.7497 16.6321 18.9911 15.2702 19.2106 13.9236C18.9765 14.1797 18.7351 14.3481 18.501 14.4212M23.5635 7.38106C22.4809 8.15681 21.3909 9.01306 21.2154 9.56194C22.2329 9.24725 23.2417 8.50809 23.9293 8.08363C24.6103 7.65184 24.968 7.52743 25.2972 7.46888C25.6191 7.41765 25.9117 7.43961 26.4237 7.61525C26.9358 7.79089 27.6673 8.12754 28.6629 8.29586L28.172 7.68843C26.5481 5.63197 25.9629 5.5222 25.3484 5.7132C24.7266 5.90275 24.0683 6.39308 22.9125 7.43961C23.2197 7.44693 23.4392 7.42497 23.5635 7.38106M24.4562 9.61303C24.2507 9.6423 24.0239 9.83989 23.5923 10.5425C23.1608 11.245 22.5317 12.4533 22.2756 13.5723C22.0203 14.6993 22.144 15.7312 22.3415 16.6094C22.5024 17.3193 22.7072 17.934 23.0803 18.6219V18.6293C23.1681 18.7976 23.2712 18.9732 23.3875 19.1562C23.8849 19.9466 24.6018 20.876 25.3772 21.5932C25.5089 21.7176 25.6406 21.8274 25.7722 21.9379C26.7012 22.691 27.6668 23.0788 28.552 23.1813C28.808 22.6105 29.0567 22.0689 29.3061 21.5639C30.0223 20.0856 30.7319 18.8569 31.4268 17.8608L31.1349 17.268C30.8928 16.9021 30.6587 16.5582 30.4327 16.2362V16.2288C27.0597 11.3263 26.0868 10.5944 25.495 10.1619C24.8578 9.70085 24.6677 9.57643 24.4562 9.61303M39.9859 35.8429C40.1548 35.7105 40.3516 35.5063 40.5126 35.294C40.6808 35.0884 40.8125 34.8835 41.0027 34.7371C41.1936 34.5915 41.435 34.4883 41.6179 34.5102C41.7927 34.5322 41.9097 34.6639 41.8439 34.8762C41.7854 35.0884 41.5367 35.3738 41.3026 35.5641C41.0758 35.7544 40.8571 35.8349 40.6223 35.9446C40.3955 36.0552 40.1614 36.1935 40.081 36.4057C40.0078 36.6179 40.0963 36.896 40.2199 37.0644C40.3443 37.2254 40.5052 37.2766 40.8125 37.218C41.1197 37.1529 41.5732 36.9912 42.0129 36.6838C42.4437 36.3764 42.8607 35.93 43.0948 35.4104C43.3362 34.8981 43.3947 34.3127 43.3435 33.9028C43.2996 33.5003 43.1314 33.2661 42.8168 33.0905C42.503 32.9222 42.0414 32.8051 41.5732 32.8856C41.0985 32.9661 40.6223 33.2588 40.2126 33.6613C39.803 34.0719 39.4665 34.5981 39.3129 35.0006C39.1593 35.4031 39.1958 35.6739 39.2617 35.8349C39.3275 35.9886 39.4233 36.0325 39.5477 36.0259C39.664 36.0178 39.8183 35.9739 39.9859 35.8429M52.3182 24.6889C52.6912 24.6963 52.94 24.5645 53.2326 24.3084C53.5178 24.0596 53.847 23.6936 54.125 23.2326C54.3957 22.7788 54.6224 22.2373 54.659 21.6738C54.7029 21.1176 54.5639 20.5328 54.3444 19.6539C54.1177 18.7757 53.8112 17.6055 53.5178 16.9461C53.2252 16.2874 52.9473 16.1418 52.6327 16.1191C52.3255 16.0898 51.9744 16.185 51.5501 16.5582C51.1185 16.9241 50.6138 17.5682 50.2992 18.3585C49.992 19.1489 49.8757 20.0857 49.9188 21.0444C49.9627 21.9965 50.1675 22.9691 50.3577 23.5326C50.5552 24.0961 50.7381 24.2498 51.0819 24.3962C51.4257 24.5426 51.9378 24.6823 52.3182 24.6889M54.9972 24.2938C56.0132 24.367 56.9569 24.1182 57.7403 23.9133C58.5223 23.701 59.1448 23.54 59.6488 23.4083C60.1536 23.2692 60.5486 23.1595 60.7534 22.7862C59.583 22.6545 58.9027 22.6911 58.1712 22.8448C57.4397 22.9911 56.657 23.2619 54.9972 24.2938M60.2841 21.1469C60.5987 21.3591 60.8481 21.3957 61.0888 21.425C61.3302 21.4542 61.5504 21.4689 61.6747 21.2932C61.8056 21.1249 61.8276 20.7736 61.6593 20.254C61.4984 19.7344 61.14 19.0465 60.8547 18.5415C60.5774 18.0366 60.3719 17.7072 59.9988 17.2901C59.6258 16.8737 59.0844 16.368 58.6309 16.0679C58.1774 15.7679 57.8043 15.6727 57.5563 15.6874C57.3069 15.7093 57.1825 15.8484 57.1321 16.0533C57.0801 16.2509 57.1094 16.5143 57.1752 16.7924C57.2484 17.0705 57.3508 17.3559 57.5629 17.7731C57.775 18.1902 58.0823 18.7391 58.3829 19.1563C58.6748 19.5734 58.9608 19.8661 59.2893 20.2028C59.6111 20.5468 59.9769 20.9346 60.2841 21.1469" fill="#B07D54"/>
<path fill-rule="evenodd" clip-rule="evenodd" d="M20.6011 41.3898L21.969 40.4084C21.9909 40.5255 22.0202 40.6426 22.0495 40.7744C22.2909 41.8509 22.8249 43.57 24.3391 46.5127C22.4152 44.9166 20.9595 42.3259 20.6011 41.3898" fill="#8D5D37"/>
<path fill-rule="evenodd" clip-rule="evenodd" d="M13.4091 126.092H13.4017L13.314 124.058C13.7163 124.036 14.1698 124.021 14.6599 124.014C15.6775 123.992 16.8252 124.006 17.8427 124.102L17.7469 125.397C17.6811 125.397 17.6445 125.617 17.6811 126.129C17.725 126.729 17.872 127.724 17.9444 130.63C17.2648 130.682 16.5765 130.711 15.9035 130.711C15.0769 130.711 14.2869 130.666 13.5554 130.586C13.4749 128.705 13.5188 127.732 13.5261 127.102C13.5334 126.37 13.4829 126.114 13.4091 126.092" fill="#9C6840"/>
<path fill-rule="evenodd" clip-rule="evenodd" d="M19.1299 130.513C18.9689 129.115 18.5959 127.915 18.3471 127.081C18.0399 126.063 17.9156 125.595 17.8131 125.448C17.7912 125.419 17.7693 125.397 17.7466 125.397L17.8424 124.102C17.8644 124.102 17.8936 124.109 17.9156 124.109C18.9543 124.212 19.846 124.402 20.3654 124.526C20.8928 124.658 21.0384 124.724 21.2073 124.775C21.3749 124.834 21.5577 124.87 21.2878 124.511C21.1854 124.38 21.0245 124.189 20.8123 123.977L22.7362 123.772C24.5576 125.236 25.355 126.173 25.8085 126.729C26.2621 127.285 26.3711 127.447 26.3864 127.585C26.4084 127.724 26.3279 127.827 26.1523 128.068C25.976 128.31 25.7061 128.683 25.1575 129.012C24.6089 129.342 23.7896 129.627 22.8379 129.869C21.895 130.103 20.8262 130.3 19.6339 130.454C19.4664 130.476 19.2974 130.491 19.1299 130.513" fill="#9C6840"/>
<path fill-rule="evenodd" clip-rule="evenodd" d="M9.52522 106.486C9.43744 106.582 9.34966 106.685 9.26188 106.779C8.99781 106.399 9.22531 103.544 10.6298 97.1342C10.681 96.2334 10.8419 93.95 11.1419 91.03C11.4418 88.1107 11.8873 84.5606 14.6824 70.3556L15.5382 70.4068C15.4139 72.3681 15.4943 74.1319 15.8089 74.9669C15.9625 74.41 16.0868 74.0441 16.1673 73.8538C15.6399 77.2641 15.3188 79.6426 15.2529 81.2892C15.1864 82.9293 15.3773 83.8368 15.4863 84.6996C15.1139 87.774 15.1498 89.3394 15.1944 90.5184C15.2383 91.696 15.2895 92.4863 15.5521 92.9262C15.6845 92.3985 15.7577 92.0033 15.7869 91.7545C15.9106 98.2752 16.5989 100.837 17.1183 102.425C17.645 104.005 17.9961 104.598 19.0129 105.498C18.9397 105.038 18.8732 104.569 18.8007 104.108C19.729 106.091 20.5417 108.067 21.2001 109.377C21.8658 110.694 22.3705 111.347 24.1261 112.495C23.8774 111.939 23.628 111.376 23.3866 110.812C24.3529 111.858 25.1788 112.678 25.9103 113.336C27.1399 114.976 29.9043 117.237 31.3241 118.24C31.3827 119.198 31.4192 119.799 31.4258 120.025C30.2488 121.489 28.1999 123.817 27.7251 124.753C25.8159 124.059 22.9776 123.693 22.7362 123.772L20.8124 123.977C20.4686 123.626 20.015 123.231 19.5461 122.968C18.8007 122.543 18.0253 122.448 17.1029 122.433C16.1746 122.419 15.0993 122.484 14.1476 122.704C13.1901 122.916 12.3562 123.289 11.8653 123.567C11.3752 123.846 11.2216 124.029 11.2735 124.109C11.3247 124.19 11.5808 124.16 12.1513 124.124C12.4586 124.102 12.8536 124.072 13.3144 124.059L13.4022 126.092C13.3283 126.092 13.2267 126.32 13.0438 127.117C12.8828 127.842 12.6553 129.035 12.6846 130.476C12.6341 130.469 12.5756 130.462 12.5171 130.454C11.5369 130.308 10.7542 130.117 10.1909 129.891C9.62032 129.672 9.28383 129.415 9.04243 128.815C8.80835 128.222 8.67668 127.285 8.64742 125.478C8.61084 123.67 8.68399 120.985 8.61084 119.198C8.80103 117.361 9.08559 114.705 9.52522 110.549C9.43013 110.665 9.34235 110.775 9.24725 110.893C9.06437 110.321 9.2392 108.844 9.52522 106.486" fill="#9C6840"/>
<path fill-rule="evenodd" clip-rule="evenodd" d="M13.3144 124.058C12.8536 124.073 12.4586 124.102 12.1513 124.124C11.5808 124.161 11.3247 124.19 11.2735 124.109C11.2223 124.029 11.3759 123.846 11.866 123.567C12.3561 123.289 13.1901 122.916 14.1483 122.703C15.0993 122.485 16.1746 122.419 17.1036 122.433C18.0253 122.448 18.8007 122.543 19.5469 122.968C20.015 123.23 20.4686 123.626 20.8124 123.978C21.0245 124.19 21.1854 124.379 21.2879 124.511C21.5585 124.87 21.3756 124.834 21.2074 124.775C21.0391 124.723 20.8928 124.657 20.3662 124.526C19.8468 124.402 18.9543 124.212 17.9156 124.109C17.8937 124.109 17.8644 124.102 17.8425 124.102C16.8257 124.007 15.6772 123.991 14.6604 124.013C14.1703 124.021 13.7168 124.036 13.3144 124.058" fill="#B07D54"/>
<path fill-rule="evenodd" clip-rule="evenodd" d="M5.81706 65.8258C8.22372 60.2345 10.0452 56.8681 11.2741 55.7045C9.51118 59.4368 8.59679 62.7301 8.52364 65.5916C8.72846 65.4306 8.9406 65.2615 9.15274 65.0939C8.95523 67.9188 9.27709 71.2341 10.0379 72.5367C12.3348 71.1462 15.0048 67.9554 16.0435 66.4405C15.7948 67.7066 15.6193 69.1037 15.5388 70.4071L14.6829 70.3551C13.3955 74.2931 12.5689 78.1572 11.969 80.9528C11.3765 83.7404 11.0181 85.461 10.7913 86.8954C10.5719 88.3298 10.4768 89.4714 10.0818 90.8692C9.68674 92.267 8.99181 93.9276 8.51633 95.0114C8.04816 96.0872 7.79945 96.5922 7.42638 97.0094C7.05331 97.4265 6.55589 97.7485 6.10235 97.8217C5.64882 97.8876 5.23186 97.69 4.58082 96.8484C3.93709 95.9987 3.05928 94.4992 1.26709 85.0211C1.2744 84.3705 1.31098 83.6899 1.38413 82.9654C1.66942 80.0161 2.50334 76.3057 3.33726 73.2466C3.49819 72.6758 3.6518 72.1269 3.81274 71.5853C4.19312 70.3258 4.58813 69.1337 5.04898 67.8676C5.17334 67.531 5.29769 67.187 5.42937 66.8357C5.54641 66.513 5.67076 66.1917 5.80243 65.855C5.80975 65.8477 5.80975 65.8331 5.81706 65.8258" fill="#9C6840"/>
<path fill-rule="evenodd" clip-rule="evenodd" d="M8.09977 128.507C8.0632 127.3 8.09246 125.382 8.20877 123.523C8.21682 123.451 8.21682 123.377 8.22413 123.297C8.23145 123.201 8.23803 123.099 8.24608 122.997C8.25339 122.88 8.26071 122.756 8.27534 122.631C8.28997 122.521 8.29728 122.412 8.3046 122.302C8.34849 121.782 8.40701 121.168 8.49479 120.355C8.5021 120.246 8.51673 120.12 8.53136 119.996C8.55331 119.747 8.58257 119.484 8.61183 119.198C8.68498 120.985 8.61183 123.671 8.6484 125.477C8.67766 127.285 8.80934 128.222 9.04342 128.815C9.28482 129.415 9.62131 129.672 10.1919 129.891C10.7551 130.117 11.5379 130.308 12.5181 130.454C12.5766 130.462 12.6351 130.469 12.6863 130.476C12.6563 129.035 12.8838 127.842 13.0448 127.117C13.2276 126.32 13.3293 126.092 13.4032 126.092H13.4105C13.4837 126.114 13.5349 126.37 13.5276 127.102C13.5202 127.732 13.4764 128.706 13.5568 130.586C14.2883 130.666 15.0784 130.711 15.905 130.711C16.5779 130.711 17.2656 130.682 17.9459 130.63C17.8727 127.725 17.7264 126.729 17.6825 126.129C17.6459 125.617 17.6825 125.397 17.7476 125.397C17.7703 125.397 17.7922 125.419 17.8142 125.448C17.9166 125.595 18.041 126.063 18.3482 127.081C18.5969 127.914 18.97 129.115 19.1309 130.512C19.2992 130.491 19.4674 130.476 19.6356 130.454C20.8273 130.3 21.896 130.103 22.8389 129.868C23.7906 129.627 24.6099 129.342 25.1585 129.012C25.7072 128.683 25.9771 128.31 26.1534 128.068C26.3289 127.827 26.4094 127.725 26.3875 127.585C26.3721 127.447 26.2631 127.285 25.8096 126.729C25.356 126.173 24.5587 125.236 22.7372 123.772C22.9786 123.692 25.8169 124.058 27.7261 124.753C28.2009 123.817 30.2498 121.489 31.4275 120.025C31.4202 119.799 31.3837 119.198 31.3251 118.24C29.906 117.238 27.1409 114.976 25.912 113.337C26.2119 113.608 26.4965 113.856 26.7678 114.069C26.9288 114.2 27.0743 114.324 27.2214 114.427C27.3823 114.552 27.5359 114.669 27.6895 114.771C27.8139 114.866 27.9383 114.947 28.0553 115.02C28.2089 115.123 28.3479 115.21 28.4942 115.298C28.6771 115.408 28.86 115.51 29.0355 115.605C29.2111 115.7 29.372 115.781 29.5403 115.862C29.8914 116.029 30.2352 116.183 30.5863 116.329C32.459 117.127 34.4852 117.933 37.0016 118.606C39.518 119.28 42.5245 119.821 45.3481 120.07C46.5771 120.172 47.7687 120.224 48.9325 120.23C50.4614 120.23 51.9456 120.165 53.402 120.033C55.9689 119.806 58.4641 119.411 61.2511 118.408C64.0381 117.398 67.1244 115.781 70.3437 113.739C70.7095 113.513 71.0752 113.271 71.441 113.03C71.4776 113.007 71.5134 112.985 71.5507 112.956C74.8206 110.87 77.2565 108.946 78.8804 107.204C75.83 111.566 71.5215 115.745 70.5851 116.6C73.1527 119.601 74.7694 121.051 75.2156 121.38C76.8688 121.343 78.3537 121.277 79.6851 121.168C79.3852 121.658 79.1291 122.112 78.917 122.514C78.266 123.729 77.9434 124.563 77.7832 125.185C77.5637 126.02 77.6076 126.473 77.6588 126.765C77.702 127.059 77.7605 127.19 77.9295 127.381C78.105 127.578 78.383 127.834 79.2608 128.062C79.9996 128.258 81.17 128.427 82.5965 128.507C82.5672 126.591 82.7501 125.536 82.881 124.87C83.0281 124.102 83.1085 123.831 83.1671 123.684C83.1963 123.634 83.2109 123.597 83.2329 123.597C83.2622 123.597 83.2841 123.684 83.2987 123.926C83.3207 124.337 83.328 125.163 83.3426 126.078C83.3573 126.744 83.3792 127.454 83.4743 128.537C85.2292 128.581 87.2781 128.479 88.9899 128.296C89.1801 128.274 89.3702 128.251 89.5531 128.229C89.9116 126.166 89.8969 125.265 89.875 124.65C89.853 123.963 89.8238 123.634 89.7653 123.305C89.6994 122.975 89.6182 122.653 89.6921 122.661C89.7718 122.668 90.0067 123.018 90.2261 123.846C90.4163 124.57 90.5919 125.654 90.6943 128.062C91.6745 127.893 92.5011 127.688 93.196 127.431C94.2713 127.036 95.0102 126.524 95.5661 125.931C96.1221 125.339 96.4951 124.665 96.7212 123.788C96.956 122.916 97.0364 121.841 97.0657 120.919C97.1023 120.004 97.0803 119.228 97.073 118.371C97.0657 117.515 97.073 116.571 96.7504 113.52C96.9413 114.324 97.1023 114.895 97.2266 115.722C97.3949 116.952 97.468 118.753 97.5412 120.816C97.6143 122.873 97.6875 125.193 97.6802 126.503C97.6728 127.82 97.5924 128.134 97.2559 128.523C96.9267 128.918 96.3488 129.385 95.4783 129.751C94.6005 130.11 93.4228 130.374 91.755 130.549C90.0871 130.725 87.9219 130.813 86.0638 130.878C84.2131 130.937 82.6689 130.974 81.4626 130.923C80.2622 130.864 79.3998 130.718 78.778 130.476C78.1635 130.242 77.7832 129.913 77.4394 129.32C77.0955 128.719 76.7956 127.856 76.6493 127.373C76.503 126.898 76.5177 126.803 76.4299 126.722C76.3421 126.641 76.1592 126.569 74.4621 126.173C72.7723 125.778 69.5757 125.053 66.2327 124.607C66.5399 124.761 66.8032 124.965 67.0154 125.229C64.5868 125.134 61.9021 124.461 60.6001 124.08C59.4809 124.095 57.2132 124.563 55.1284 124.775C53.0363 124.987 51.127 124.936 49.1593 124.841C47.1908 124.739 45.1653 124.578 43.6869 124.498C42.21 124.416 41.2809 124.409 40.2788 124.519C39.2766 124.629 38.194 124.848 37.0601 125.156C35.9263 125.464 34.7413 125.851 33.5197 125.917C33.6001 125.676 33.6806 125.434 33.7611 125.193C32.9344 125.968 31.3763 127.19 29.086 128.859C28.7649 129.584 28.3991 130.125 28.0114 130.491C27.623 130.864 27.2141 131.061 26.6289 131.31C26.0363 131.56 25.2683 131.859 24.1417 132.138C23.0218 132.416 21.5449 132.679 20.3525 132.818C19.4674 132.92 18.7286 132.957 17.9459 132.972C17.6825 132.972 17.4192 132.979 17.1339 132.979C16.0147 132.979 14.6614 132.972 13.5276 132.928C12.401 132.884 11.4867 132.811 10.7844 132.642C10.0748 132.475 9.5701 132.211 9.19704 131.874C8.82397 131.538 8.58257 131.127 8.40701 130.674C8.23803 130.22 8.13635 129.715 8.09977 128.507" fill="#8D5D37"/>
<path fill-rule="evenodd" clip-rule="evenodd" d="M11.2734 55.7044C10.0445 56.8681 8.22306 60.2345 5.81641 65.8258C5.99928 65.3574 6.18947 64.8597 6.3943 64.3474C7.7549 60.9151 9.64292 56.4436 12.8681 51.2768C12.7291 51.1085 13.3363 49.213 15.6698 46.5411C16.0063 45.5246 17.3237 43.8414 20.6002 41.3897C20.9586 42.3265 22.4143 44.9172 24.3382 46.5126C22.8239 43.5706 22.2899 41.8508 22.0486 40.775C22.0193 40.6432 21.99 40.5261 21.9681 40.409C21.8218 39.5821 21.8803 39.1357 21.9827 38.1843C22.0998 37.1011 22.2753 35.3667 22.9776 32.6077C23.4092 30.8879 23.8993 29.3583 24.4406 28.0264C25.077 28.4069 26.0718 28.8753 27.7689 29.5852C27.1691 31.1879 27.1179 34.8837 27.3447 36.9694C27.608 36.9036 27.8494 36.7499 28.0835 36.501C28.0615 37.8915 28.1566 39.1942 28.3688 40.4676C28.5809 41.741 28.9174 42.9778 29.9854 44.1853C30.0732 43.8999 30.0147 43.3949 29.8245 42.6704C30.834 44.7635 32.948 47.5884 37.103 49.396C39.3706 50.9475 41.2579 51.5549 43.3574 51.8989C45.4641 52.2502 47.783 52.3307 49.4581 52.3819C51.1333 52.4331 52.1574 52.4551 57.5047 51.4086C57.1097 51.7086 56.7293 51.994 56.3636 52.2868C56.3562 52.2868 56.3562 52.2941 56.3489 52.2868C55.5516 52.4697 54.725 52.843 53.4448 53.0625C52.1574 53.2894 50.4164 53.3479 48.2658 53.304C46.1151 53.2601 43.5475 53.1137 41.1555 52.4478C41.4481 52.5868 41.8212 52.8137 42.2674 53.143C39.3194 52.6454 36.7592 51.5696 34.411 50.3913C32.0556 49.2204 29.9123 47.9397 27.1325 45.2392C27.9306 47.6616 28.1932 48.3934 28.6029 48.9276C29.0198 49.4685 29.5831 49.8132 32.1141 51.5696C30.9364 51.2036 29.7221 50.8524 28.4639 50.5084C30.8925 52.2868 33.1528 53.3333 35.1133 54.1237C37.081 54.9067 38.7489 55.4263 40.5191 56.224C42.2967 57.0217 44.184 58.0976 45.5226 58.9977C45.1349 58.2146 44.7472 57.6145 44.3595 57.1974C45.1715 57.2998 46.6491 58.017 48.7925 59.3483C50.6359 58.1049 52.3256 57.0364 53.8618 56.1435C53.6277 56.4143 53.4156 56.6851 53.24 56.9698C53.3424 56.9266 53.4522 56.8827 53.5765 56.8461C54.082 56.6851 54.7616 56.5387 55.4638 56.4209C53.1303 57.7829 50.3506 59.4368 48.7925 60.6151C48.7786 60.5126 48.6827 60.4028 48.5145 60.2931C47.2417 59.2319 46.2834 58.5513 45.6616 58.2505C46.0566 59.0636 46.7589 60.5858 46.6857 60.8566C45.9176 60.4907 44.8277 59.5312 43.7158 58.7855C42.5966 58.0317 41.4554 57.4901 40.2631 56.9852C39.0707 56.4729 37.8272 56.0045 36.6641 55.5581C35.4937 55.1043 34.4037 54.6799 33.1894 54.1603C31.9751 53.648 30.6438 53.0479 29.349 52.7112C28.0542 52.3673 26.8033 52.2868 25.728 52.3673C24.6527 52.4404 23.7456 52.6746 23.0068 53.2821C22.268 53.8895 21.6901 54.8775 21.5145 56.9852C21.8291 56.5534 22.1802 56.055 22.5826 55.5061C21.8218 58.1927 21.4341 60.7468 21.4268 63.1619C21.8145 62.6057 22.1656 62.0422 22.4655 61.4713C22.3558 64.223 22.6484 66.3893 23.3653 67.9774C23.6725 67.3772 23.87 66.8942 23.9432 66.521C24.9307 69.3825 25.6695 70.0485 26.145 70.4876C26.6278 70.934 26.8546 71.1608 27.6153 71.5414C27.1764 72.8587 26.5693 74.3443 25.7361 76.5984C24.9014 78.8451 23.8334 81.8676 22.7289 86.8075C23.4604 85.6073 24.0236 84.5754 24.4186 83.6972C21.9608 94.3088 22.0924 97.2801 22.685 99.0585C22.8898 98.3632 23.0873 97.5867 23.2848 96.7166C23.5335 102.059 25.077 104.503 26.3791 106.421C26.2693 105.586 26.1962 105.016 26.145 104.716C28.2298 109.143 28.8589 109.758 29.488 110.446C30.1251 111.141 30.7754 111.895 32.0336 112.488C31.9239 111.902 31.6971 111.295 31.346 110.68C32.67 112.129 33.8843 113.402 35.3693 114.405C36.8616 115.408 38.6172 116.132 40.4825 116.718C42.3406 117.303 44.3156 117.75 46.3785 117.94C47.2197 118.02 48.0756 118.057 48.9461 118.057L48.9314 120.231C47.7683 120.223 46.576 120.172 45.3471 120.07C42.5234 119.821 39.5169 119.279 37.0006 118.606C34.4842 117.933 32.4579 117.128 30.5852 116.33C30.2341 116.183 29.8903 116.03 29.5392 115.861C29.3783 115.781 29.2107 115.7 29.0344 115.605C28.8589 115.51 28.6833 115.408 28.4931 115.298C28.3468 115.21 28.2078 115.122 28.0542 115.02C27.9306 114.939 27.8128 114.859 27.6885 114.771C27.5349 114.669 27.382 114.551 27.2203 114.427C27.074 114.317 26.9204 114.193 26.7668 114.068C26.4961 113.856 26.2108 113.607 25.9109 113.337C25.1794 112.678 24.3528 111.858 23.3872 110.812C23.6286 111.375 23.8773 111.939 24.126 112.495C22.3704 111.346 21.8657 110.695 21.2 109.377C20.5416 108.067 19.7297 106.091 18.8007 104.108C18.8738 104.569 18.9396 105.038 19.0128 105.499C17.996 104.598 17.6449 104.006 17.1182 102.425C16.5988 100.837 15.9112 98.2754 15.7868 91.7547C15.7576 92.0036 15.6844 92.3988 15.5528 92.9257C15.2894 92.4866 15.2382 91.6962 15.1943 90.5179C15.1504 89.3397 15.1139 87.7735 15.4869 84.6998C15.3772 83.8363 15.187 82.9288 15.2528 81.2895C15.3187 79.6428 15.6405 77.2644 16.1672 73.854C16.0868 74.0443 15.9624 74.4102 15.8088 74.9664C15.495 74.1321 15.4138 72.3684 15.5381 70.407C15.6186 69.1044 15.7942 67.7066 16.0436 66.4405C15.0041 67.9554 12.3341 71.1462 10.0372 72.5367C9.27717 71.234 8.95457 67.9188 9.15208 65.0939C8.93994 65.2622 8.72854 65.4306 8.52298 65.5916C8.59613 62.7301 9.51052 59.4368 11.2734 55.7044" fill="#A57046"/>
<path fill-rule="evenodd" clip-rule="evenodd" d="M2.64947 97.3677C2.15936 95.3405 1.88139 92.823 1.61805 90.4665C1.42054 88.6888 1.22303 87.0049 1.26692 85.0216C3.05985 94.4989 3.93692 95.9992 4.58065 96.8481C5.23169 97.6897 5.64865 97.8873 6.10219 97.8214C6.55572 97.749 7.05388 97.4262 7.42621 97.0098C7.79928 96.592 8.04799 96.087 8.51689 95.0112C8.99164 93.9281 9.68657 92.2668 10.0816 90.869C10.4766 89.4712 10.5717 88.3295 10.7911 86.8951C11.0179 85.4607 11.3764 83.7409 11.9689 80.9526C12.5694 78.157 13.3953 74.2936 14.6828 70.3556C11.8884 84.5605 11.4429 88.1107 11.1423 91.03C10.8424 93.95 10.6814 96.2334 10.6302 97.1342C10.1767 99.3298 9.44517 101.122 8.88923 102.074C8.33401 103.018 7.94558 103.127 7.53594 103.178C7.1263 103.222 6.70202 103.201 6.19728 103.076C5.69254 102.944 5.12197 102.703 4.48555 101.81C3.84183 100.924 3.13958 99.3883 2.64947 97.3677" fill="#8D5D37"/>
</g>
<path fill-rule="evenodd" clip-rule="evenodd" d="M156.635 104.361L191.939 124.742L144.373 152.723L110.916 132.993C110.438 132.711 110.17 132.331 110.17 131.936L110.17 130.601C110.17 130.169 110.275 129.739 110.483 129.325L110.495 129.299L156.635 104.361Z" fill="#5C78DB"/>
<path fill-rule="evenodd" clip-rule="evenodd" d="M157.155 104.662L191.711 123.74L144.146 151.199L112.194 132.753C111.172 132.163 111.172 131.207 112.194 130.618L157.155 104.662Z" fill="white"/>
<path d="M154.792 103.69C155.813 103.1 157.469 103.1 158.491 103.69L191.837 122.941L144.219 150.431L110.872 131.18C109.851 130.59 109.851 129.634 110.872 129.045L154.792 103.69Z" fill="#6C8DFF"/>
<mask id="mask0_274_11008" style="mask-type:luminance" maskUnits="userSpaceOnUse" x="110" y="103" width="82" height="48">
<path d="M154.792 103.69C155.813 103.1 157.469 103.1 158.491 103.69L191.837 122.941L144.219 150.431L110.872 131.18C109.851 130.59 109.851 129.634 110.872 129.045L154.792 103.69Z" fill="white"/>
</mask>
<g mask="url(#mask0_274_11008)">
</g>
<path fill-rule="evenodd" clip-rule="evenodd" d="M156.636 97.8552L191.94 118.236L144.375 146.217L110.918 126.487C110.439 126.205 110.171 125.825 110.171 125.43L110.171 124.095C110.171 123.663 110.276 123.233 110.484 122.819L110.497 122.793L156.636 97.8552Z" fill="#DB9090"/>
<path fill-rule="evenodd" clip-rule="evenodd" d="M157.156 98.1558L191.713 117.234L144.148 144.693L112.195 126.247C111.174 125.657 111.174 124.701 112.195 124.112L157.156 98.1558Z" fill="white"/>
<path d="M154.793 97.1836C155.815 96.594 157.471 96.594 158.492 97.1836L191.839 116.435L144.22 143.925L110.874 124.674C109.852 124.084 109.852 123.128 110.874 122.538L154.793 97.1836Z" fill="#FFA9A9"/>
<mask id="mask1_274_11008" style="mask-type:luminance" maskUnits="userSpaceOnUse" x="110" y="96" width="82" height="48">
<path d="M154.793 97.1836C155.815 96.594 157.471 96.594 158.492 97.1836L191.839 116.435L144.22 143.925L110.874 124.674C109.852 124.084 109.852 123.128 110.874 122.538L154.793 97.1836Z" fill="white"/>
</mask>
<g mask="url(#mask1_274_11008)">
</g>
<path fill-rule="evenodd" clip-rule="evenodd" d="M156.636 91.3486L191.94 111.73L144.375 139.71L110.918 119.98C110.439 119.698 110.171 119.319 110.171 118.924L110.171 117.588C110.171 117.156 110.276 116.727 110.484 116.312L110.497 116.287L156.636 91.3486Z" fill="#6BAE8E"/>
<path fill-rule="evenodd" clip-rule="evenodd" d="M157.156 91.6492L191.713 110.727L144.148 138.187L112.195 119.74C111.174 119.151 111.174 118.195 112.195 117.605L157.156 91.6492Z" fill="white"/>
<path d="M154.793 90.677C155.815 90.0874 157.471 90.0874 158.492 90.677L191.839 109.928L144.22 137.418L110.874 118.167C109.852 117.577 109.852 116.621 110.874 116.032L154.793 90.677Z" fill="#9BFFCF"/>
<mask id="mask2_274_11008" style="mask-type:luminance" maskUnits="userSpaceOnUse" x="110" y="90" width="82" height="48">
<path d="M154.793 90.677C155.815 90.0874 157.471 90.0874 158.492 90.677L191.839 109.928L144.22 137.418L110.874 118.167C109.852 117.577 109.852 116.621 110.874 116.032L154.793 90.677Z" fill="white"/>
</mask>
<g mask="url(#mask2_274_11008)">
</g>
<path fill-rule="evenodd" clip-rule="evenodd" d="M156.635 84.8422L191.939 105.223L144.374 133.204L110.917 113.474C110.438 113.192 110.17 112.812 110.17 112.418L110.17 111.082C110.17 110.65 110.276 110.22 110.483 109.806L110.496 109.78L156.635 84.8422Z" fill="#CBC571"/>
<path fill-rule="evenodd" clip-rule="evenodd" d="M157.155 85.1429L191.712 104.221L144.147 131.68L112.195 113.234C111.173 112.644 111.173 111.688 112.195 111.099L157.155 85.1429Z" fill="white"/>
<path d="M154.792 84.1707C155.814 83.581 157.47 83.581 158.491 84.1707L191.838 103.422L144.22 130.912L110.873 111.661C109.852 111.071 109.852 110.115 110.873 109.525L154.792 84.1707Z" fill="#FFF792"/>
<mask id="mask3_274_11008" style="mask-type:luminance" maskUnits="userSpaceOnUse" x="110" y="83" width="82" height="48">
<path d="M154.792 84.1707C155.814 83.581 157.47 83.581 158.491 84.1707L191.838 103.422L144.22 130.912L110.873 111.661C109.852 111.071 109.852 110.115 110.873 109.525L154.792 84.1707Z" fill="white"/>
</mask>
<g mask="url(#mask3_274_11008)">
</g>
<path fill-rule="evenodd" clip-rule="evenodd" d="M156.636 78.3346L191.94 98.7156L144.374 126.696L110.917 106.966C110.439 106.684 110.171 106.305 110.171 105.91L110.171 104.574C110.171 104.142 110.276 103.713 110.484 103.298L110.496 103.273L156.636 78.3346Z" fill="#DB9090"/>
<path fill-rule="evenodd" clip-rule="evenodd" d="M157.156 78.6352L191.712 97.7131L144.147 125.173L112.195 106.726C111.173 106.137 111.173 105.181 112.195 104.591L157.156 78.6352Z" fill="white"/>
<path d="M154.793 77.6634C155.814 77.0737 157.47 77.0737 158.492 77.6634L191.838 96.9144L144.22 124.404L110.873 105.153C109.852 104.564 109.852 103.608 110.873 103.018L154.793 77.6634Z" fill="#FFA9A9"/>
<mask id="mask4_274_11008" style="mask-type:luminance" maskUnits="userSpaceOnUse" x="110" y="77" width="82" height="48">
<path d="M154.793 77.6634C155.814 77.0737 157.47 77.0737 158.492 77.6634L191.838 96.9144L144.22 124.404L110.873 105.153C109.852 104.564 109.852 103.608 110.873 103.018L154.793 77.6634Z" fill="white"/>
</mask>
<g mask="url(#mask4_274_11008)">
</g>
<path fill-rule="evenodd" clip-rule="evenodd" d="M156.635 71.8282L191.939 92.2093L144.374 120.19L110.916 100.46C110.438 100.178 110.17 99.7984 110.17 99.4035L110.17 98.0679C110.17 97.6361 110.275 97.2064 110.483 96.7916L110.495 96.7664L156.635 71.8282Z" fill="#6BAE8E"/>
<path fill-rule="evenodd" clip-rule="evenodd" d="M157.155 72.1289L191.712 91.2068L144.146 118.666L112.194 100.22C111.173 99.6304 111.173 98.6744 112.194 98.0847L157.155 72.1289Z" fill="white"/>
<path d="M154.792 71.157C155.813 70.5674 157.469 70.5674 158.491 71.157L191.838 90.4081L144.219 117.898L110.872 98.6471C109.851 98.0574 109.851 97.1014 110.872 96.5117L154.792 71.157Z" fill="#9BFFCF"/>
<mask id="mask5_274_11008" style="mask-type:luminance" maskUnits="userSpaceOnUse" x="110" y="70" width="82" height="48">
<path d="M154.792 71.157C155.813 70.5674 157.469 70.5674 158.491 71.157L191.838 90.4081L144.219 117.898L110.872 98.6471C109.851 98.0574 109.851 97.1014 110.872 96.5117L154.792 71.157Z" fill="white"/>
</mask>
<g mask="url(#mask5_274_11008)">
</g>
<path fill-rule="evenodd" clip-rule="evenodd" d="M156.635 65.3211L191.939 85.7022L144.373 113.683L110.916 93.9527C110.438 93.6705 110.17 93.2913 110.17 92.8964L110.17 91.5608C110.17 91.129 110.275 90.6993 110.483 90.2845L110.495 90.2593L156.635 65.3211Z" fill="#CBC571"/>
<path fill-rule="evenodd" clip-rule="evenodd" d="M157.155 65.6218L191.711 84.6997L144.146 112.159L112.194 93.713C111.172 93.1233 111.172 92.1673 112.194 91.5777L157.155 65.6218Z" fill="white"/>
<path d="M154.792 64.6499C155.813 64.0603 157.469 64.0603 158.491 64.6499L191.837 83.901L144.219 111.391L110.872 92.14C109.851 91.5503 109.851 90.5943 110.872 90.0047L154.792 64.6499Z" fill="#FFF792"/>
<mask id="mask6_274_11008" style="mask-type:luminance" maskUnits="userSpaceOnUse" x="110" y="64" width="82" height="48">
<path d="M154.792 64.6499C155.813 64.0603 157.469 64.0603 158.491 64.6499L191.837 83.901L144.219 111.391L110.872 92.14C109.851 91.5503 109.851 90.5943 110.872 90.0047L154.792 64.6499Z" fill="white"/>
</mask>
<g mask="url(#mask6_274_11008)">
</g>
<path fill-rule="evenodd" clip-rule="evenodd" d="M156.636 58.8158L191.94 79.1968L144.375 107.177L110.918 87.4473C110.439 87.1651 110.171 86.786 110.171 86.3911L110.171 85.0554C110.171 84.6236 110.276 84.194 110.484 83.7791L110.497 83.7539L156.636 58.8158Z" fill="#5C78DB"/>
<path fill-rule="evenodd" clip-rule="evenodd" d="M157.156 59.1164L191.713 78.1943L144.148 105.654L112.195 87.2076C111.174 86.618 111.174 85.6619 112.195 85.0723L157.156 59.1164Z" fill="white"/>
<path d="M154.793 58.1442C155.815 57.5545 157.471 57.5545 158.492 58.1442L191.839 77.3953L144.22 104.885L110.874 85.6343C109.852 85.0446 109.852 84.0886 110.874 83.4989L154.793 58.1442Z" fill="#6C8DFF"/>
<mask id="mask7_274_11008" style="mask-type:luminance" maskUnits="userSpaceOnUse" x="110" y="57" width="82" height="48">
<path d="M154.793 58.1442C155.815 57.5545 157.471 57.5545 158.492 58.1442L191.839 77.3953L144.22 104.885L110.874 85.6343C109.852 85.0446 109.852 84.0886 110.874 83.4989L154.793 58.1442Z" fill="white"/>
</mask>
<g mask="url(#mask7_274_11008)">
</g>
<path fill-rule="evenodd" clip-rule="evenodd" d="M156.636 52.3092L191.94 72.6902L144.375 100.671L110.918 80.9407C110.439 80.6585 110.171 80.2794 110.171 79.8845L110.171 78.5488C110.171 78.117 110.276 77.6874 110.484 77.2725L110.497 77.2473L156.636 52.3092Z" fill="#DB9090"/>
<path fill-rule="evenodd" clip-rule="evenodd" d="M157.156 52.6098L191.713 71.6877L144.148 99.1472L112.195 80.701C111.174 80.1114 111.174 79.1554 112.195 78.5657L157.156 52.6098Z" fill="white"/>
<path d="M154.793 51.6376C155.815 51.048 157.471 51.048 158.492 51.6376L191.839 70.8887L144.22 98.3787L110.874 79.1277C109.852 78.538 109.852 77.582 110.874 76.9923L154.793 51.6376Z" fill="#FFA9A9"/>
<mask id="mask8_274_11008" style="mask-type:luminance" maskUnits="userSpaceOnUse" x="110" y="51" width="82" height="48">
<path d="M154.793 51.6376C155.815 51.048 157.471 51.048 158.492 51.6376L191.839 70.8887L144.22 98.3787L110.874 79.1277C109.852 78.538 109.852 77.582 110.874 76.9923L154.793 51.6376Z" fill="white"/>
</mask>
<g mask="url(#mask8_274_11008)">
</g>
<path fill-rule="evenodd" clip-rule="evenodd" d="M156.636 45.8022L191.94 66.1833L144.375 94.1638L110.918 74.4338C110.439 74.1516 110.171 73.7724 110.171 73.3775L110.171 72.0419C110.171 71.6101 110.277 71.1804 110.484 70.7656L110.497 70.7404L156.636 45.8022Z" fill="#6BAE8E"/>
<path fill-rule="evenodd" clip-rule="evenodd" d="M157.156 46.1029L191.713 65.1808L144.148 92.6402L112.196 74.1941C111.174 73.6044 111.174 72.6484 112.196 72.0587L157.156 46.1029Z" fill="white"/>
<path d="M154.793 45.1307C155.815 44.541 157.471 44.541 158.492 45.1307L191.839 64.3817L144.22 91.8718L110.874 72.6207C109.852 72.0311 109.852 71.075 110.874 70.4854L154.793 45.1307Z" fill="#9BFFCF"/>
<mask id="mask9_274_11008" style="mask-type:luminance" maskUnits="userSpaceOnUse" x="110" y="44" width="82" height="48">
<path d="M154.793 45.1307C155.815 44.541 157.471 44.541 158.492 45.1307L191.839 64.3817L144.22 91.8718L110.874 72.6207C109.852 72.0311 109.852 71.075 110.874 70.4854L154.793 45.1307Z" fill="white"/>
</mask>
<g mask="url(#mask9_274_11008)">
</g>
<path fill-rule="evenodd" clip-rule="evenodd" d="M156.636 39.2955L191.94 59.6766L144.374 87.6571L110.917 67.9271C110.439 67.6449 110.171 67.2657 110.171 66.8708L110.171 65.5352C110.171 65.1034 110.276 64.6737 110.484 64.2588L110.496 64.2336L156.636 39.2955Z" fill="#CBC571"/>
<path fill-rule="evenodd" clip-rule="evenodd" d="M157.156 39.5965L191.712 58.6744L144.147 86.1339L112.195 67.6877C111.173 67.0981 111.173 66.142 112.195 65.5524L157.156 39.5965Z" fill="white"/>
<path d="M154.793 38.6243C155.814 38.0347 157.47 38.0347 158.492 38.6243L191.838 57.8754L144.22 85.3654L110.873 66.1144C109.852 65.5247 109.852 64.5687 110.873 63.979L154.793 38.6243Z" fill="#FFF792"/>
<mask id="mask10_274_11008" style="mask-type:luminance" maskUnits="userSpaceOnUse" x="110" y="38" width="82" height="48">
<path d="M154.793 38.6243C155.814 38.0347 157.47 38.0347 158.492 38.6243L191.838 57.8754L144.22 85.3654L110.873 66.1144C109.852 65.5247 109.852 64.5687 110.873 63.979L154.793 38.6243Z" fill="white"/>
</mask>
<g mask="url(#mask10_274_11008)">
</g>
<path fill-rule="evenodd" clip-rule="evenodd" d="M156.635 32.7895L191.939 53.1706L144.374 81.1511L110.916 61.4211C110.438 61.1389 110.17 60.7597 110.17 60.3648L110.17 59.0292C110.17 58.5974 110.275 58.1677 110.483 57.7529L110.495 57.7277L156.635 32.7895Z" fill="#5C78DB"/>
<path fill-rule="evenodd" clip-rule="evenodd" d="M157.155 33.0902L191.712 52.1681L144.146 79.6275L112.194 61.1814C111.173 60.5917 111.173 59.6357 112.194 59.046L157.155 33.0902Z" fill="white"/>
<path d="M154.792 32.1183C155.813 31.5287 157.469 31.5287 158.491 32.1183L191.838 51.3694L144.219 78.8595L110.872 59.6084C109.851 59.0187 109.851 58.0627 110.872 57.473L154.792 32.1183Z" fill="#6C8DFF"/>
<mask id="mask11_274_11008" style="mask-type:luminance" maskUnits="userSpaceOnUse" x="110" y="31" width="82" height="48">
<path d="M154.792 32.1183C155.813 31.5287 157.469 31.5287 158.491 32.1183L191.838 51.3694L144.219 78.8595L110.872 59.6084C109.851 59.0187 109.851 58.0627 110.872 57.473L154.792 32.1183Z" fill="white"/>
</mask>
<g mask="url(#mask11_274_11008)">
</g>
<path fill-rule="evenodd" clip-rule="evenodd" d="M136.133 25.5457L174.176 40.1924L131.537 75.2252L95.4198 60.9346C94.9032 60.7302 94.5796 60.3973 94.5182 60.0072L94.3106 58.6878C94.2435 58.2613 94.2808 57.8205 94.4213 57.3784L94.4298 57.3515L136.133 25.5457Z" fill="#DB9090"/>
<path fill-rule="evenodd" clip-rule="evenodd" d="M136.693 25.7621L173.795 39.2377L131.075 73.7557L96.644 60.4995C95.5433 60.0758 95.3948 59.1314 96.3121 58.3901L136.693 25.7621Z" fill="white"/>
<path d="M134.209 25.1693C135.126 24.428 136.762 24.1707 137.863 24.5944L173.796 38.4291L131.028 72.9856L95.0951 59.151C93.9944 58.7272 93.8459 57.7828 94.7632 57.0416L134.209 25.1693Z" fill="#FFA9A9"/>
<mask id="mask12_274_11008" style="mask-type:luminance" maskUnits="userSpaceOnUse" x="94" y="24" width="80" height="49">
<path d="M134.209 25.1693C135.126 24.428 136.762 24.1707 137.863 24.5944L173.796 38.4291L131.028 72.9856L95.0951 59.151C93.9944 58.7272 93.8459 57.7828 94.7632 57.0416L134.209 25.1693Z" fill="white"/>
</mask>
<g mask="url(#mask12_274_11008)">
</g>
<path d="M140.344 44.6233C139.261 44.1681 137.899 44.0267 136.62 44.2259C136.555 43.462 135.904 42.757 134.821 42.3018C132.863 41.4788 130.111 41.7288 128.686 42.859C125.627 45.2843 128.16 50.4326 128.27 50.6507C128.291 50.6918 128.334 50.7263 128.391 50.7502C128.448 50.7741 128.518 50.7874 128.592 50.786C128.985 50.7793 138.25 50.5907 141.309 48.1654C142.735 47.0353 142.302 45.4463 140.344 44.6233Z" fill="#DB9090"/>
<defs>
<clipPath id="clip0_274_11008">
<rect width="121.923" height="133.658" fill="white" transform="translate(0.881836 6.10352e-05)"/>
</clipPath>
</defs>
</svg>
