<svg width="19" height="23" viewBox="0 0 19 23" fill="none" xmlns="http://www.w3.org/2000/svg">
<path d="M18.62 1.14997V16.1C18.62 16.5216 18.2781 17.25 17.8602 17.25H2.28252C1.23334 17.25 0.382812 18.1081 0.382812 19.1666V2.29997C0.382812 1.24142 1.23334 0.383301 2.28252 0.383301H17.8602C18.2798 0.383301 18.62 0.726549 18.62 1.14997Z" fill="#BCFFBC"/>
<path d="M17.8605 0.383301H16.7207C17.1404 0.383301 17.4806 0.726549 17.4806 1.14997V16.1C17.4806 16.5216 17.1386 17.25 16.7207 17.25H17.8605C18.2785 17.25 18.6204 16.5216 18.6204 16.1V1.14997C18.6204 0.726549 18.2802 0.383301 17.8605 0.383301Z" fill="#BCFFBC"/>
<path d="M17.481 21.0833H7.98249V19.1667H4.18306V21.0833H2.36314C1.36208 21.1029 0.507882 20.3569 0.383643 19.3545C0.379931 19.2919 0.379931 19.2292 0.383643 19.1667C0.383643 18.1081 1.23417 17.25 2.28335 17.25H17.481C16.8503 17.25 16.3412 18.1087 16.3412 19.1667C16.3412 20.2247 16.8503 21.0833 17.481 21.0833Z" fill="#F5F5F5"/>
<path d="M18.6215 16.0999V20.3165C18.6215 20.7399 18.2812 21.0832 17.8616 21.0832H17.4816C16.8509 21.0832 16.3418 20.2245 16.3418 19.1665C16.3418 18.1085 16.8509 17.2499 17.4816 17.2499H17.8616C18.2795 17.2499 18.6215 16.5215 18.6215 16.0999Z" fill="#BCFFBC"/>
<path d="M17.8614 17.2499H17.4815V20.3165C17.4785 20.5874 17.3341 20.8366 17.1016 20.972C17.2167 21.0413 17.3475 21.0796 17.4815 21.0832H17.8614C18.2811 21.0832 18.6213 20.7399 18.6213 20.3165V16.0999C18.6213 16.5215 18.2794 17.2499 17.8614 17.2499Z" fill="#BCFFBC"/>
<path d="M7.98302 19.1665V22.2332C7.98299 22.3709 7.90973 22.498 7.79111 22.5662C7.67248 22.6344 7.52673 22.6331 7.4093 22.5628L6.26948 21.8767C6.15192 21.8082 6.00709 21.8082 5.88953 21.8767L4.74971 22.5628C4.63275 22.6292 4.48979 22.6284 4.37358 22.5607C4.25738 22.493 4.18516 22.3685 4.18359 22.2332V19.1665L7.98302 19.1665Z" fill="#1EE98F"/>
<path d="M14.4419 11.8833V12.65C14.4419 13.2851 13.9316 13.8 13.3021 13.8H7.9829C7.35339 13.8 6.84307 13.2851 6.84307 12.65V11.8833C6.84307 11.4599 6.50286 11.1166 6.08319 11.1166C5.45368 11.1166 4.94336 10.6018 4.94336 9.96664V7.28331C4.94336 4.95451 6.81452 3.06665 9.12272 3.06665H12.1623C14.4705 3.06665 16.3416 4.95451 16.3416 7.28331V9.96664C16.3416 10.6018 15.8313 11.1166 15.2018 11.1166C14.7821 11.1166 14.4419 11.4599 14.4419 11.8833Z" fill="#F5F5F5"/>
<ellipse cx="8.17159" cy="7.2833" rx="1.3298" ry="1.15" fill="#B0DFF5"/>
<ellipse cx="13.111" cy="7.2833" rx="1.3298" ry="1.15" fill="#B0DFF5"/>
<path d="M10.6407 10.7333C11.6665 10.7333 11.8261 10.0318 11.8223 9.58328C11.8223 9.37158 11.6522 9.19995 11.4423 9.19995H9.83899C9.62916 9.19995 9.45905 9.37158 9.45905 9.58328C9.45525 10.0318 9.61483 10.7333 10.6407 10.7333Z" fill="#B0DFF5"/>
<path fill-rule="evenodd" clip-rule="evenodd" d="M17.8602 0H2.28254C1.02353 0 0.00289218 1.02974 0.00289218 2.3V19.1666C-0.000964058 19.242 -0.000964058 19.3175 0.00289218 19.3928C0.151695 20.5892 1.16737 21.4819 2.36233 21.4666H3.80231V22.2333C3.80123 22.5083 3.94621 22.7628 4.18226 22.9003C4.29806 22.9665 4.42908 23.0009 4.5622 23C4.69652 22.9985 4.8279 22.9601 4.94214 22.8888L6.08197 22.2065L7.22179 22.8888C7.45561 23.025 7.74351 23.0258 7.97808 22.8909C8.21265 22.7561 8.35865 22.5057 8.36162 22.2333V21.4666H17.8602C18.4897 21.4666 19 20.9518 19 20.3166V1.15C19 0.514872 18.4897 0 17.8602 0ZM7.60173 22.2333L6.46191 21.5471C6.22108 21.4012 5.92006 21.4012 5.67923 21.5471L4.5622 22.2333V19.55H7.60173V22.2333ZM9.50145 19.55H8.36162V20.7H16.3404C15.8338 19.7416 15.8338 18.5916 16.3404 17.6333H2.28255C1.4432 17.6333 0.762777 18.3198 0.762777 19.1666V19.3085C0.865471 20.1164 1.55516 20.7164 2.36233 20.7H3.80231V19.55H3.04243C2.83259 19.55 2.66249 19.3784 2.66249 19.1666C2.66249 18.9549 2.83259 18.7833 3.04243 18.7833H9.50145C9.71128 18.7833 9.88139 18.9549 9.88139 19.1666C9.88139 19.3784 9.71128 19.55 9.50145 19.55ZM17.8602 20.7H17.4802C17.1231 20.7 16.7203 20.0445 16.7203 19.1666C16.7203 18.2888 17.1231 17.6333 17.4802 17.6333H17.8602C17.9936 17.6331 18.1247 17.5974 18.2401 17.5298V20.3166C18.2401 20.5284 18.07 20.7 17.8602 20.7ZM3.04243 16.8667H17.8602C18.0907 16.6785 18.2292 16.3989 18.2401 16.1V1.15C18.2401 0.93829 18.07 0.766666 17.8602 0.766666H3.04243V1.15C3.04243 1.36171 2.87232 1.53333 2.66249 1.53333C2.45265 1.53333 2.28254 1.36171 2.28254 1.15V0.766666C1.4432 0.766666 0.762777 1.45316 0.762777 2.3V17.457C1.18005 17.0781 1.72119 16.8679 2.28254 16.8667V16.4833C2.28254 16.2716 2.45265 16.1 2.66249 16.1C2.87232 16.1 3.04243 16.2716 3.04243 16.4833V16.8667Z" fill="black"/>
<path d="M2.66315 2.30005C2.45331 2.30005 2.2832 2.47167 2.2832 2.68338V3.45005C2.2832 3.66176 2.45331 3.83338 2.66315 3.83338C2.87298 3.83338 3.04309 3.66176 3.04309 3.45005V2.68338C3.04309 2.47167 2.87298 2.30005 2.66315 2.30005Z" fill="black"/>
<path d="M2.66315 4.6001C2.45331 4.6001 2.2832 4.77172 2.2832 4.98343V5.7501C2.2832 5.96181 2.45331 6.13343 2.66315 6.13343C2.87298 6.13343 3.04309 5.96181 3.04309 5.7501V4.98343C3.04309 4.77172 2.87298 4.6001 2.66315 4.6001Z" fill="black"/>
<path d="M2.66315 6.8999C2.45331 6.8999 2.2832 7.07153 2.2832 7.28324V8.0499C2.2832 8.26161 2.45331 8.43323 2.66315 8.43323C2.87298 8.43323 3.04309 8.26161 3.04309 8.0499V7.28324C3.04309 7.07153 2.87298 6.8999 2.66315 6.8999Z" fill="black"/>
<path d="M2.66315 9.19995C2.45331 9.19995 2.2832 9.37158 2.2832 9.58328V10.35C2.2832 10.5617 2.45331 10.7333 2.66315 10.7333C2.87298 10.7333 3.04309 10.5617 3.04309 10.35V9.58328C3.04309 9.37158 2.87298 9.19995 2.66315 9.19995Z" fill="black"/>
<path d="M2.66315 11.5C2.45331 11.5 2.2832 11.6716 2.2832 11.8833V12.65C2.2832 12.8617 2.45331 13.0333 2.66315 13.0333C2.87298 13.0333 3.04309 12.8617 3.04309 12.65V11.8833C3.04309 11.6716 2.87298 11.5 2.66315 11.5Z" fill="black"/>
<path d="M2.66315 13.8C2.45331 13.8 2.2832 13.9717 2.2832 14.1834V14.95C2.2832 15.1618 2.45331 15.3334 2.66315 15.3334C2.87298 15.3334 3.04309 15.1618 3.04309 14.95V14.1834C3.04309 13.9717 2.87298 13.8 2.66315 13.8Z" fill="black"/>
<path fill-rule="evenodd" clip-rule="evenodd" d="M9.12181 2.68335H12.1613C14.6794 2.68335 16.7206 4.74284 16.7206 7.28335V9.96668C16.7209 10.8002 16.061 11.4813 15.2351 11.5H15.2009C15.0999 11.4994 15.0028 11.5394 14.9311 11.6112C14.86 11.6835 14.8204 11.7815 14.8209 11.8833V12.65C14.8209 13.4968 14.1405 14.1833 13.3012 14.1833H7.98198C7.14263 14.1833 6.46221 13.4968 6.46221 12.65V11.8833C6.46221 11.6716 6.2921 11.5 6.08227 11.5C5.24292 11.5 4.5625 10.8135 4.5625 9.96668V7.28335C4.5625 4.74284 6.60377 2.68335 9.12181 2.68335ZM15.2009 10.7333C15.6206 10.7333 15.9608 10.3901 15.9608 9.96668V7.28335C15.9608 5.16626 14.2597 3.45002 12.1613 3.45002H9.12181C7.02344 3.45002 5.32238 5.16626 5.32238 7.28335V9.96668C5.32238 10.3901 5.6626 10.7333 6.08227 10.7333C6.71178 10.7333 7.22209 11.2482 7.22209 11.8833V12.65C7.22209 13.0734 7.56231 13.4167 7.98198 13.4167V11.8833C7.98198 11.6716 8.15208 11.5 8.36192 11.5C8.57176 11.5 8.74186 11.6716 8.74186 11.8833V13.4167H9.50175V11.8833C9.50175 11.6716 9.67185 11.5 9.88169 11.5C10.0915 11.5 10.2616 11.6716 10.2616 11.8833V13.4167H11.0215V11.8833C11.0215 11.6716 11.1916 11.5 11.4015 11.5C11.6113 11.5 11.7814 11.6716 11.7814 11.8833V13.4167H12.5413V11.8833C12.5413 11.6716 12.7114 11.5 12.9212 11.5C13.1311 11.5 13.3012 11.6716 13.3012 11.8833V13.4167C13.7208 13.4167 14.0611 13.0734 14.0611 12.65V11.8833C14.0608 11.2614 14.5506 10.752 15.1667 10.7333H15.2009Z" fill="black"/>
<path fill-rule="evenodd" clip-rule="evenodd" d="M8.17068 5.74991C9.06154 5.6997 9.82539 6.38474 9.88042 7.28324C9.82539 8.18174 9.06154 8.86677 8.17068 8.81657C7.27981 8.86677 6.51597 8.18174 6.46094 7.28324C6.51597 6.38474 7.27981 5.6997 8.17068 5.74991ZM7.22082 7.28324C7.28026 7.75567 7.7008 8.09511 8.17068 8.0499C8.64056 8.09511 9.0611 7.75567 9.12053 7.28324C9.0611 6.81081 8.64056 6.47137 8.17068 6.51657C7.7008 6.47137 7.28026 6.81081 7.22082 7.28324Z" fill="black"/>
<path fill-rule="evenodd" clip-rule="evenodd" d="M11.4004 7.28324C11.4554 6.38474 12.2193 5.6997 13.1101 5.74991C14.001 5.6997 14.7648 6.38474 14.8199 7.28324C14.7648 8.18174 14.001 8.86677 13.1101 8.81657C12.2193 8.86677 11.4554 8.18174 11.4004 7.28324ZM12.1603 7.28324C12.2197 7.75567 12.6402 8.09511 13.1101 8.0499C13.58 8.09511 14.0005 7.75567 14.06 7.28324C14.0005 6.81081 13.58 6.47137 13.1101 6.51657C12.6402 6.47137 12.2197 6.81081 12.1603 7.28324Z" fill="black"/>
<path fill-rule="evenodd" clip-rule="evenodd" d="M9.84016 8.81665H11.4435C11.8528 8.82696 12.1804 9.16259 12.1844 9.57565C12.2113 9.98502 12.0744 10.3882 11.8045 10.695C11.4906 10.9904 11.0703 11.1429 10.6418 11.1166C10.2145 11.1449 9.7943 10.9953 9.47921 10.7026C9.20236 10.3989 9.05855 9.99539 9.08027 9.58332C9.08027 9.1599 9.42048 8.81665 9.84016 8.81665ZM10.6418 10.35C10.8664 10.3707 11.0901 10.3019 11.2649 10.1583C11.396 9.9972 11.46 9.79108 11.4435 9.58332H9.84016C9.82365 9.79108 9.88767 9.9972 10.0187 10.1583C10.1936 10.3019 10.4173 10.3707 10.6418 10.35Z" fill="black"/>
</svg>
