<svg width="19" height="23" viewBox="0 0 19 23" fill="none" xmlns="http://www.w3.org/2000/svg">
<path d="M18.62 1.14997V16.1C18.62 16.5216 18.2781 17.2499 17.8602 17.2499H2.28252C1.23334 17.2499 0.382812 18.1081 0.382812 19.1666V2.29997C0.382812 1.24142 1.23334 0.383301 2.28252 0.383301H17.8602C18.2798 0.383301 18.62 0.726549 18.62 1.14997Z" fill="#FABCFF"/>
<path d="M17.8605 0.383301H16.7207C17.1404 0.383301 17.4806 0.726549 17.4806 1.14997V16.1C17.4806 16.5216 17.1386 17.2499 16.7207 17.2499H17.8605C18.2785 17.2499 18.6204 16.5216 18.6204 16.1V1.14997C18.6204 0.726549 18.2802 0.383301 17.8605 0.383301Z" fill="#D7A2DC"/>
<path d="M17.481 21.0833H7.98249V19.1667H4.18306V21.0833H2.36314C1.36208 21.1029 0.507882 20.3569 0.383643 19.3545C0.379931 19.2919 0.379931 19.2292 0.383643 19.1667C0.383643 18.1081 1.23417 17.25 2.28335 17.25H17.481C16.8503 17.25 16.3412 18.1087 16.3412 19.1667C16.3412 20.2247 16.8503 21.0833 17.481 21.0833Z" fill="#F5F5F5"/>
<path d="M18.6215 16.0999V20.3165C18.6215 20.7399 18.2812 21.0832 17.8616 21.0832H17.4816C16.8509 21.0832 16.3418 20.2245 16.3418 19.1665C16.3418 18.1085 16.8509 17.2499 17.4816 17.2499H17.8616C18.2795 17.2499 18.6215 16.5215 18.6215 16.0999Z" fill="#FABCFF"/>
<path d="M17.8614 17.2499H17.4815V20.3165C17.4785 20.5874 17.3341 20.8366 17.1016 20.972C17.2167 21.0413 17.3475 21.0796 17.4815 21.0832H17.8614C18.2811 21.0832 18.6213 20.7399 18.6213 20.3165V16.0999C18.6213 16.5215 18.2794 17.2499 17.8614 17.2499Z" fill="#FABCFF"/>
<path d="M7.98301 19.1665V22.2332C7.98299 22.3709 7.90973 22.498 7.79111 22.5662C7.67248 22.6344 7.52673 22.6331 7.4093 22.5628L6.26948 21.8767C6.15192 21.8082 6.00709 21.8082 5.88953 21.8767L4.74971 22.5628C4.63275 22.6292 4.48979 22.6284 4.37358 22.5607C4.25738 22.493 4.18516 22.3685 4.18359 22.2332V19.1665L7.98301 19.1665Z" fill="#EA00FF"/>
<path d="M9.88276 11.1972L16.5241 7.13385C16.6395 7.06482 16.7103 6.93952 16.7103 6.80418V3.06668C16.7103 2.85497 16.5402 2.68335 16.3304 2.68335H12.6373C12.5032 2.68337 12.379 2.75476 12.3106 2.87118L8.2832 9.58334L9.88276 11.1972Z" fill="#7F8E94"/>
<rect width="6.10534" height="2.2895" rx="0.762234" transform="matrix(0.703958 0.710241 -0.703958 0.710241 6.93945 8.21704)" fill="#A0522D"/>
<path d="M6.67383 11.1917L8.28554 12.8177L6.40521 14.7149C6.1085 15.0142 5.62744 15.0142 5.33073 14.7149L4.79349 14.1728C4.49679 13.8735 4.49679 13.3881 4.79349 13.0888L6.67383 11.1917Z" fill="#825A2C"/>
<path fill-rule="evenodd" clip-rule="evenodd" d="M17.8602 0H2.28255C1.02353 0 0.00289218 1.02974 0.00289218 2.3V19.1666C-0.000964059 19.242 -0.000964059 19.3175 0.00289218 19.3928C0.151695 20.5892 1.16737 21.4819 2.36233 21.4666H3.80231V22.2333C3.80123 22.5083 3.94621 22.7628 4.18226 22.9003C4.29806 22.9665 4.42908 23.0009 4.5622 23C4.69652 22.9985 4.8279 22.9601 4.94214 22.8888L6.08197 22.2065L7.22179 22.8888C7.45561 23.025 7.74351 23.0258 7.97808 22.8909C8.21265 22.7561 8.35865 22.5057 8.36162 22.2333V21.4666H17.8602C18.4897 21.4666 19 20.9518 19 20.3166V1.15C19 0.514872 18.4897 0 17.8602 0ZM7.60174 22.2333L6.46191 21.5471C6.22108 21.4012 5.92006 21.4012 5.67923 21.5471L4.5622 22.2333V19.55H7.60174V22.2333ZM9.50145 19.55H8.36162V20.7H16.3404C15.8338 19.7416 15.8338 18.5916 16.3404 17.6333H2.28255C1.4432 17.6333 0.762777 18.3198 0.762777 19.1666V19.3085C0.865471 20.1164 1.55516 20.7164 2.36233 20.7H3.80231V19.55H3.04243C2.83259 19.55 2.66249 19.3784 2.66249 19.1666C2.66249 18.9549 2.83259 18.7833 3.04243 18.7833H9.50145C9.71128 18.7833 9.88139 18.9549 9.88139 19.1666C9.88139 19.3784 9.71128 19.55 9.50145 19.55ZM17.8602 20.7H17.4802C17.1231 20.7 16.7203 20.0445 16.7203 19.1666C16.7203 18.2888 17.1231 17.6333 17.4802 17.6333H17.8602C17.9936 17.6331 18.1247 17.5974 18.2401 17.5298V20.3166C18.2401 20.5284 18.07 20.7 17.8602 20.7ZM3.04243 16.8667H17.8602C18.0907 16.6785 18.2292 16.3989 18.2401 16.1V1.15C18.2401 0.93829 18.07 0.766666 17.8602 0.766666H3.04243V1.15C3.04243 1.36171 2.87232 1.53333 2.66249 1.53333C2.45265 1.53333 2.28254 1.36171 2.28254 1.15V0.766666C1.4432 0.766666 0.762777 1.45316 0.762777 2.3V17.457C1.18005 17.0781 1.72119 16.8679 2.28254 16.8667V16.4833C2.28254 16.2716 2.45265 16.1 2.66249 16.1C2.87232 16.1 3.04243 16.2716 3.04243 16.4833V16.8667Z" fill="black"/>
<path d="M2.66315 2.30005C2.45331 2.30005 2.2832 2.47167 2.2832 2.68338V3.45005C2.2832 3.66176 2.45331 3.83338 2.66315 3.83338C2.87298 3.83338 3.04309 3.66176 3.04309 3.45005V2.68338C3.04309 2.47167 2.87298 2.30005 2.66315 2.30005Z" fill="black"/>
<path d="M2.66315 4.6001C2.45331 4.6001 2.2832 4.77172 2.2832 4.98343V5.7501C2.2832 5.96181 2.45331 6.13343 2.66315 6.13343C2.87298 6.13343 3.04309 5.96181 3.04309 5.7501V4.98343C3.04309 4.77172 2.87298 4.6001 2.66315 4.6001Z" fill="black"/>
<path d="M2.66315 6.8999C2.45331 6.8999 2.2832 7.07153 2.2832 7.28324V8.0499C2.2832 8.26161 2.45331 8.43323 2.66315 8.43323C2.87298 8.43323 3.04309 8.26161 3.04309 8.0499V7.28324C3.04309 7.07153 2.87298 6.8999 2.66315 6.8999Z" fill="black"/>
<path d="M2.66315 9.19995C2.45331 9.19995 2.2832 9.37158 2.2832 9.58328V10.35C2.2832 10.5617 2.45331 10.7333 2.66315 10.7333C2.87298 10.7333 3.04309 10.5617 3.04309 10.35V9.58328C3.04309 9.37158 2.87298 9.19995 2.66315 9.19995Z" fill="black"/>
<path d="M2.66315 11.5C2.45331 11.5 2.2832 11.6716 2.2832 11.8833V12.65C2.2832 12.8617 2.45331 13.0333 2.66315 13.0333C2.87298 13.0333 3.04309 12.8617 3.04309 12.65V11.8833C3.04309 11.6716 2.87298 11.5 2.66315 11.5Z" fill="black"/>
<path d="M2.66315 13.8C2.45331 13.8 2.2832 13.9717 2.2832 14.1834V14.95C2.2832 15.1618 2.45331 15.3334 2.66315 15.3334C2.87298 15.3334 3.04309 15.1618 3.04309 14.95V14.1834C3.04309 13.9717 2.87298 13.8 2.66315 13.8Z" fill="black"/>
<path fill-rule="evenodd" clip-rule="evenodd" d="M12.6364 2.30005H16.3408C16.7605 2.30005 17.1007 2.6433 17.1007 3.06671V6.80421C17.0978 7.07509 16.9533 7.32428 16.7208 7.45971L10.5049 11.2739L10.9685 11.7415C11.4129 12.1905 11.4129 12.9179 10.9685 13.3669L10.4289 13.9074C9.98393 14.3558 9.26301 14.3558 8.81799 13.9074L8.28227 13.3669L6.66752 14.9922C6.2225 15.4406 5.50158 15.4406 5.05656 14.9922L4.52085 14.4517C4.07638 14.0027 4.07638 13.2754 4.52085 12.8264L6.1318 11.1972L5.59608 10.6567C5.15162 10.2077 5.15162 9.48036 5.59608 9.03138L6.1318 8.48704C6.57682 8.03861 7.29774 8.03861 7.74276 8.48704L8.20629 8.95471L11.9867 2.68338C12.1209 2.44877 12.3679 2.30305 12.6364 2.30005ZM6.1318 14.4517L7.74276 12.8264L7.22223 12.2667L6.66752 11.7415L5.05656 13.3669C4.90925 13.5164 4.90925 13.7579 5.05656 13.9074L5.59608 14.4517C5.74427 14.6003 5.98361 14.6003 6.1318 14.4517ZM10.4289 12.8264L9.88183 13.3669C9.73364 13.5155 9.4943 13.5155 9.34611 13.3669L6.1204 10.1124C5.97309 9.96286 5.97309 9.72139 6.1204 9.57188L6.65612 9.03138C6.7272 8.95822 6.82434 8.9168 6.92588 8.91638C7.02742 8.9168 7.12456 8.95822 7.19564 9.03138L10.4289 12.2667C10.5009 12.3387 10.5413 12.4367 10.5413 12.5389C10.5413 12.6411 10.5009 12.7391 10.4289 12.811V12.8264ZM9.95022 10.7334L16.3408 6.80421V3.06672H12.6364L8.761 9.53354L9.95022 10.7334Z" fill="black"/>
<path d="M10.1632 9.2996C10.3114 9.44823 10.5507 9.44823 10.6989 9.2996L14.9961 4.98327C15.1434 4.83375 15.1434 4.59228 14.9961 4.44277C14.8479 4.29414 14.6086 4.29414 14.4604 4.44277L10.1632 8.7591C10.0159 8.90861 10.0159 9.15008 10.1632 9.2996V9.2996Z" fill="black"/>
</svg>
