<svg width="21" height="24" viewBox="0 0 21 24" fill="none" xmlns="http://www.w3.org/2000/svg">
<path d="M19.6043 1.1999V16.7999C19.6043 17.2399 19.2443 17.9999 18.8043 17.9999H2.4043C1.29973 17.9999 0.404297 18.8953 0.404297 19.9999V2.3999C0.404297 1.29533 1.29973 0.399902 2.4043 0.399902H18.8043C19.2461 0.399902 19.6043 0.758074 19.6043 1.1999Z" fill="#3F538B"/>
<path d="M6.67341 10.4938C6.47939 10.3911 6.24106 10.4269 6.08585 10.5822C5.93063 10.7374 5.89485 10.9758 5.99764 11.1698C6.8884 12.8509 8.6574 13.9982 10.6951 13.9982C13.629 13.9982 16.0075 11.6193 16.0075 8.68544C16.0075 6.64816 14.8606 4.87911 13.179 3.98834C12.985 3.88556 12.7466 3.92139 12.5914 4.07666C12.4361 4.23194 12.4004 4.47032 12.5032 4.66432C12.8217 5.26535 13.0021 5.9511 13.0021 6.68006C13.0021 9.06222 11.0715 10.9929 8.6897 10.9929C7.96051 10.9929 7.27467 10.8121 6.67341 10.4938Z" stroke="#30234A" stroke-linejoin="round"/>
<path fill-rule="evenodd" clip-rule="evenodd" d="M12.945 4.43018C14.4694 5.23769 15.5075 6.8405 15.5075 8.68544C15.5075 11.3432 13.3528 13.4982 10.6951 13.4982C8.84978 13.4982 7.24697 12.4597 6.43945 10.9357C7.11095 11.2912 7.8769 11.4929 8.6897 11.4929C11.3476 11.4929 13.5021 9.33834 13.5021 6.68006C13.5021 5.86762 13.3009 5.10168 12.945 4.43018Z" fill="#F1DD1D"/>
<mask id="mask0_2355_4421" style="mask-type:luminance" maskUnits="userSpaceOnUse" x="6" y="4" width="10" height="10">
<path fill-rule="evenodd" clip-rule="evenodd" d="M12.945 4.43018C14.4694 5.23769 15.5075 6.8405 15.5075 8.68544C15.5075 11.3432 13.3528 13.4982 10.6951 13.4982C8.84978 13.4982 7.24697 12.4597 6.43945 10.9357C7.11095 11.2912 7.8769 11.4929 8.6897 11.4929C11.3476 11.4929 13.5021 9.33834 13.5021 6.68006C13.5021 5.86762 13.3009 5.10168 12.945 4.43018Z" fill="white"/>
</mask>
<g mask="url(#mask0_2355_4421)">
</g>
<path d="M18.8035 0.399902H17.6035C18.0453 0.399902 18.4035 0.758074 18.4035 1.1999V16.7999C18.4035 17.2399 18.0435 17.9999 17.6035 17.9999H18.8035C19.2435 17.9999 19.6035 17.2399 19.6035 16.7999V1.1999C19.6035 0.758074 19.2453 0.399902 18.8035 0.399902Z" fill="#3F538B"/>
<path d="M18.4033 22H8.40332V20H4.40332V22H2.48732C1.43341 22.0204 0.534119 21.242 0.403321 20.196C0.399414 20.1307 0.399414 20.0653 0.403321 20C0.403321 18.8954 1.29875 18 2.40332 18H18.4033C17.7393 18 17.2033 18.896 17.2033 20C17.2033 21.104 17.7393 22 18.4033 22Z" fill="#F5F5F5"/>
<path d="M19.6031 16.7998V21.1998C19.6031 21.6416 19.245 21.9998 18.8031 21.9998H18.4031C17.7391 21.9998 17.2031 21.1038 17.2031 19.9998C17.2031 18.8958 17.7391 17.9998 18.4031 17.9998H18.8031C19.2431 17.9998 19.6031 17.2398 19.6031 16.7998Z" fill="#2E3D69"/>
<path d="M18.8039 17.9998H18.4039V21.1998C18.4008 21.4825 18.2487 21.7425 18.0039 21.8838C18.1251 21.9561 18.2628 21.996 18.4039 21.9998H18.8039C19.2457 21.9998 19.6039 21.6416 19.6039 21.1998V16.7998C19.6039 17.2398 19.2439 17.9998 18.8039 17.9998Z" fill="#2F3F6B"/>
<path d="M8.40234 20V23.2C8.40232 23.3437 8.32519 23.4764 8.2003 23.5475C8.07541 23.6186 7.92197 23.6173 7.79834 23.544L6.59834 22.828C6.47458 22.7565 6.3221 22.7565 6.19834 22.828L4.99834 23.544C4.87521 23.6132 4.7247 23.6124 4.60236 23.5418C4.48002 23.4711 4.40399 23.3412 4.40234 23.2V20L8.40234 20Z" fill="#3F538B"/>
<path fill-rule="evenodd" clip-rule="evenodd" d="M18.803 0H2.40304C1.07756 0 0.00304486 1.07452 0.00304486 2.4V20C-0.00101495 20.0786 -0.00101495 20.1574 0.00304486 20.236C0.159704 21.4843 1.229 22.4159 2.48704 22.4H4.00304V23.2C4.0019 23.4869 4.15453 23.7525 4.40304 23.896C4.52496 23.9651 4.6629 24.0009 4.80304 24C4.94445 23.9985 5.08277 23.9584 5.20304 23.884L6.40304 23.172L7.60304 23.884C7.8492 24.0261 8.1523 24.027 8.39925 23.8862C8.6462 23.7454 8.79991 23.4842 8.80304 23.2V22.4H18.803C19.4658 22.4 20.003 21.8627 20.003 21.2V1.2C20.003 0.537258 19.4658 0 18.803 0ZM8.00304 23.2L6.80304 22.484C6.54949 22.3317 6.23259 22.3317 5.97904 22.484L4.80304 23.2V20.4H8.00304V23.2ZM10.003 20.4H8.80304V21.6H17.203C16.6697 20.6 16.6697 19.4 17.203 18.4H2.40304C1.51939 18.4 0.803044 19.1163 0.803044 20V20.148C0.91116 20.991 1.63726 21.6171 2.48704 21.6H4.00304V20.4H3.20304C2.98213 20.4 2.80304 20.2209 2.80304 20C2.80304 19.7791 2.98213 19.6 3.20304 19.6H10.003C10.224 19.6 10.403 19.7791 10.403 20C10.403 20.2209 10.224 20.4 10.003 20.4ZM18.803 21.6H18.403C18.027 21.6 17.603 20.916 17.603 20C17.603 19.084 18.027 18.4 18.403 18.4H18.803C18.9435 18.3997 19.0815 18.3625 19.203 18.292V21.2C19.203 21.4209 19.0239 21.6 18.803 21.6ZM3.20304 17.6H18.803C19.0457 17.4037 19.1916 17.1119 19.203 16.8V1.2C19.203 0.979085 19.0239 0.799999 18.803 0.799999H3.20304V1.2C3.20304 1.42091 3.02396 1.6 2.80304 1.6C2.58213 1.6 2.40304 1.42091 2.40304 1.2V0.799999C1.51939 0.799999 0.803044 1.51634 0.803044 2.4V18.216C1.24234 17.8207 1.81206 17.6013 2.40304 17.6V17.2C2.40304 16.9791 2.58213 16.8 2.80304 16.8C3.02396 16.8 3.20304 16.9791 3.20304 17.2V17.6Z" fill="#30234A"/>
<path d="M2.80234 2.3999C2.58143 2.3999 2.40234 2.57899 2.40234 2.7999V3.5999C2.40234 3.82081 2.58143 3.9999 2.80234 3.9999C3.02326 3.9999 3.20234 3.82081 3.20234 3.5999V2.7999C3.20234 2.57899 3.02326 2.3999 2.80234 2.3999Z" fill="#30234A"/>
<path d="M2.80234 4.80005C2.58143 4.80005 2.40234 4.97913 2.40234 5.20005V6.00005C2.40234 6.22096 2.58143 6.40005 2.80234 6.40005C3.02326 6.40005 3.20234 6.22096 3.20234 6.00005V5.20005C3.20234 4.97913 3.02326 4.80005 2.80234 4.80005Z" fill="#30234A"/>
<path d="M2.80234 7.19995C2.58143 7.19995 2.40234 7.37904 2.40234 7.59995V8.39995C2.40234 8.62086 2.58143 8.79995 2.80234 8.79995C3.02326 8.79995 3.20234 8.62086 3.20234 8.39995V7.59995C3.20234 7.37904 3.02326 7.19995 2.80234 7.19995Z" fill="#30234A"/>
<path d="M2.80234 9.6001C2.58143 9.6001 2.40234 9.77918 2.40234 10.0001V10.8001C2.40234 11.021 2.58143 11.2001 2.80234 11.2001C3.02326 11.2001 3.20234 11.021 3.20234 10.8001V10.0001C3.20234 9.77918 3.02326 9.6001 2.80234 9.6001Z" fill="#30234A"/>
<path d="M2.80234 12C2.58143 12 2.40234 12.1791 2.40234 12.4V13.2C2.40234 13.4209 2.58143 13.6 2.80234 13.6C3.02326 13.6 3.20234 13.4209 3.20234 13.2V12.4C3.20234 12.1791 3.02326 12 2.80234 12Z" fill="#30234A"/>
<path d="M2.80234 14.3999C2.58143 14.3999 2.40234 14.579 2.40234 14.7999V15.5999C2.40234 15.8208 2.58143 15.9999 2.80234 15.9999C3.02326 15.9999 3.20234 15.8208 3.20234 15.5999V14.7999C3.20234 14.579 3.02326 14.3999 2.80234 14.3999Z" fill="#30234A"/>
</svg>
