<svg width="62" height="62" viewBox="0 0 62 62" fill="none" xmlns="http://www.w3.org/2000/svg">
<g clip-path="url(#clip0_2723_4617)">
<ellipse cx="31.1293" cy="30.68" rx="30.38" ry="30.2684" fill="#FFF792"/>
<path d="M25.397 41.5078C25.7874 41.1698 26.132 40.8385 26.4306 40.514C26.7381 40.1864 26.9933 39.8579 27.1963 39.5287C27.3653 39.2609 27.4893 38.9603 27.5683 38.6267C27.654 38.2809 27.6724 37.9299 27.6234 37.5738C27.5744 37.2177 27.4469 36.8704 27.2407 36.5318C27.0434 36.19 26.7475 35.874 26.3531 35.5839C25.9647 35.3211 25.5961 35.1495 25.2473 35.0691C24.8985 34.9888 24.5679 34.9706 24.2557 35.0148C23.9414 35.0498 23.6512 35.1302 23.3851 35.256C23.117 35.3727 22.8694 35.4967 22.6424 35.628C22.3423 35.8153 22.0545 36.0375 21.779 36.2946C21.5123 36.5485 21.2672 36.8143 21.0435 37.092C20.8199 37.3696 20.6211 37.6531 20.4473 37.9422C20.2735 38.2314 20.1372 38.4971 20.0384 38.7395C19.8756 39.123 19.9839 39.4036 20.3633 39.5811C20.549 39.6516 20.7659 39.6912 21.0139 39.6998C21.2619 39.7085 21.5118 39.682 21.7634 39.6204C22.0151 39.5589 22.2555 39.467 22.4845 39.3448C22.7116 39.2134 22.898 39.0476 23.0438 38.8473C23.1576 38.7175 23.2724 38.5924 23.3882 38.4718C23.5108 38.3389 23.6353 38.2151 23.7619 38.1005C23.8865 37.9767 24.0062 37.8743 24.1212 37.7934C24.2341 37.7033 24.3433 37.6392 24.4486 37.6011C24.6065 37.544 24.7272 37.5544 24.8104 37.6325C24.9454 37.7312 24.9797 37.9107 24.9132 38.1708C24.8447 38.4219 24.6636 38.7432 24.3701 39.1347C24.0745 39.5171 23.661 39.9668 23.1296 40.4837C22.6051 40.9883 21.939 41.5392 21.1316 42.1363C20.8083 42.391 20.8112 42.6655 21.1402 42.9596C21.5074 43.2989 21.9078 43.5082 22.3416 43.5873C22.7841 43.6633 23.2056 43.5993 23.6062 43.3953C23.9211 43.2322 24.177 43.1249 24.374 43.0732C24.5799 43.0184 24.7864 43.0323 24.9936 43.1147C25.0885 43.159 25.1717 43.2371 25.2434 43.349C25.3238 43.4576 25.373 43.5972 25.3912 43.7677C25.4181 43.935 25.4118 44.1242 25.3725 44.3352C25.3332 44.5462 25.2499 44.773 25.1228 45.0158C24.9869 45.2617 24.83 45.4759 24.6519 45.6584C24.4718 45.8318 24.2565 45.9736 24.006 46.0839C23.7622 46.182 23.4788 46.2501 23.1558 46.2883C22.8395 46.3142 22.4719 46.2996 22.0529 46.2447C21.7619 46.2122 21.4422 46.2443 21.094 46.3408C20.7526 46.425 20.4646 46.6029 20.2302 46.8747C20.1612 46.9489 20.1116 47.0258 20.0816 47.1055C20.0496 47.1761 20.0513 47.2493 20.0867 47.325C20.1133 47.4039 20.1878 47.4852 20.3101 47.5688C20.4216 47.6465 20.5908 47.728 20.8176 47.8131C21.5557 48.1167 22.2483 48.2546 22.8955 48.227C23.5427 48.1994 24.1428 48.0856 24.6957 47.8855C25.4242 47.6219 26.0596 47.2789 26.602 46.8563C27.1445 46.4338 27.5902 45.8495 27.9392 45.1034C28.0856 44.775 28.1787 44.4412 28.2186 44.1022C28.2586 43.7631 28.2316 43.4433 28.1379 43.1427C28.053 42.8389 27.8934 42.5622 27.6593 42.3124C27.4339 42.0595 27.1228 41.8475 26.7258 41.6763C26.5166 41.5847 26.3021 41.5345 26.0824 41.5254C25.8695 41.5041 25.6411 41.4982 25.397 41.5078Z" fill="#221837"/>
<path d="M35.9724 37.7402C36.035 36.8519 36.0966 36.0032 36.1575 35.1941C36.2183 34.3851 36.2828 33.6584 36.351 33.0139C36.3961 32.7419 36.3784 32.5515 36.2979 32.4429C36.2156 32.3251 36.0424 32.2255 35.7786 32.1439C35.6291 32.1094 35.4273 32.0742 35.1734 32.0382C34.9175 31.9931 34.6527 31.9511 34.3792 31.9124C34.1145 31.8704 33.8572 31.8406 33.6072 31.8228C33.3552 31.7959 33.1575 31.779 33.0139 31.7719C32.7435 31.791 32.5367 31.8412 32.3935 31.9226C32.2502 32.0039 32.0921 32.1694 31.9191 32.4189C31.7026 32.7727 31.4764 33.1693 31.2406 33.6088C31.0047 34.0483 30.7651 34.5138 30.5216 35.0052C30.2762 35.4875 30.0381 35.9819 29.8074 36.4884C29.5767 36.9949 29.3581 37.4921 29.1518 37.98C28.9454 38.4678 28.7624 38.9325 28.6027 39.3739C28.4343 39.8185 28.2994 40.2215 28.1981 40.5828C28.1208 40.837 28.1097 41.0476 28.165 41.2146C28.2094 41.3756 28.3129 41.525 28.4754 41.663C28.6965 41.8092 28.9318 41.9553 29.1812 42.1011C29.4287 42.2379 29.6756 42.3502 29.9219 42.4382C30.1438 42.5447 30.3348 42.574 30.4948 42.526C30.6635 42.4748 30.8404 42.396 31.0256 42.2896C31.3735 42.1047 31.7312 41.9212 32.0987 41.739C32.4662 41.5569 32.8424 41.3715 33.2275 41.183C33.2451 42.0916 33.2683 42.7865 33.2972 43.268C33.3049 43.521 33.3533 43.7002 33.4425 43.8057C33.5297 43.902 33.6793 43.9807 33.8914 44.0417C34.1062 44.0721 34.3225 44.0873 34.5403 44.0872C34.7687 44.0931 34.9757 44.0871 35.1611 44.0692C35.3904 44.0354 35.5396 43.9814 35.6087 43.9072C35.6886 43.839 35.7316 43.7103 35.7378 43.5211C35.7392 43.0484 35.7516 42.5176 35.7751 41.9286C35.7966 41.3306 35.8257 40.6806 35.8625 39.9787C36.0624 39.8965 36.2623 39.8144 36.4622 39.7322C36.6708 39.6469 36.8795 39.5615 37.0881 39.4762C37.3016 39.3694 37.4321 39.273 37.4796 39.1869C37.534 39.0886 37.5194 38.9561 37.4359 38.7896C37.328 38.6417 37.2417 38.5057 37.1768 38.3816C37.11 38.2484 37.0085 38.108 36.8723 37.9606C36.6625 37.6922 36.3626 37.6187 35.9724 37.7402ZM30.7384 39.9882C30.9188 39.5983 31.1127 39.1839 31.3202 38.7448C31.5257 38.2966 31.741 37.8498 31.966 37.4043C32.1979 36.9466 32.4405 36.4948 32.6939 36.049C32.9453 35.594 33.2006 35.1573 33.4599 34.7388C33.4065 35.4075 33.3701 36.0896 33.3509 36.7852C33.3385 37.4685 33.3119 38.152 33.2711 38.8357C32.8315 39.0341 32.3918 39.2326 31.9521 39.431C31.5105 39.6203 31.1059 39.8061 30.7384 39.9882Z" fill="#221837"/>
<path d="M46.9593 29.5591C47.1688 29.1291 47.2169 28.7625 47.1036 28.4591C46.9971 28.1435 46.7873 27.8751 46.4742 27.6539C46.1404 27.3812 45.8765 27.4521 45.6826 27.8666C45.4964 28.2291 45.2768 28.5692 45.024 28.887C44.778 29.1924 44.525 29.466 44.2651 29.7076C44.0033 29.94 43.7423 30.1329 43.4821 30.286C43.2219 30.4392 42.9845 30.5448 42.7699 30.6028C42.251 30.7413 41.8148 30.6729 41.4615 30.3974C41.1639 30.1608 40.9271 29.9858 40.751 29.8724C40.5653 29.8019 40.3518 29.7561 40.1106 29.7352C39.8674 29.7052 39.5984 29.709 39.3037 29.7468C39.1202 29.7738 38.9204 29.856 38.7041 29.9933C38.4946 30.1183 38.3237 30.2686 38.1915 30.4444C37.9107 30.851 37.6984 31.3115 37.5546 31.8259C37.4175 32.328 37.3513 32.8291 37.3559 33.3291C37.3516 33.8324 37.421 34.3041 37.564 34.7442C37.6962 35.1784 37.8956 35.5293 38.162 35.7969C38.2922 35.917 38.439 36.0262 38.6024 36.1245C38.7638 36.2137 38.9202 36.2801 39.0717 36.3236C39.2602 36.3636 39.4624 36.379 39.6781 36.3698C39.8918 36.3515 40.0958 36.3318 40.29 36.3107C40.8393 36.1808 41.284 35.8969 41.6243 35.459C41.7993 35.2186 41.9302 34.9499 42.0171 34.6528C42.1128 34.3526 42.1738 34.0452 42.2001 33.7307C42.2352 33.413 42.2376 33.0974 42.2073 32.7837C42.1838 32.4577 42.1403 32.1488 42.0769 31.857C42.4733 31.8513 42.8606 31.7603 43.2388 31.5841C43.6238 31.3956 43.9744 31.1359 44.2907 30.8051C43.9184 31.6186 43.5419 32.4779 43.1611 33.383C42.7784 34.279 42.4136 35.1488 42.0669 35.9924C41.7269 36.8237 41.4218 37.5982 41.1518 38.3156C40.8797 39.024 40.6683 39.5973 40.5174 40.0356C40.386 40.4766 40.3846 40.7969 40.5132 40.9963C40.6505 41.1926 40.8682 41.345 41.1663 41.4535C41.3354 41.4907 41.456 41.5012 41.5282 41.4849C41.6111 41.4746 41.6968 41.3895 41.7851 41.2296C41.9196 40.8465 42.1064 40.3559 42.3456 39.7577C42.5936 39.1565 42.8687 38.506 43.1711 37.8063C43.4802 37.0944 43.8063 36.3517 44.1494 35.5782C44.5013 34.8016 44.844 34.048 45.1775 33.3174C45.5197 32.5836 45.8426 31.8913 46.1461 31.2404C46.4583 30.5864 46.7294 30.0259 46.9593 29.5591ZM48.6318 34.5761C48.5746 34.4 48.4833 34.2412 48.3579 34.0997C48.2325 33.9582 48.0705 33.8446 47.8721 33.759C47.7274 33.7032 47.5354 33.6693 47.2962 33.6575C47.0638 33.6334 46.8319 33.6337 46.6006 33.6584C46.4191 33.6945 46.2236 33.7751 46.0141 33.9001C45.8026 34.0159 45.6288 34.1526 45.4926 34.3101C45.2378 34.6187 45.0325 34.9587 44.8765 35.3299C44.7205 35.7012 44.608 36.0764 44.5389 36.4555C44.4786 36.8315 44.4554 37.2039 44.4693 37.5727C44.49 37.9292 44.5506 38.2516 44.6511 38.5398C44.7604 38.8249 44.9076 39.0668 45.0928 39.2654C45.276 39.4549 45.4955 39.5722 45.7515 39.6173C45.9205 39.6546 46.0987 39.6688 46.2861 39.66C46.4804 39.6389 46.677 39.6071 46.876 39.5646C47.3678 39.4752 47.7868 39.2252 48.133 38.8146C48.3119 38.5925 48.4576 38.3479 48.57 38.081C48.6823 37.8141 48.7654 37.543 48.8192 37.2677C48.8798 36.9802 48.913 36.6976 48.919 36.42C48.9229 36.1333 48.9049 35.8545 48.865 35.5837C48.8429 35.3949 48.8096 35.2201 48.7652 35.0591C48.7275 34.8858 48.6831 34.7248 48.6318 34.5761ZM39.8686 30.9738C39.973 30.9753 40.0553 31.0489 40.1153 31.1944C40.1841 31.3367 40.2413 31.5128 40.2869 31.7226C40.3413 31.9292 40.383 32.1649 40.4122 32.4298C40.4414 32.6947 40.4628 32.9673 40.4764 33.2477C40.4883 33.9124 40.4284 34.421 40.2968 34.7736C40.1651 35.1262 39.9992 35.2993 39.7991 35.2931C39.6009 35.2959 39.444 35.0969 39.3285 34.696C39.213 34.2951 39.1522 33.776 39.1463 33.1387C39.1533 32.9099 39.177 32.6702 39.2172 32.4195C39.2642 32.1566 39.3215 31.9194 39.3891 31.708C39.4636 31.4843 39.5426 31.3033 39.6261 31.1648C39.7096 31.0264 39.7904 30.9627 39.8686 30.9738ZM46.982 34.7599C47.0494 34.765 47.1111 34.8312 47.1671 34.9585C47.2232 35.0858 47.2643 35.2529 47.2903 35.4599C47.3232 35.6546 47.339 35.8801 47.3379 36.1363C47.3436 36.3802 47.3287 36.6167 47.2933 36.8459C47.2396 37.4261 47.1351 37.882 46.98 38.2136C46.8336 38.542 46.6745 38.7029 46.5027 38.6962C46.3045 38.6991 46.1765 38.524 46.1188 38.1711C46.0859 37.9764 46.0676 37.7617 46.0639 37.5269C46.069 37.289 46.0921 37.0248 46.1331 36.7345C46.1529 36.5208 46.1903 36.3007 46.2452 36.0742C46.3069 35.8354 46.378 35.6179 46.4584 35.4216C46.5476 35.2221 46.6359 35.0622 46.7234 34.942C46.8176 34.8095 46.9038 34.7488 46.982 34.7599Z" fill="#221837"/>
<path d="M12.0908 27.4473C11.986 27.5604 11.9464 27.6791 11.9722 27.8031C12.0092 27.9162 12.1882 28.0467 12.5093 28.1945C13.1213 28.5076 13.6878 28.6826 14.2087 28.7194C14.7282 28.7496 15.2386 28.6711 15.74 28.4838C16.1167 28.3466 16.431 28.1854 16.6829 28.0004C16.9349 27.8153 17.1418 27.6248 17.3037 27.4289C17.4643 27.2265 17.585 27.0273 17.6659 26.8315C17.7468 26.6356 17.8045 26.4582 17.839 26.2994C17.9005 26.0752 17.8954 25.8881 17.8237 25.738C17.757 25.5792 17.6419 25.4476 17.4784 25.3432C17.3198 25.2301 17.1248 25.1366 16.8934 25.0627C16.6682 24.9866 16.4274 24.916 16.1707 24.8508C15.919 24.7769 15.6635 24.7009 15.4041 24.6226C15.1511 24.5422 14.9149 24.4455 14.6956 24.3324C14.5235 24.252 14.401 24.1334 14.3279 23.9768C14.2549 23.8202 14.2158 23.6483 14.2107 23.4611C14.2056 23.274 14.2289 23.0771 14.2805 22.8703C14.3384 22.6614 14.4085 22.4623 14.4907 22.2729C14.5793 22.0814 14.6744 21.9051 14.776 21.7441C14.8776 21.583 14.9727 21.4557 15.0613 21.3621C15.1634 21.2358 15.241 21.1705 15.2941 21.1661C15.3472 21.1618 15.3858 21.2009 15.4097 21.2836C15.4399 21.3641 15.4566 21.4772 15.4599 21.623C15.4618 21.7623 15.4595 21.9135 15.4528 22.0767C15.4511 22.2312 15.447 22.3901 15.4404 22.5533C15.4387 22.7078 15.4462 22.8416 15.4629 22.9547C15.5124 23.5183 15.9982 23.8086 16.9201 23.8256C17.0773 23.8343 17.1934 23.8081 17.2685 23.7472C17.3436 23.6862 17.4023 23.5785 17.4445 23.424C17.484 23.2564 17.5181 23.0627 17.5467 22.843C17.5753 22.6232 17.5963 22.399 17.6097 22.1706C17.6216 21.9355 17.628 21.706 17.6287 21.4818C17.6294 21.2577 17.621 21.0543 17.6033 20.8715C17.5829 20.7736 17.5588 20.6735 17.5308 20.5712C17.5077 20.4603 17.4683 20.3515 17.4124 20.2449C17.3628 20.1361 17.2911 20.035 17.1974 19.9414C17.1086 19.8392 16.9891 19.7511 16.8386 19.6772C16.6103 19.5532 16.3388 19.4652 16.0241 19.4131C15.7094 19.361 15.3994 19.3318 15.0942 19.3253C14.893 19.3319 14.7035 19.3625 14.5257 19.417C14.3529 19.4627 14.1936 19.5248 14.0478 19.6032C13.9083 19.6794 13.7848 19.7676 13.6772 19.8677C13.5684 19.9613 13.4791 20.0517 13.4094 20.1387C13.2124 20.3607 13.0253 20.6143 12.8481 20.8994C12.671 21.1846 12.5161 21.4795 12.3836 21.7842C12.251 22.0888 12.1418 22.3924 12.0561 22.6949C11.9766 22.9952 11.9316 23.2662 11.921 23.5077C11.8933 23.7971 11.9077 24.0615 11.9641 24.3008C12.0206 24.5402 12.109 24.7545 12.2293 24.9437C12.3483 25.1265 12.4929 25.2864 12.6632 25.4234C12.8384 25.5517 13.026 25.6582 13.2259 25.743C13.4119 25.8256 13.613 25.8995 13.8291 25.9647C14.0515 26.0278 14.2701 26.0886 14.4849 26.1473C14.706 26.2038 14.9138 26.2613 15.1083 26.32C15.3078 26.37 15.4744 26.4243 15.6081 26.483C15.7468 26.533 15.8432 26.5906 15.8973 26.6559C15.9576 26.719 15.9579 26.7854 15.8981 26.855C15.7515 27.0596 15.4695 27.1816 15.0523 27.2209C14.6413 27.258 14.1366 27.2017 13.5382 27.0518C13.4302 27.0192 13.3129 27.0072 13.1864 27.016C13.0648 27.016 12.9404 27.0346 12.813 27.0716C12.678 27.1043 12.5502 27.1555 12.4296 27.2252C12.3076 27.2883 12.1947 27.3624 12.0908 27.4473Z" fill="black" fill-opacity="0.3"/>
<path d="M20.2673 24.4524C20.6237 24.2172 20.9791 23.9614 21.3336 23.6849C21.6931 23.3998 22.0303 23.1048 22.3452 22.8C22.66 22.4953 22.9439 22.1872 23.1966 21.876C23.4557 21.5625 23.6693 21.2578 23.8374 20.9618C23.9413 20.779 24.0318 20.5973 24.1091 20.4166C24.1927 20.2338 24.2529 20.0521 24.2897 19.8715C24.3328 19.6887 24.3454 19.5059 24.3278 19.3231C24.3164 19.1382 24.2676 18.9521 24.1815 18.765C23.9953 18.3887 23.7817 18.0917 23.5407 17.8742C23.3046 17.648 23.0537 17.4479 22.788 17.2739C22.5673 17.1544 22.3235 17.1022 22.0565 17.1176C21.7945 17.1242 21.5193 17.1809 21.2308 17.2876C20.9424 17.3943 20.6487 17.5413 20.35 17.7286C20.0561 17.9071 19.7671 18.1085 19.4827 18.3328C19.197 18.5505 18.9242 18.7812 18.6642 19.025C18.4028 19.2623 18.166 19.4876 17.9536 19.7009C17.8974 19.7554 17.8746 19.9382 17.8852 20.2493C17.9007 20.5518 17.9343 20.9249 17.986 21.3688C18.0376 21.8127 18.0974 22.2957 18.1653 22.818C18.2333 23.3402 18.2978 23.8461 18.359 24.3356C18.4187 24.8187 18.4652 25.2538 18.4984 25.6412C18.5252 26.0306 18.5266 26.3135 18.5024 26.4898C18.4998 26.6726 18.5409 26.8053 18.6256 26.8879C18.704 26.9728 18.8105 27.0304 18.9451 27.0608C19.0784 27.0847 19.2247 27.0901 19.3841 27.077C19.5511 27.0682 19.7212 27.0583 19.8945 27.0474C20.0651 27.0234 20.1754 26.9853 20.2253 26.933C20.2752 26.8808 20.3051 26.797 20.3149 26.6817C20.2962 26.3313 20.2824 25.9723 20.2736 25.6046C20.2711 25.2347 20.269 24.8506 20.2673 24.4524ZM20.2915 22.4712C20.3006 22.0272 20.3099 21.6008 20.3195 21.1917C20.3354 20.7804 20.3572 20.3811 20.3848 19.9938C20.5962 19.8087 20.8068 19.652 21.0165 19.5235C21.2324 19.3929 21.428 19.2938 21.603 19.2263C21.7844 19.1566 21.9365 19.1249 22.0594 19.1314C22.1873 19.1292 22.2688 19.164 22.3039 19.2358C22.3842 19.362 22.4019 19.5447 22.357 19.7841C22.3122 20.0235 22.2064 20.2944 22.0396 20.597C21.8715 20.893 21.6428 21.2064 21.3536 21.5372C21.063 21.8616 20.709 22.1729 20.2915 22.4712Z" fill="black" fill-opacity="0.3"/>
<path d="M29.2042 21.6354C29.2787 21.8965 29.3491 22.138 29.4155 22.3599C29.4805 22.5753 29.5452 22.7733 29.6097 22.9539C29.6729 23.1279 29.7403 23.241 29.8119 23.2932C29.8898 23.3432 30.0091 23.365 30.1698 23.3584C30.3256 23.3605 30.4735 23.3408 30.6134 23.2994C30.7548 23.2646 30.9073 23.2188 31.0711 23.1622C31.235 23.1055 31.3342 23.0468 31.3688 22.9858C31.4097 22.9227 31.418 22.8324 31.3936 22.7149C31.2707 22.1557 31.1415 21.5498 31.0059 20.897C30.8753 20.2356 30.7486 19.5763 30.6256 18.9192C30.5027 18.2621 30.3914 17.6289 30.2919 17.0197C30.1924 16.4105 30.1135 15.8676 30.055 15.3911C30.0346 15.1952 29.9839 15.0484 29.9028 14.9505C29.828 14.8504 29.6854 14.7983 29.4752 14.794C29.3222 14.8049 29.1684 14.8126 29.014 14.817C28.8659 14.8192 28.7027 14.8302 28.5245 14.8498C28.3525 14.8673 28.163 14.8979 27.956 14.9415C27.7476 14.9785 27.5129 15.0352 27.2518 15.1115C26.9503 15.1877 26.7354 15.3075 26.6072 15.4707C26.4791 15.634 26.386 15.8201 26.3281 16.029C26.1651 16.61 26.0013 17.2683 25.8367 18.0039C25.677 18.7307 25.5225 19.4663 25.3731 20.2105C25.2301 20.9526 25.1019 21.6685 24.9885 22.3583C24.8688 23.0503 24.7802 23.6477 24.7225 24.1504C24.7131 24.3005 24.7204 24.4169 24.7444 24.4996C24.7606 24.5779 24.7899 24.6378 24.8323 24.6791C24.8746 24.7204 24.9282 24.7508 24.9931 24.7704C25.0565 24.7834 25.1315 24.803 25.218 24.8291C25.3296 24.8464 25.4406 24.8605 25.5509 24.8714C25.6535 24.8779 25.7492 24.8833 25.8379 24.8876C25.9936 24.8897 26.1041 24.869 26.1694 24.8254C26.2409 24.7797 26.2904 24.6927 26.3177 24.5643C26.3626 24.3249 26.4099 24.0812 26.4597 23.8331C26.5081 23.5785 26.5689 23.3021 26.642 23.004C26.9808 22.7819 27.3766 22.5576 27.8293 22.3311C28.2869 22.0959 28.7453 21.864 29.2042 21.6354ZM27.1144 20.8887C27.2818 20.1662 27.4508 19.4677 27.6213 18.7931C27.7968 18.1097 27.9611 17.4863 28.1142 16.9226C28.21 17.4492 28.3167 17.979 28.4341 18.5121C28.5502 19.0386 28.6701 19.5673 28.7939 20.0982C28.5081 20.218 28.2237 20.3443 27.9406 20.4772C27.6639 20.6078 27.3885 20.745 27.1144 20.8887Z" fill="black" fill-opacity="0.3"/>
<path d="M33.666 19.6205C33.8732 19.7728 34.0993 19.9185 34.3443 20.0576C34.588 20.1903 34.8302 20.3164 35.0712 20.436C35.3121 20.5556 35.5434 20.661 35.7649 20.7523C35.9865 20.8436 36.1805 20.9164 36.3471 20.9708C36.5961 21.0316 36.8039 21.0402 36.9704 20.9966C37.1446 20.9574 37.2969 20.8942 37.4274 20.8071C37.5368 20.7484 37.6279 20.6994 37.7008 20.6602C37.7786 20.6123 37.8648 20.523 37.9592 20.3924C38.0388 20.2879 38.0781 20.2009 38.0772 20.1313C38.0762 20.0616 38.0012 19.9931 37.8522 19.9257C37.6675 19.8496 37.4656 19.755 37.2462 19.642C37.0332 19.5267 36.8157 19.4061 36.5937 19.2799C36.3716 19.1538 36.1528 19.0266 35.937 18.8983C35.7276 18.7678 35.5328 18.6428 35.3527 18.5232C35.9906 17.9528 36.5222 17.3912 36.9477 16.8383C37.3794 16.2833 37.6588 15.7425 37.7858 15.2158C37.8724 14.885 37.8294 14.5151 37.6566 14.1061C37.4704 13.7298 37.2568 13.4328 37.0158 13.2153C36.7797 12.9891 36.5257 12.7901 36.2537 12.6183C35.9181 12.4335 35.5584 12.376 35.1745 12.4457C34.7955 12.5068 34.4062 12.6484 34.0066 12.8705C33.612 13.0839 33.2187 13.3528 32.8269 13.6772C32.4413 13.9993 32.0722 14.3194 31.7195 14.6372C31.6471 14.7112 31.5927 14.8559 31.5564 15.0714C31.5188 15.2803 31.4983 15.5392 31.4949 15.8482C31.4902 16.1507 31.4967 16.4912 31.5146 16.8698C31.5311 17.2419 31.5534 17.626 31.5816 18.022C31.6162 18.4158 31.6538 18.8086 31.6946 19.2002C31.7292 19.5941 31.7652 19.9629 31.8028 20.3067C31.8391 20.6439 31.8749 20.9464 31.9102 21.214C31.9392 21.4838 31.9617 21.6894 31.9776 21.8309C32.0002 22.0049 32.0444 22.1366 32.1102 22.2258C32.1746 22.3084 32.2742 22.365 32.4088 22.3954C32.5421 22.4193 32.6776 22.4214 32.8153 22.4017C32.953 22.3821 33.1117 22.3657 33.2913 22.3526C33.443 22.3351 33.5407 22.3014 33.5843 22.2513C33.6342 22.1991 33.6641 22.1153 33.6739 21.9999C33.67 21.6235 33.6648 21.2405 33.6582 20.851C33.6579 20.4594 33.6605 20.0492 33.666 19.6205ZM33.8518 15.2957C34.0718 15.0867 34.2873 14.9213 34.4983 14.7993C34.7094 14.6774 34.9062 14.5848 35.089 14.5216C35.4607 14.3931 35.7033 14.4072 35.8169 14.5638C35.8778 14.6617 35.8788 14.8292 35.82 15.0664C35.7612 15.3037 35.6421 15.5757 35.4627 15.8826C35.282 16.1829 35.0445 16.5029 34.7504 16.8425C34.4612 17.1733 34.1148 17.489 33.7112 17.7894C33.7415 17.3172 33.7645 16.8755 33.7804 16.4642C33.7963 16.0529 33.8201 15.6634 33.8518 15.2957Z" fill="black" fill-opacity="0.3"/>
<path d="M38.0629 12.1817L38.5172 19.0032C38.5412 19.1838 38.5975 19.3252 38.6863 19.4274C38.7688 19.5318 38.873 19.6112 38.9991 19.6656C39.1558 19.7373 39.2896 19.796 39.4004 19.8417C39.5161 19.8786 39.635 19.9145 39.757 19.9493C39.8651 19.9818 39.9855 19.9927 40.1183 19.9818C40.2587 19.9752 40.4482 19.8957 40.6867 19.7433C41.0498 19.5408 41.4305 19.3252 41.8287 19.0966C42.2269 18.8679 42.6195 18.6447 43.0065 18.427C43.1698 18.3355 43.2625 18.2615 43.2845 18.2049C43.3052 18.1418 43.2862 18.0504 43.2276 17.9308C43.1528 17.8307 43.0818 17.7328 43.0147 17.6371C42.9525 17.5327 42.87 17.4283 42.7673 17.3239C42.6736 17.2303 42.5723 17.1814 42.4633 17.1771C42.3607 17.1706 42.2225 17.2044 42.0488 17.2784C41.7378 17.4069 41.4503 17.5343 41.1861 17.6607C40.9283 17.7848 40.6567 17.9242 40.3714 18.0788C40.3838 17.8786 40.3931 17.6795 40.3993 17.4814C40.4041 17.2769 40.41 17.0615 40.417 16.8352C40.7662 16.6305 41.1293 16.428 41.5064 16.2277C41.8898 16.0251 42.2631 15.8226 42.6262 15.6201C42.7945 15.52 42.8921 15.4372 42.9191 15.3719C42.9523 15.3045 42.9282 15.2044 42.8466 15.0717C42.788 14.952 42.7238 14.8378 42.6539 14.729C42.589 14.6116 42.5052 14.5006 42.4024 14.3962C42.306 14.2896 42.2033 14.2342 42.0944 14.2299C41.9855 14.2256 41.8435 14.2572 41.6684 14.3247C41.4555 14.4053 41.2559 14.4848 41.0696 14.5632C40.8833 14.6416 40.6984 14.7265 40.5148 14.818C40.5437 14.4372 40.5666 14.076 40.5835 13.7343C40.599 13.3862 40.6235 13.0489 40.657 12.7225C41.0908 12.5025 41.5046 12.3 41.8983 12.1149C42.2921 11.9298 42.6732 11.749 43.0418 11.5726C43.2191 11.4834 43.3268 11.4006 43.365 11.3245C43.4032 11.2483 43.3921 11.1297 43.3317 10.9687C43.269 10.8295 43.209 10.7033 43.1518 10.5901C43.0932 10.4705 43.0066 10.3465 42.8922 10.2182C42.7304 9.95927 42.4706 9.89518 42.1128 10.0259C41.7375 10.1696 41.3631 10.3341 40.9896 10.5192C40.621 10.6956 40.2608 10.8796 39.9089 11.0712C39.5633 11.2606 39.2317 11.4523 38.914 11.646C38.6026 11.8376 38.3189 12.0162 38.0629 12.1817Z" fill="black" fill-opacity="0.3"/>
</g>
<defs>
<clipPath id="clip0_2723_4617">
<rect width="62" height="61" fill="white" transform="translate(0 0.411621)"/>
</clipPath>
</defs>
</svg>
