<svg width="47" height="48" viewBox="0 0 47 48" fill="none" xmlns="http://www.w3.org/2000/svg">
<path fill-rule="evenodd" clip-rule="evenodd" d="M42.0311 24.8712C42.0552 24.8603 42.3168 24.7191 42.3168 24.7191L46.6208 22.0859C45.7524 21.9271 44.9844 21.3363 44.6531 20.4437C44.1707 19.1426 44.7951 17.7077 46.0438 17.1578L43.5721 15.4388C43.5904 15.4305 43.6061 15.4171 43.6236 15.4088C43.0781 14.4469 42.4612 13.5318 41.7895 12.6619C41.7372 12.5933 41.6824 12.529 41.6301 12.4613C40.9908 11.6532 40.3017 10.8894 39.5644 10.174C39.493 10.1047 39.4225 10.037 39.3511 9.96846C38.5906 9.24894 37.7835 8.58039 36.9325 7.96867C36.8869 7.93608 36.8429 7.90098 36.7972 7.86923C35.8897 7.22742 34.9366 6.64662 33.9395 6.1402C34.4227 5.26189 34.548 4.19222 34.1694 3.17937C33.4845 1.34672 31.4528 0.419949 29.6321 1.11022C28.3659 1.5899 27.5506 2.72894 27.3937 3.99249C26.8067 3.89388 26.2131 3.81616 25.612 3.76268C25.5622 3.7585 25.5132 3.75182 25.4634 3.74764C24.8415 3.69666 24.2146 3.6624 23.5795 3.6624C10.8326 3.6624 0.5 14.0641 0.5 26.8944C0.5 27.6975 0.554797 28.4847 0.633671 29.266C0.653598 29.4641 0.676015 29.6605 0.700922 29.8577C0.798062 30.6249 0.91845 31.3845 1.08865 32.1274C1.09529 32.1567 1.10526 32.1843 1.1119 32.2143C1.22066 32.6823 1.34188 33.1461 1.47804 33.6032C1.49548 33.6634 1.68561 34.164 1.75701 34.3754C3.14769 38.4978 5.63265 42.1088 8.89888 44.8231C8.99769 44.905 9.68514 45.3914 9.94418 45.5736C11.5433 46.6959 13.4678 47.3745 15.5659 47.3745C19.1135 47.3745 22.2071 45.4933 23.9714 42.6813C24.1117 42.6971 24.2487 42.7239 24.3932 42.7239C25.5356 42.7239 26.5427 42.1857 27.2135 41.3609V41.3626C27.2135 41.3626 30.9372 38.7711 30.7139 38.7711H28.3028C29.3747 38.0115 30.7795 36.9986 30.6392 36.9986H28.4946C29.5349 36.259 30.7712 35.3624 30.6392 35.3624H27.2152L27.2144 35.3774H25.3048C24.3915 30.7903 20.3921 27.3256 15.5659 27.3256C15.4504 27.3256 15.3425 27.3557 15.2279 27.3599C13.9469 26.5008 13.1315 25.0116 13.2353 23.3553C13.2802 22.6374 13.5027 21.9806 13.8414 21.4014C13.7667 21.2376 13.7177 21.0613 13.7293 20.8691C13.7683 20.2474 14.2997 19.7752 14.9174 19.8145C15.2553 19.8354 15.5376 20.0125 15.7278 20.2624C15.7352 20.2632 15.741 20.2666 15.7469 20.2674C16.6286 20.3226 17.4397 19.9866 18.0284 19.4142C18.0981 19.3457 18.368 19.0916 18.4253 19.0381C18.8412 18.6504 19.3884 18.4139 19.9994 18.4523C20.1514 18.4623 21.107 18.6353 21.821 18.7674C21.8285 18.7498 21.831 18.7323 21.8393 18.7147C22.4794 17.3083 24.1308 16.6899 25.5289 17.335C26.7004 17.8749 27.309 19.1301 27.1031 20.3501C30.1103 21.2819 32.5479 22.9742 35.8532 26.8066C35.854 26.8025 35.8557 26.7983 35.8565 26.7941C36.2816 27.3975 37.0479 27.6833 37.7694 27.4125C38.6287 27.0891 39.0646 26.1264 38.7442 25.2615C38.603 24.8821 38.3398 24.5887 38.0177 24.4049C37.8516 24.3096 37.6706 24.2403 37.4797 24.2077C37.4689 24.206 37.4132 24.1918 37.3966 24.1884C37.1492 24.1425 36.9184 24.0079 36.759 23.7865C36.4302 23.3277 36.5332 22.6884 36.989 22.3575C37.444 22.0274 38.0791 22.131 38.4079 22.5889C38.4212 22.6082 38.4386 22.6441 38.4403 22.6416C38.7118 23.0962 39.1485 23.7631 39.2647 23.9361C39.2813 23.962 39.3054 23.9979 39.3112 24.0071C39.6948 24.6347 40.3532 25.0726 41.1386 25.0726C41.4591 25.0726 41.7572 24.9957 42.0311 24.8712ZM31.5509 3.09497C30.3453 3.09497 29.3681 4.07857 29.3681 5.29198C29.3681 5.58614 29.4304 5.86359 29.5342 6.12014C29.0327 5.71734 28.6906 5.12401 28.6906 4.42789C28.6906 3.21448 29.6678 2.23088 30.8734 2.23088C31.7866 2.23088 32.5638 2.79831 32.8901 3.59972C32.5164 3.30055 32.0648 3.09497 31.5509 3.09497ZM35.5376 14.3065C35.4961 14.3366 35.4471 14.3441 35.4031 14.3683C35.5642 14.1452 35.6165 13.8569 35.4471 13.6204C35.2371 13.3279 34.8311 13.261 34.5396 13.4725C34.2516 13.6822 34.1885 14.0825 34.3902 14.3759C34.2474 14.299 34.1154 14.1987 34.0149 14.0583C33.6621 13.5661 33.7725 12.88 34.2615 12.5248C34.7505 12.1705 35.4322 12.2816 35.7842 12.773C36.1371 13.2652 36.0266 13.9513 35.5376 14.3065Z" fill="#FFB39F"/>
</svg>
