<svg width="27" height="28" viewBox="0 0 27 28" fill="none" xmlns="http://www.w3.org/2000/svg">
<path d="M13.4998 0.666748C20.8598 0.666748 26.8332 6.64008 26.8332 14.0001C26.8332 21.3601 20.8598 27.3334 13.4998 27.3334C6.13984 27.3334 0.166504 21.3601 0.166504 14.0001C0.166504 6.64008 6.13984 0.666748 13.4998 0.666748ZM13.4998 24.6667C19.3932 24.6667 24.1665 19.8934 24.1665 14.0001C24.1665 8.10675 19.3932 3.33341 13.4998 3.33341C7.6065 3.33341 2.83317 8.10675 2.83317 14.0001C2.83317 19.8934 7.6065 24.6667 13.4998 24.6667ZM13.4998 12.6667H18.8332V15.3334H13.4998V19.3334L8.1665 14.0001L13.4998 8.66675V12.6667Z" fill="black"/>
</svg>
