<svg width="27" height="28" viewBox="0 0 27 28" fill="none" xmlns="http://www.w3.org/2000/svg">
<path d="M13.5001 12.6667V8.66675L18.8334 14.0001L13.5001 19.3334V15.3334H8.16675V12.6667H13.5001ZM13.5001 0.666748C20.8601 0.666748 26.8334 6.64008 26.8334 14.0001C26.8334 21.3601 20.8601 27.3334 13.5001 27.3334C6.14008 27.3334 0.166748 21.3601 0.166748 14.0001C0.166748 6.64008 6.14008 0.666748 13.5001 0.666748ZM13.5001 24.6667C19.3934 24.6667 24.1667 19.8934 24.1667 14.0001C24.1667 8.10675 19.3934 3.33341 13.5001 3.33341C7.60675 3.33341 2.83341 8.10675 2.83341 14.0001C2.83341 19.8934 7.60675 24.6667 13.5001 24.6667Z" fill="black"/>
</svg>
