<svg width="24" height="22" viewBox="0 0 24 22" fill="none" xmlns="http://www.w3.org/2000/svg">
<path d="M11.5465 1.16356C11.7257 0.777697 12.2743 0.777697 12.4535 1.16356L14.9952 6.6367C15.2138 7.10733 15.6601 7.43157 16.1752 7.49401L22.1659 8.22007C22.5883 8.27126 22.7578 8.79298 22.4462 9.08265L18.0264 13.1913C17.6463 13.5446 17.4759 14.0692 17.5757 14.5784L18.7364 20.5003C18.8182 20.9178 18.3744 21.2403 18.0026 21.0334L12.7293 18.0996C12.2758 17.8473 11.7242 17.8473 11.2707 18.0996L5.99738 21.0334C5.6256 21.2403 5.18179 20.9178 5.26363 20.5003L6.42433 14.5784C6.52414 14.0692 6.35368 13.5446 5.97362 13.1913L1.5538 9.08264C1.2422 8.79298 1.41171 8.27126 1.83407 8.22007L7.82478 7.49401C8.33992 7.43157 8.7862 7.10733 9.00476 6.6367L11.5465 1.16356Z" fill="#6C8DFF" stroke="#6C8DFF"/>
</svg>
