<svg width="55" height="54" viewBox="0 0 55 54" fill="none" xmlns="http://www.w3.org/2000/svg">
<rect x="0.5" width="54" height="54" rx="7.71429" fill="#30234A"/>
<path opacity="0.5" fill-rule="evenodd" clip-rule="evenodd" d="M35.3917 33.4798L30.3367 30.3867C29.9705 30.1625 29.6693 30.4555 29.6673 31.038L29.626 42.0288C29.624 42.6107 29.9218 43.2708 30.2873 43.495L35.3429 46.5874C35.7085 46.8116 36.009 46.5186 36.0124 45.9368L36.053 34.9446C36.0557 34.3628 35.7572 33.7039 35.3917 33.4798Z" fill="#FFB39F"/>
<path opacity="0.5" fill-rule="evenodd" clip-rule="evenodd" d="M43.0804 31.0373C43.0784 30.4555 42.7765 30.1625 42.4103 30.3867L37.356 33.4798C36.9898 33.7033 36.6913 34.3628 36.6934 34.9446L36.7353 45.9368C36.738 46.5186 37.0393 46.8116 37.4048 46.5875L42.4597 43.4943C42.8259 43.2709 43.1231 42.6107 43.1211 42.0288L43.0804 31.0373Z" fill="#FFB39F"/>
<path fill-rule="evenodd" clip-rule="evenodd" d="M43.1174 35.4605V35.4598H43.1107C43.1059 35.4591 43.1012 35.4578 43.0964 35.4578V35.4598H40.326C40.219 35.4598 41.2262 36.1909 42.0743 36.7938H40.326C40.2116 36.7938 41.3575 37.6196 42.2314 38.2389H40.2657C40.0843 38.2389 43.0876 40.3291 43.1147 40.3489L43.1181 41.4356C44.7013 41.3633 45.9651 40.0593 45.9651 38.4487C45.9651 36.8367 44.7 35.5327 43.1174 35.4605Z" fill="#FFB39F"/>
<path fill-rule="evenodd" clip-rule="evenodd" d="M41.696 26.895C41.7156 26.8861 41.9288 26.771 41.9288 26.771L45.4378 24.6242C44.7298 24.4948 44.1037 24.0131 43.8336 23.2854C43.4403 22.2246 43.9493 21.0548 44.9674 20.6065L42.9523 19.2051C42.9672 19.1983 42.98 19.1874 42.9943 19.1806C42.5495 18.3964 42.0466 17.6504 41.499 16.9411C41.4564 16.8852 41.4117 16.8328 41.3691 16.7776C40.8479 16.1188 40.286 15.4961 39.685 14.9129C39.6268 14.8563 39.5692 14.8011 39.511 14.7453C38.891 14.1587 38.2331 13.6136 37.5393 13.1149C37.502 13.0883 37.4662 13.0597 37.4289 13.0338C36.6891 12.5106 35.912 12.0371 35.0991 11.6242C35.493 10.9081 35.5952 10.0361 35.2866 9.21032C34.7282 7.71621 33.0718 6.96065 31.5874 7.5234C30.5552 7.91447 29.8905 8.8431 29.7625 9.87323C29.284 9.79284 28.8 9.72948 28.3099 9.68587C28.2693 9.68247 28.2294 9.67702 28.1888 9.67361C27.6818 9.63205 27.1707 9.60412 26.6529 9.60412C16.2607 9.60412 7.83691 18.0843 7.83691 28.5444C7.83691 29.1992 7.88159 29.841 7.94589 30.478C7.96214 30.6395 7.98041 30.7996 8.00072 30.9604C8.07992 31.5858 8.17806 32.2051 8.31682 32.8108C8.32224 32.8346 8.33036 32.8571 8.33578 32.8816C8.42445 33.2632 8.52327 33.6413 8.63428 34.014C8.6485 34.063 8.8035 34.4711 8.86172 34.6435C9.9955 38.0044 12.0214 40.9483 14.6843 43.1612C14.7648 43.228 15.3253 43.6245 15.5365 43.773C16.8401 44.688 18.4092 45.2412 20.1196 45.2412C23.012 45.2412 25.534 43.7076 26.9724 41.415C27.0868 41.428 27.1985 41.4498 27.3163 41.4498C28.2477 41.4498 29.0687 41.011 29.6157 40.3386V40.3399C29.6157 40.3399 32.6515 38.2272 32.4694 38.2272H30.5037C31.3776 37.6079 32.5229 36.7821 32.4085 36.7821H30.6601C31.5082 36.1792 32.5161 35.4481 32.4085 35.4481H29.617L29.6163 35.4604H28.0595C27.3149 31.7207 24.0544 28.896 20.1196 28.896C20.0256 28.896 19.9376 28.9205 19.8442 28.9239C18.7997 28.2236 18.135 27.0095 18.2196 25.6591C18.2562 25.0739 18.4376 24.5384 18.7138 24.0662C18.6528 23.9327 18.6129 23.7889 18.6224 23.6322C18.6542 23.1253 19.0874 22.7404 19.591 22.7724C19.8665 22.7894 20.0966 22.9339 20.2516 23.1376C20.2577 23.1383 20.2625 23.141 20.2672 23.1417C20.9861 23.1867 21.6474 22.9128 22.1273 22.4461C22.1841 22.3902 22.4041 22.1831 22.4508 22.1395C22.79 21.8234 23.236 21.6305 23.7342 21.6619C23.8581 21.6701 24.6372 21.8111 25.2193 21.9187C25.2254 21.9044 25.2274 21.8901 25.2342 21.8758C25.7561 20.7292 27.1024 20.225 28.2423 20.751C29.1973 21.1911 29.6935 22.2144 29.5256 23.2091C31.9773 23.9688 33.9646 25.3484 36.6593 28.4729C36.66 28.4695 36.6613 28.4661 36.662 28.4627C37.0086 28.9546 37.6333 29.1876 38.2216 28.9669C38.9221 28.7032 39.2775 27.9183 39.0162 27.2132C38.9011 26.9039 38.6866 26.6647 38.4239 26.5148C38.2886 26.4372 38.141 26.3806 37.9853 26.354C37.9765 26.3527 37.9312 26.3411 37.9176 26.3384C37.7159 26.3009 37.5277 26.1912 37.3978 26.0107C37.1297 25.6366 37.2137 25.1154 37.5853 24.8456C37.9562 24.5765 38.474 24.661 38.7421 25.0344C38.7529 25.05 38.7671 25.0793 38.7685 25.0773C38.9898 25.4479 39.3459 25.9916 39.4406 26.1326C39.4542 26.1537 39.4738 26.183 39.4785 26.1905C39.7912 26.7022 40.328 27.0592 40.9683 27.0592C41.2296 27.0592 41.4726 26.9965 41.696 26.895ZM33.1517 9.14151C32.1689 9.14151 31.3722 9.94341 31.3722 10.9327C31.3722 11.1725 31.423 11.3987 31.5076 11.6078C31.0987 11.2794 30.8199 10.7957 30.8199 10.2282C30.8199 9.23893 31.6166 8.43704 32.5994 8.43704C33.344 8.43704 33.9775 8.89964 34.2435 9.55302C33.9389 9.30911 33.5707 9.14151 33.1517 9.14151ZM36.402 18.2819C36.3682 18.3064 36.3283 18.3126 36.2924 18.3323C36.4237 18.1504 36.4663 17.9154 36.3283 17.7226C36.157 17.4841 35.826 17.4296 35.5884 17.602C35.3535 17.773 35.3021 18.0993 35.4666 18.3385C35.3502 18.2758 35.2425 18.194 35.1606 18.0796C34.873 17.6783 34.963 17.1189 35.3617 16.8294C35.7604 16.5405 36.3161 16.6311 36.6031 17.0317C36.8907 17.433 36.8007 17.9924 36.402 18.2819Z" fill="#FFB39F"/>
<path fill-rule="evenodd" clip-rule="evenodd" d="M47.0763 22.0666C46.8143 21.3608 46.0346 21.0031 45.3347 21.2661C44.6341 21.5297 44.2781 22.3146 44.5393 23.0204C44.802 23.7256 45.5811 24.0833 46.2816 23.8196C46.9822 23.5566 47.3383 22.7711 47.0763 22.0666Z" fill="#FFB39F"/>
<path fill-rule="evenodd" clip-rule="evenodd" d="M23.2499 23.447C22.9314 23.7581 22.9192 24.2776 23.2202 24.6062C23.5211 24.9341 24.023 24.9473 24.3395 24.6369C24.5776 24.4034 24.6452 24.0538 24.5363 23.7546L23.536 23.2715C23.4332 23.3078 23.3345 23.3638 23.2499 23.447Z" fill="#FFB39F"/>
<path fill-rule="evenodd" clip-rule="evenodd" d="M28.2352 23.9909C28.9056 23.5658 29.0897 22.7006 28.6456 22.0593C28.2479 21.4836 27.4881 21.3093 26.8506 21.5788C27.2752 21.6553 27.6682 21.8856 27.9261 22.2581C28.3514 22.8749 28.2446 23.6552 27.7488 24.1801C27.9167 24.144 28.0833 24.0874 28.2352 23.9909Z" fill="#FFB39F"/>
</svg>
